<?xml version="1.0" encoding="utf-8"?>
<!-- Generator: Adobe Illustrator 25.0.0, SVG Export Plug-In . SVG Version: 6.00 Build 0)  -->
<svg version="1.1" id="logo_x5F_area" xmlns="http://www.w3.org/2000/svg" xmlns:xlink="http://www.w3.org/1999/xlink" x="0px"
	 y="0px" viewBox="0 0 1000 390" style="enable-background:new 0 0 1000 390;" xml:space="preserve">
<g id="oriental">
	<path id="o" d="M127.8,320.1v5.1l-1,13.2l-1,2l2,1l-2,1l1,3.1l2,6.1l-3.1,2l2,1l-2,8.1l1,17.3h-2l-2-2l-2,3.1h-2l-2-2l-2,1l-2-1
		h-12.2l-4.1-1v1H82l-14.3-2l-1,2H42.3l-20.4-2l-1-1l-2,1h-2l-4.1-60.1v-93.7l2-10.2v-6.1l-2-2l2-5.1v-2l-2-1l2-2l-2-43.8h105.9
		l5.1,3.1v44.8l3.1,4.1v4.1l-2,7.1l2,1l-2,14.3l2,1l-1,16.3l2,3.1v4.1l-3.1,2l4.1,7.1l-2,1l1,4.1l-1,3.1v7.1l1,3.1l-1,2l1,4.1
		l-1,3.1l2,1l-1,3.1V316l2,1L127.8,320.1z M96.2,318.1l-1-17.3l-2-4.1v-65.2l-2-1l2-3.1v-31.6l1-9.2H44.3l1,18.3l-1,2l2,1v1l-2,3.1
		l2,6.1V258l2,2l-1,1l-2,1l5.1,3.1l-5.1,4.1l3.1,20.4l1,28.5l-3.1,1l3.1,3.1v7.1l-2,14.3l1,2l26.5-2h20.4v-15.3l-1-4.1l2-1
		C96.2,323.2,96.2,318.1,96.2,318.1z"/>
	<path id="r" d="M268.4,199.9l-1,5.1v31.6l-27.5,2l4.1,25.5l1,1l12.2,57l-1,4.1l10.2,50.9h-28.5l-32.6-138.5l-4.1,1H191l-5.1-1l-2,1
		l3.1,64.2l-2,4.1l2,7.1v3.1l-1,3.1l2,10.2l-3.1,2l3.1,4.1l-3.1,11.2V367l1,8.1h-32.6l1-10.2V263.1l-4.1-46.8l1-27.5v-32.6l1-4.1
		h113l3.1,4.1l-1,3.1v39.7L268.4,199.9z M234.8,192.8l-1-7.1h-50.9v14.3l50.9,1L234.8,192.8z"/>
	<path id="i_1_" d="M338.6,321.1l-2,9.2V368h-2v11.2l1,1h-38.7l-4.1-14.3l2-4.1v-19.4l-2-53l1-2V260l-2-3.1l2-3.1l-1-13.2l1-20.4
		l1-1l-2-1l1-6.1l2-3.1l-2-3.1l2-6.1v-33.6l2-11.2h24.4l10.2-1l4.1,36.7v99.8l1,21.4l-1,11.2L338.6,321.1z"/>
	<path id="e_1_" d="M468,355.8l1,13.2H362.1L357,268.2v-74.3l-4.1-6.1l2-3.1v-33.6h105.9l1,4.1v13.2l-1,3.1l4.1,16.3h-20.4l-53,3.1
		l-2,1v5.1l-3.1,2l4.1,38.7l19.4-1l11.2,1l20.4,4.1v12.2l-2,8.1l2,4.1v6.1l-49.9,3.1l-3.1,5.1l-1,10.2v8.1l2,3.1v26.5l4.1,2h49.9
		l7.1-2l22.4-4.1L468,355.8z"/>
	<path id="n" d="M609.5,285.5l1,1l-2,4.1l1,1l-2,30.6l2,3.1l-2,1v5.1l2,1l-2,3.1l-1,6.1l-1,34.6h-34.6l-2-4.1l1-3.1l-11.2-23.4
		l-15.3-36.7L526,266.1l-6.1-20.4v21.4l2,4.1l-2,9.2l2,18.3v2l1,2l-2,69.3l-5.1,1h-12.2l-2-1l-2,1h-7.1l-4.1-1l-5.1-144.6v-42.8
		l4.1-33.6l8.1,1h15.3l5.1-2l23.4,50.9l2,1l-1,1l3.1,7.1v4.1l10.2,21.4l17.3,48.9l2,1l-5.1-127.3l3.1-7.1h32.6l4.1,37.7v10.2l2,23.4
		l1,1v3.1l-2,1L609.5,285.5z"/>
	<path id="t_1_" d="M753.1,185.7l-3.1,4.1l-14.3-3.1h-17.3l-5.1,1v59.1l1,11.2v75.4l1,4.1v17.3l2,3.1l-2,1v3.1l-2,4.1v6.1l2,4.1
		l-4.1,3.1h-29.5l-2-3.1V189.8h-50.9l1-6.1v-28.5l-2-5.1v-2l1-1l28.5,3.1h37.7l4.1-1l8.1,1l13.2-1l2,1l1-1l2-1h4.1l4.1,2h16.3l2,6.1
		v26.5L753.1,185.7z"/>
	<path id="a_1_" d="M860.1,376.1l-1,1h-7.1l-16.3-2l-4.1,1l-6.1-7.1l1-11.2l-2-1v-2l1-1l-5.1-9.2l1-4.1l-10.2,2l-8.1-1h-21.4
		l-3.1-4.1l-3.1,9.2l-5.1,19.4l-1,11.2l-30.6-3.1l11.2-95.7l13.2-71.3l3.1-9.2v-13.2l2-2v-9.2l3.1-6.1l2-14.3l42.8,2l1,11.2l2,8.1
		l3.1,6.1l1,1v12.2l4.1,6.1l-1,7.1h2l6.1,31.6l3.1,4.1l4.1,23.4l4.1,14.3l-1,2l6.1,23.4l2,11.2l1,11.2l3.1,6.1v1l-1,2l1,3.1l2,19.4
		L860.1,376.1z M800,210.1h-4.1l-8.1,72.3h3.1v2l-5.1,11.2l-3.1,10.2l6.1-1l24.4-1L800,210.1z"/>
	<path id="l_1_" d="M985.3,375.1h-109v-219l-2-4.1H910l4.1,73.3v62.1l-2,48.9l2,2l72.3-6.1L985.3,375.1L985.3,375.1z"/>
</g>
<g id="bataille">
	<path id="b" d="M280.6,27.8c0-6.1-1-17.3-1-19.4c9.2,0,20.4,1,29.5,1c24.4,2,28.5,7.1,28.5,16.3v3.1c0,8.1-3.1,12.2-15.3,13.2v1
		c15.3,2,17.3,6.1,17.3,13.2v4.1c0,14.3-8.1,18.3-38.7,20.4c-5.1,0-16.3,1-21.4,1C280.6,65.5,280.6,51.2,280.6,27.8z M313.2,32.9
		c0-2-1-3.1-3.1-4.1c-2,0-3.1,0-4.1,0v5.1c0,2,0,3.1,0,5.1C312.2,37,313.2,35,313.2,32.9z M313.2,56.3c0-1,0-1,0-2
		c0-3.1-1-4.1-8.1-4.1v12.2C312.2,61.4,313.2,60.4,313.2,56.3z"/>
	<path id="a" d="M382.4,70.6h-13.2l-2,10.2c-4.1-1-7.1-1-11.2-1c-3.1,0-10.2,0-15.3,1c5.1-21.4,14.3-56,17.3-70.3
		c18.3,0,29.5-1,34.6-1c5.1,21.4,13.2,56,16.3,71.3c-6.1,0-16.3,0-25.5,1C383.4,78.7,383.4,74.7,382.4,70.6z M379.4,53.3
		c-1-6.1-2-12.2-3.1-17.3c-1,5.1-2,12.2-3.1,17.3C375.3,53.3,377.3,53.3,379.4,53.3z"/>
	<path id="t" d="M422.1,29.9c-3.1,0-13.2,1-16.3,1c0-5.1-1-14.3-1-19.4c8.1-1,21.4-1,31.6-1s21.4,1,27.5,1c0,2,0,15.3,0,18.3
		c-3.1,0-13.2,0-16.3,0v50.9l-24.4,1L422.1,29.9z"/>
	<path id="a_x5F_2" d="M498.5,70.6h-13.2l-2,10.2c-4.1-1-7.1-1-11.2-1c-3.1,0-10.2,0-15.3,1c5.1-21.4,14.3-56,17.3-70.3
		c18.3,0,29.5-1,34.6-1c5.1,21.4,13.2,56,16.3,71.3c-6.1,0-16.3,0-25.5,1C500.6,78.7,499.6,74.7,498.5,70.6z M495.5,53.3
		c-1-6.1-2-12.2-3.1-17.3c-1,5.1-2,12.2-3.1,17.3C491.4,53.3,494.5,53.3,495.5,53.3z"/>
	<path id="i" d="M532.1,11.5c7.1,0,21.4-1,25.5-1c-1,19.4-1,39.7-1,55v16.3c-3.1,0-7.1-1-15.3-1c-5.1,0-7.1,0-10.2,1
		C532.1,59.4,532.1,36,532.1,11.5z"/>
	<path id="l" d="M566.8,10.5c9.2,0,23.4,0,25.5-1c0,13.2-1,34.6-1,48.9c0,2,1,3.1,2,3.1s12.2,0,17.3,0c0,8.1,1,12.2,2,19.4
		c-5.1,0-19.4,0-26.5,0c-4.1,0-18.3,0-20.4,0C566.8,59.4,566.8,38,566.8,10.5z"/>
	<path id="l_x5F_2" d="M618.7,10.5c9.2,0,23.4,0,25.5-1c0,13.2-1,34.6-1,48.9c0,2,1,3.1,2,3.1s12.2,0,17.3,0c0,8.1,1,12.2,2,19.4
		c-5.1,0-19.4,0-26.5,0c-4.1,0-18.3,0-20.4,0C618.7,59.4,618.7,38,618.7,10.5z"/>
	<path id="e" d="M668.6,61.4c0-8.1,0-17.3,0-30.6c-2,0-3.1,1-5.1,1c0-2,0-6.1,0-7.1c0-3.1,0-7.1,0-10.2c11.2-2,26.5-4.1,37.7-4.1
		c7.1,0,13.2,0,16.3,1c0,7.1,0,13.2,1,18.3c-2,0-7.1,0-11.2,0c-2,0-8.1,0-13.2,0c0,3.1,0,5.1,0,8.1c4.1,0,9.2,0,12.2,0
		c2,0,5.1,0,7.1,0v16.3c-3.1,0-13.2,0-19.4,0c0,1,0,3.1,0,4.1c0,2,1,3.1,2,4.1c2,1,5.1,1,12.2,1c2,0,9.2,0,10.2,0
		c0,9.2,1,15.3,1,19.4c-7.1,1-17.3,1-21.4,1C675.7,81.8,668.6,74.7,668.6,61.4z"/>
</g>
</svg>
