<?xml version="1.0" encoding="utf-8"?>
<!-- Generator: Adobe Illustrator 25.0.0, SVG Export Plug-In . SVG Version: 6.00 Build 0)  -->
<svg version="1.1" id="Ebene_1" xmlns="http://www.w3.org/2000/svg" xmlns:xlink="http://www.w3.org/1999/xlink" x="0px" y="0px"
	 viewBox="0 0 167 234" style="enable-background:new 0 0 167 234;" xml:space="preserve">
<style type="text/css">
	.st0{fill:#FFFFFF;}
	.st1{fill:#161616;}
	.st2{fill:#CC0601;}
	.st3{fill:#CD0902;}
</style>
<g>
	<g>
		<g>
			<path class="st0" d="M160.7,233.4H6.3c-3.3,0-5.9-2.7-5.9-5.9V6.5c0-3.3,2.7-5.9,5.9-5.9h154.4c3.3,0,5.9,2.7,5.9,5.9v221
				C166.6,230.8,164,233.4,160.7,233.4z"/>
			<path class="st1" d="M160.7,233.5H6.3c-3.3,0-6.1-2.7-6.1-6.1V6.5c0-3.3,2.7-6.1,6.1-6.1h154.4c3.3,0,6.1,2.7,6.1,6.1v221
				C166.7,230.8,164,233.5,160.7,233.5z M6.3,0.7c-3.2,0-5.8,2.6-5.8,5.8v221c0,3.2,2.6,5.8,5.8,5.8h154.4c3.2,0,5.8-2.6,5.8-5.8
				V6.5c0-3.2-2.6-5.8-5.8-5.8H6.3z"/>
		</g>
	</g>
	<g>
		<circle class="st0" cx="148.8" cy="18.9" r="0.6"/>
	</g>
	<g>
		<circle class="st0" cx="121.7" cy="18.9" r="0.6"/>
	</g>
	<g>
		<circle class="st0" cx="71.7" cy="19.1" r="0.6"/>
	</g>
	<g>
		<circle class="st0" cx="148.8" cy="40.1" r="0.6"/>
	</g>
	<g>
		<circle class="st0" cx="148.8" cy="59.4" r="0.6"/>
	</g>
	<g>
		<circle class="st0" cx="18.6" cy="19.5" r="0.6"/>
	</g>
	<g>
		<path class="st0" d="M46.6,19.1c0,0.3-0.3,0.6-0.6,0.6c-0.3,0-0.6-0.3-0.6-0.6c0-0.3,0.3-0.6,0.6-0.6
			C46.3,18.6,46.6,18.8,46.6,19.1z"/>
	</g>
	<g>
		<circle class="st0" cx="18.6" cy="39.6" r="0.6"/>
	</g>
	<g>
		<circle class="st0" cx="18.6" cy="59.5" r="0.6"/>
	</g>
	<g>
		<circle class="st0" cx="18.6" cy="79.4" r="0.6"/>
	</g>
	<g>
		<circle class="st0" cx="18.6" cy="92.4" r="0.6"/>
	</g>
	<g>
		<circle class="st0" cx="18.6" cy="105.8" r="0.6"/>
	</g>
	<g>
		<circle class="st0" cx="18.6" cy="118.7" r="0.6"/>
	</g>
	<g>
		<circle class="st0" cx="18.6" cy="170.4" r="0.6"/>
	</g>
	<g>
		<path class="st0" d="M19.1,183.8c0,0.3-0.3,0.6-0.6,0.6c-0.3,0-0.6-0.3-0.6-0.6c0-0.3,0.3-0.6,0.6-0.6
			C18.9,183.2,19.1,183.5,19.1,183.8z"/>
	</g>
	<g>
		<circle class="st0" cx="18.6" cy="196.9" r="0.6"/>
	</g>
	<g>
		<path class="st0" d="M19.4,216c0,0.3-0.3,0.6-0.6,0.6c-0.3,0-0.6-0.3-0.6-0.6s0.3-0.6,0.6-0.6C19.1,215.5,19.4,215.7,19.4,216z"/>
	</g>
	<g>
		<path class="st0" d="M66.3,216.6c0,0.3-0.3,0.6-0.6,0.6c-0.3,0-0.6-0.3-0.6-0.6c0-0.3,0.3-0.6,0.6-0.6
			C66.1,216,66.3,216.3,66.3,216.6z"/>
	</g>
	<g>
		<circle class="st0" cx="92.1" cy="216.6" r="0.6"/>
	</g>
	<g>
		<circle class="st0" cx="117.9" cy="216.6" r="0.6"/>
	</g>
	<g>
		<circle class="st0" cx="148.8" cy="157.1" r="0.6"/>
	</g>
	<g>
		<circle class="st0" cx="148.8" cy="169.8" r="0.6"/>
	</g>
	<g>
		<circle class="st0" cx="148.8" cy="182.4" r="0.6"/>
	</g>
	<g>
		<circle class="st0" cx="148.8" cy="195.2" r="0.6"/>
	</g>
	<g>
		<circle class="st0" cx="148.8" cy="214.8" r="0.6"/>
	</g>
	<g>
		<g>
			<polygon class="st2" points="19.4,24.9 14.7,30.1 18.9,35.8 23.8,30.6 			"/>
		</g>
		<g>
			<polygon class="st2" points="147.2,188.9 142.5,194.2 146.7,199.9 151.5,194.6 			"/>
		</g>
		<g>
			<g>
				<g>
					<path class="st3" d="M15.9,21.2h1.9c0.2,0,0.3,0,0.4-0.1c0.1-0.1,0.1-0.2,0.1-0.4v-2.6h-4.9v-0.7l6-8.9h0.7v8.9h2.3v0.7h-2.3
						v2.6c0,0.2,0,0.3,0.1,0.4c0.1,0.1,0.2,0.1,0.4,0.1h1.9v0.6h-6.6V21.2z M14.3,17.4h4v-5.9L14.3,17.4z"/>
				</g>
			</g>
		</g>
		<g>
			<g>
				<g>
					<path class="st2" d="M151.1,202.6h-1.9c-0.2,0-0.3,0-0.4,0.1c-0.1,0.1-0.1,0.2-0.1,0.4v2.6h4.9v0.7l-6,8.9h-0.7v-8.9h-2.3v-0.7
						h2.3v-2.6c0-0.2,0-0.3-0.1-0.4c-0.1-0.1-0.2-0.1-0.4-0.1h-1.9V202h6.6V202.6z M152.8,206.4h-4v5.9L152.8,206.4z"/>
				</g>
			</g>
		</g>
		<g>
			<polygon class="st2" points="55.6,17.8 42.3,33.9 55.6,50.3 69.2,34 			"/>
		</g>
		<g>
			<polygon class="st2" points="55.6,167.3 42.3,183.5 55.6,199.9 69.2,183.6 			"/>
		</g>
		<g>
			<polygon class="st2" points="111.9,17.8 98.6,33.9 111.9,50.3 125.6,34 			"/>
		</g>
		<g>
			<polygon class="st2" points="111.9,167.3 98.6,183.5 111.9,199.9 125.6,183.6 			"/>
		</g>
	</g>
</g>
</svg>
