<?xml version="1.0" encoding="utf-8"?>
<!-- Generator: Adobe Illustrator 25.0.0, SVG Export Plug-In . SVG Version: 6.00 Build 0)  -->
<svg version="1.1" id="Ebene_1" xmlns="http://www.w3.org/2000/svg" xmlns:xlink="http://www.w3.org/1999/xlink" x="0px" y="0px"
	 viewBox="0 0 167 234" style="enable-background:new 0 0 167 234;" xml:space="preserve">
<style type="text/css">
	.st0{fill:#FFFFFF;}
	.st1{fill:#161616;}
	.st2{fill:#CC0601;}
	.st3{fill:#CD0902;}
</style>
<g>
	<g>
		<g>
			<path class="st0" d="M160.7,233.4H6.3c-3.3,0-5.9-2.7-5.9-5.9V6.5c0-3.3,2.7-5.9,5.9-5.9h154.4c3.3,0,5.9,2.7,5.9,5.9v221
				C166.6,230.8,164,233.4,160.7,233.4z"/>
			<path class="st1" d="M160.7,233.5H6.3c-3.3,0-6.1-2.7-6.1-6.1V6.5c0-3.3,2.7-6.1,6.1-6.1h154.4c3.3,0,6.1,2.7,6.1,6.1v221
				C166.7,230.8,164,233.5,160.7,233.5z M6.3,0.7c-3.2,0-5.8,2.6-5.8,5.8v221c0,3.2,2.6,5.8,5.8,5.8h154.4c3.2,0,5.8-2.6,5.8-5.8
				V6.5c0-3.2-2.6-5.8-5.8-5.8H6.3z"/>
		</g>
	</g>
	<g>
		<circle class="st0" cx="148.8" cy="18.9" r="0.6"/>
	</g>
	<g>
		<path class="st0" d="M122.2,18.9c0,0.3-0.3,0.6-0.6,0.6c-0.3,0-0.6-0.3-0.6-0.6s0.3-0.6,0.6-0.6C122,18.4,122.2,18.6,122.2,18.9z"
			/>
	</g>
	<g>
		<circle class="st0" cx="96.7" cy="18.9" r="0.6"/>
	</g>
	<g>
		<path class="st0" d="M72.3,19.1c0,0.3-0.3,0.6-0.6,0.6c-0.3,0-0.6-0.3-0.6-0.6c0-0.3,0.3-0.6,0.6-0.6C72,18.6,72.3,18.8,72.3,19.1
			z"/>
	</g>
	<g>
		<circle class="st0" cx="148.8" cy="40.1" r="0.6"/>
	</g>
	<g>
		<circle class="st0" cx="148.8" cy="59.4" r="0.6"/>
	</g>
	<g>
		<circle class="st0" cx="148.8" cy="79.6" r="0.6"/>
	</g>
	<g>
		<circle class="st0" cx="148.8" cy="92.4" r="0.6"/>
	</g>
	<g>
		<circle class="st0" cx="148.8" cy="105.2" r="0.6"/>
	</g>
	<g>
		<path class="st0" d="M19.1,19.5c0,0.3-0.3,0.6-0.6,0.6c-0.3,0-0.6-0.3-0.6-0.6s0.3-0.6,0.6-0.6C18.9,18.9,19.1,19.2,19.1,19.5z"/>
	</g>
	<g>
		<circle class="st0" cx="46" cy="19.1" r="0.6"/>
	</g>
	<g>
		<path class="st0" d="M19.1,39.6c0,0.3-0.3,0.6-0.6,0.6c-0.3,0-0.6-0.3-0.6-0.6c0-0.3,0.3-0.6,0.6-0.6
			C18.9,39.1,19.1,39.3,19.1,39.6z"/>
	</g>
	<g>
		<path class="st0" d="M19.1,59.5c0,0.3-0.3,0.6-0.6,0.6c-0.3,0-0.6-0.3-0.6-0.6s0.3-0.6,0.6-0.6C18.9,58.9,19.1,59.2,19.1,59.5z"/>
	</g>
	<g>
		<path class="st0" d="M19.1,79.4c0,0.3-0.3,0.6-0.6,0.6c-0.3,0-0.6-0.3-0.6-0.6c0-0.3,0.3-0.6,0.6-0.6
			C18.9,78.9,19.1,79.1,19.1,79.4z"/>
	</g>
	<g>
		<path class="st0" d="M19.1,92.4c0,0.3-0.3,0.6-0.6,0.6c-0.3,0-0.6-0.3-0.6-0.6s0.3-0.6,0.6-0.6C18.9,91.8,19.1,92,19.1,92.4z"/>
	</g>
	<g>
		<path class="st0" d="M19.1,105.8c0,0.3-0.3,0.6-0.6,0.6c-0.3,0-0.6-0.3-0.6-0.6c0-0.3,0.3-0.6,0.6-0.6
			C18.9,105.2,19.1,105.4,19.1,105.8z"/>
	</g>
	<g>
		<path class="st0" d="M19.1,118.7c0,0.3-0.3,0.6-0.6,0.6c-0.3,0-0.6-0.3-0.6-0.6c0-0.3,0.3-0.6,0.6-0.6
			C18.9,118.1,19.1,118.4,19.1,118.7z"/>
	</g>
	<g>
		<path class="st0" d="M19.1,131.6c0,0.3-0.3,0.6-0.6,0.6c-0.3,0-0.6-0.3-0.6-0.6s0.3-0.6,0.6-0.6C18.9,131,19.1,131.3,19.1,131.6z"
			/>
	</g>
	<g>
		<path class="st0" d="M19.1,145c0,0.3-0.3,0.6-0.6,0.6c-0.3,0-0.6-0.3-0.6-0.6c0-0.3,0.3-0.6,0.6-0.6
			C18.9,144.4,19.1,144.7,19.1,145z"/>
	</g>
	<g>
		<path class="st0" d="M19.1,158.4c0,0.3-0.3,0.6-0.6,0.6c-0.3,0-0.6-0.3-0.6-0.6c0-0.3,0.3-0.6,0.6-0.6
			C18.9,157.9,19.1,158.1,19.1,158.4z"/>
	</g>
	<g>
		<path class="st0" d="M19.1,170.4c0,0.3-0.3,0.6-0.6,0.6c-0.3,0-0.6-0.3-0.6-0.6c0-0.3,0.3-0.6,0.6-0.6
			C18.9,169.8,19.1,170.1,19.1,170.4z"/>
	</g>
	<g>
		<path class="st0" d="M19.1,183.8c0,0.3-0.3,0.6-0.6,0.6c-0.3,0-0.6-0.3-0.6-0.6c0-0.3,0.3-0.6,0.6-0.6
			C18.9,183.2,19.1,183.5,19.1,183.8z"/>
	</g>
	<g>
		<path class="st0" d="M19.1,196.9c0,0.3-0.3,0.6-0.6,0.6c-0.3,0-0.6-0.3-0.6-0.6c0-0.3,0.3-0.6,0.6-0.6
			C18.9,196.3,19.1,196.5,19.1,196.9z"/>
	</g>
	<g>
		<path class="st0" d="M19.4,216c0,0.3-0.3,0.6-0.6,0.6c-0.3,0-0.6-0.3-0.6-0.6s0.3-0.6,0.6-0.6C19.1,215.5,19.4,215.7,19.4,216z"/>
	</g>
	<g>
		<path class="st0" d="M39.9,216.6c0,0.3-0.3,0.6-0.6,0.6c-0.3,0-0.6-0.3-0.6-0.6c0-0.3,0.3-0.6,0.6-0.6
			C39.6,216,39.9,216.3,39.9,216.6z"/>
	</g>
	<g>
		<circle class="st0" cx="65.8" cy="216.6" r="0.6"/>
	</g>
	<g>
		<path class="st0" d="M92.7,216.6c0,0.3-0.3,0.6-0.6,0.6c-0.3,0-0.6-0.3-0.6-0.6c0-0.3,0.3-0.6,0.6-0.6
			C92.5,216,92.7,216.3,92.7,216.6z"/>
	</g>
	<g>
		<path class="st0" d="M118.4,216.6c0,0.3-0.3,0.6-0.6,0.6c-0.3,0-0.6-0.3-0.6-0.6c0-0.3,0.3-0.6,0.6-0.6
			C118.2,216,118.4,216.3,118.4,216.6z"/>
	</g>
	<g>
		<circle class="st0" cx="148.8" cy="118.4" r="0.6"/>
	</g>
	<g>
		<circle class="st0" cx="148.8" cy="130.7" r="0.6"/>
	</g>
	<g>
		<circle class="st0" cx="148.8" cy="144" r="0.6"/>
	</g>
	<g>
		<circle class="st0" cx="148.8" cy="157.1" r="0.6"/>
	</g>
	<g>
		<circle class="st0" cx="148.8" cy="169.8" r="0.6"/>
	</g>
	<g>
		<circle class="st0" cx="148.8" cy="182.4" r="0.6"/>
	</g>
	<g>
		<circle class="st0" cx="148.8" cy="195.2" r="0.6"/>
	</g>
	<g>
		<circle class="st0" cx="148.8" cy="214.8" r="0.6"/>
	</g>
	<g>
		<g>
			<polygon class="st2" points="16,28.8 11.3,34 15.5,39.8 20.3,34.5 			"/>
		</g>
		<g>
			<polygon class="st2" points="148.4,193.6 143.7,198.8 147.9,204.5 152.7,199.3 			"/>
		</g>
		<g>
			<g>
				<g>
					<path class="st3" d="M14,25.3c-0.6-0.5-1.1-1.3-1.5-2.2c-0.3-1-0.5-2.1-0.5-3.4c0-1.1,0.1-2.1,0.4-3.1c0.3-1,0.7-1.9,1.2-2.5
						c0.9-1.2,2-1.8,3.3-1.8c0.9,0,1.7,0.3,2.2,0.9c0.2,0.2,0.3,0.5,0.4,0.8c0.1,0.3,0.1,0.5,0.1,0.8c0,0.5-0.2,0.8-0.5,1.1
						c-0.2,0.2-0.5,0.3-0.8,0.3c-0.3,0-0.5-0.1-0.7-0.3c-0.1-0.1-0.1-0.2-0.1-0.3c0-0.1,0-0.2,0-0.3c0-0.2,0.1-0.4,0.3-0.6
						c0.1-0.1,0.2-0.2,0.4-0.3c0.1-0.1,0.2-0.2,0.2-0.2c0-0.1,0.1-0.2,0.1-0.3c0-0.2-0.1-0.4-0.4-0.6c-0.3-0.2-0.7-0.3-1.2-0.3
						c-0.5,0-0.9,0.1-1.3,0.4c-0.4,0.3-0.8,0.7-1.1,1.4c-0.2,0.5-0.4,1.1-0.5,1.8c-0.1,0.7-0.2,1.3-0.2,1.8v0.9l0.1,0.1
						c0.2-0.5,0.6-0.9,1.1-1.2c0.5-0.3,1-0.5,1.4-0.5c0.9,0,1.6,0.2,2.2,0.6c0.5,0.4,0.9,0.9,1.2,1.5s0.4,1.3,0.4,2
						c0,0.7-0.2,1.4-0.5,2.1c-0.3,0.7-0.8,1.3-1.4,1.8c-0.6,0.5-1.3,0.7-2.1,0.7C15.3,26.1,14.6,25.8,14,25.3z M17.9,24.4
						c0.4-0.8,0.5-1.6,0.5-2.6c0-1-0.2-1.9-0.5-2.6c-0.3-0.7-0.8-1-1.6-1c-0.5,0-0.9,0.1-1.2,0.4c-0.4,0.3-0.6,0.7-0.9,1.3
						c-0.2,0.5-0.3,1.2-0.3,1.9c0,1.1,0.2,2,0.5,2.6c0.3,0.7,0.9,1,1.7,1C17,25.5,17.6,25.1,17.9,24.4z"/>
				</g>
			</g>
		</g>
		<g>
			<g>
				<g>
					<path class="st3" d="M150.3,208.4c0.6,0.5,1.1,1.3,1.5,2.2c0.3,1,0.5,2.1,0.5,3.4c0,1.1-0.1,2.1-0.4,3.1
						c-0.3,1-0.7,1.9-1.2,2.5c-0.9,1.2-2,1.8-3.3,1.8c-0.9,0-1.7-0.3-2.2-0.9c-0.2-0.2-0.3-0.5-0.4-0.8c-0.1-0.3-0.1-0.5-0.1-0.8
						c0-0.5,0.2-0.8,0.5-1.1c0.2-0.2,0.5-0.3,0.8-0.3c0.3,0,0.5,0.1,0.7,0.3c0.1,0.1,0.1,0.2,0.1,0.3c0,0.1,0,0.2,0,0.3
						c0,0.2-0.1,0.4-0.3,0.6c-0.1,0.1-0.2,0.2-0.4,0.3c-0.1,0.1-0.2,0.2-0.2,0.2c0,0.1-0.1,0.2-0.1,0.3c0,0.2,0.1,0.4,0.4,0.6
						c0.3,0.2,0.7,0.3,1.2,0.3c0.5,0,0.9-0.1,1.3-0.4c0.4-0.3,0.8-0.7,1.1-1.4c0.2-0.5,0.4-1.1,0.5-1.8c0.1-0.7,0.2-1.3,0.2-1.8
						v-0.9l-0.1-0.1c-0.2,0.5-0.6,0.9-1.1,1.2c-0.5,0.3-1,0.5-1.4,0.5c-0.9,0-1.6-0.2-2.2-0.6c-0.5-0.4-0.9-0.9-1.2-1.5
						c-0.3-0.6-0.4-1.3-0.4-2c0-0.7,0.2-1.4,0.5-2.1c0.3-0.7,0.8-1.3,1.4-1.8c0.6-0.5,1.3-0.7,2.1-0.7
						C148.9,207.7,149.6,207.9,150.3,208.4z M146.3,209.4c-0.4,0.8-0.5,1.6-0.5,2.6c0,1,0.2,1.9,0.5,2.6c0.3,0.7,0.8,1,1.6,1
						c0.5,0,0.9-0.1,1.2-0.4c0.4-0.3,0.6-0.7,0.9-1.3c0.2-0.5,0.3-1.2,0.3-1.9c0-1.1-0.2-2-0.5-2.6c-0.3-0.7-0.9-1-1.7-1
						C147.3,208.3,146.7,208.7,146.3,209.4z"/>
				</g>
			</g>
		</g>
		<g>
			<polygon class="st2" points="50,24 36.8,40.2 50,56.6 63.7,40.3 			"/>
		</g>
		<g>
			<polygon class="st2" points="50,173.6 36.8,189.7 50,206.1 63.7,189.9 			"/>
		</g>
		<g>
			<polygon class="st2" points="50,98.8 36.8,115 50,131.4 63.7,115.1 			"/>
		</g>
		<g>
			<polygon class="st2" points="114.7,24 101.4,40.2 114.7,56.6 128.3,40.3 			"/>
		</g>
		<g>
			<polygon class="st2" points="114.7,173.6 101.4,189.7 114.7,206.1 128.3,189.9 			"/>
		</g>
		<g>
			<polygon class="st2" points="114.7,98.8 101.4,115 114.7,131.4 128.3,115.1 			"/>
		</g>
	</g>
</g>
</svg>
