<?xml version="1.0" encoding="utf-8"?>
<!-- Generator: Adobe Illustrator 25.0.0, SVG Export Plug-In . SVG Version: 6.00 Build 0)  -->
<svg version="1.1" id="Ebene_1" xmlns="http://www.w3.org/2000/svg" xmlns:xlink="http://www.w3.org/1999/xlink" x="0px" y="0px"
	 viewBox="0 0 167 234" style="enable-background:new 0 0 167 234;" xml:space="preserve">
<style type="text/css">
	.st0{fill:#CC0601;}
	.st1{fill:#FFFFFF;}
	.st2{fill:#161616;}
	.st3{fill:#CD0902;}
</style>
<g>
	<g>
		<path class="st0" d="M150.8,207.3c-1.9,0-2.3-1.4-2.4-2.1c-0.1,0.7-0.5,2.2-2.4,2.1c-2.5-0.1-2.8-2.9-2-4.3
			c0.9-1.4,1.3-1.9,2.2-2.8c0.8-0.9,1.8-1.8,2.2-2.4c0,0,0-0.1,0-0.1c0,0,0,0.1,0,0.1c0.4,0.6,1.3,1.5,2.2,2.4
			c0.9,0.9,1.3,1.4,2.2,2.8C153.7,204.4,153.3,207.2,150.8,207.3z"/>
	</g>
	<g>
		<g>
			<path class="st1" d="M160.7,233.5H6.3c-3.3,0-5.9-2.7-5.9-5.9V6.5c0-3.3,2.7-5.9,5.9-5.9h154.5c3.3,0,5.9,2.7,5.9,5.9v221
				C166.7,230.8,164,233.5,160.7,233.5z"/>
			<path class="st2" d="M160.7,233.6H6.3c-3.3,0-6.1-2.7-6.1-6.1V6.5c0-3.3,2.7-6.1,6.1-6.1h154.5c3.3,0,6.1,2.7,6.1,6.1v221
				C166.8,230.8,164.1,233.6,160.7,233.6z M6.3,0.7C3,0.7,0.4,3.3,0.4,6.5v221c0,3.2,2.6,5.8,5.8,5.8h154.5c3.2,0,5.8-2.6,5.8-5.8
				V6.5c0-3.2-2.6-5.8-5.8-5.8H6.3z"/>
		</g>
	</g>
	<g>
		<path class="st1" d="M149.4,18.9c0,0.3-0.3,0.6-0.6,0.6s-0.6-0.3-0.6-0.6c0-0.3,0.3-0.6,0.6-0.6S149.4,18.6,149.4,18.9z"/>
	</g>
	<g>
		<path class="st1" d="M122.3,18.9c0,0.3-0.3,0.6-0.6,0.6s-0.6-0.3-0.6-0.6c0-0.3,0.3-0.6,0.6-0.6S122.3,18.6,122.3,18.9z"/>
	</g>
	<g>
		<path class="st1" d="M97.3,18.9c0,0.3-0.3,0.6-0.6,0.6c-0.3,0-0.6-0.3-0.6-0.6c0-0.3,0.3-0.6,0.6-0.6
			C97.1,18.3,97.3,18.6,97.3,18.9z"/>
	</g>
	<g>
		<path class="st1" d="M72.3,19.1c0,0.3-0.3,0.6-0.6,0.6c-0.3,0-0.6-0.3-0.6-0.6c0-0.3,0.3-0.6,0.6-0.6C72,18.5,72.3,18.8,72.3,19.1
			z"/>
	</g>
	<g>
		<path class="st1" d="M149.4,40.1c0,0.3-0.3,0.6-0.6,0.6s-0.6-0.3-0.6-0.6s0.3-0.6,0.6-0.6S149.4,39.7,149.4,40.1z"/>
	</g>
	<g>
		<path class="st1" d="M149.4,59.3c0,0.3-0.3,0.6-0.6,0.6s-0.6-0.3-0.6-0.6s0.3-0.6,0.6-0.6S149.4,59,149.4,59.3z"/>
	</g>
	<g>
		<path class="st1" d="M149.4,79.6c0,0.3-0.3,0.6-0.6,0.6s-0.6-0.3-0.6-0.6c0-0.3,0.3-0.6,0.6-0.6S149.4,79.3,149.4,79.6z"/>
	</g>
	<g>
		<path class="st1" d="M149.4,92.3c0,0.3-0.3,0.6-0.6,0.6s-0.6-0.3-0.6-0.6c0-0.3,0.3-0.6,0.6-0.6S149.4,92,149.4,92.3z"/>
	</g>
	<g>
		<path class="st1" d="M149.4,105.2c0,0.3-0.3,0.6-0.6,0.6s-0.6-0.3-0.6-0.6c0-0.3,0.3-0.6,0.6-0.6S149.4,104.9,149.4,105.2z"/>
	</g>
	<g>
		<path class="st1" d="M19.1,19.5c0,0.3-0.3,0.6-0.6,0.6c-0.3,0-0.6-0.3-0.6-0.6c0-0.3,0.3-0.6,0.6-0.6
			C18.9,18.9,19.1,19.2,19.1,19.5z"/>
	</g>
	<g>
		<path class="st1" d="M46.5,19.1c0,0.3-0.3,0.6-0.6,0.6s-0.6-0.3-0.6-0.6c0-0.3,0.3-0.6,0.6-0.6S46.5,18.8,46.5,19.1z"/>
	</g>
	<g>
		<path class="st1" d="M19.1,39.6c0,0.3-0.3,0.6-0.6,0.6c-0.3,0-0.6-0.3-0.6-0.6c0-0.3,0.3-0.6,0.6-0.6C18.9,39,19.1,39.3,19.1,39.6
			z"/>
	</g>
	<g>
		<path class="st1" d="M19.1,59.5c0,0.3-0.3,0.6-0.6,0.6c-0.3,0-0.6-0.3-0.6-0.6c0-0.3,0.3-0.6,0.6-0.6
			C18.9,58.9,19.1,59.2,19.1,59.5z"/>
	</g>
	<g>
		<path class="st1" d="M19.1,79.4c0,0.3-0.3,0.6-0.6,0.6c-0.3,0-0.6-0.3-0.6-0.6c0-0.3,0.3-0.6,0.6-0.6
			C18.9,78.9,19.1,79.1,19.1,79.4z"/>
	</g>
	<g>
		<path class="st1" d="M19.1,92.3c0,0.3-0.3,0.6-0.6,0.6c-0.3,0-0.6-0.3-0.6-0.6c0-0.3,0.3-0.6,0.6-0.6C18.9,91.8,19.1,92,19.1,92.3
			z"/>
	</g>
	<g>
		<path class="st1" d="M19.1,105.7c0,0.3-0.3,0.6-0.6,0.6c-0.3,0-0.6-0.3-0.6-0.6c0-0.3,0.3-0.6,0.6-0.6
			C18.9,105.2,19.1,105.4,19.1,105.7z"/>
	</g>
	<g>
		<path class="st1" d="M19.1,118.7c0,0.3-0.3,0.6-0.6,0.6c-0.3,0-0.6-0.3-0.6-0.6c0-0.3,0.3-0.6,0.6-0.6
			C18.9,118.1,19.1,118.4,19.1,118.7z"/>
	</g>
	<g>
		<path class="st1" d="M19.1,131.6c0,0.3-0.3,0.6-0.6,0.6c-0.3,0-0.6-0.3-0.6-0.6c0-0.3,0.3-0.6,0.6-0.6
			C18.9,131,19.1,131.3,19.1,131.6z"/>
	</g>
	<g>
		<path class="st1" d="M19.1,145c0,0.3-0.3,0.6-0.6,0.6c-0.3,0-0.6-0.3-0.6-0.6c0-0.3,0.3-0.6,0.6-0.6
			C18.9,144.4,19.1,144.7,19.1,145z"/>
	</g>
	<g>
		<path class="st1" d="M19.1,158.4c0,0.3-0.3,0.6-0.6,0.6c-0.3,0-0.6-0.3-0.6-0.6c0-0.3,0.3-0.6,0.6-0.6
			C18.9,157.9,19.1,158.1,19.1,158.4z"/>
	</g>
	<g>
		<path class="st1" d="M19.1,170.4c0,0.3-0.3,0.6-0.6,0.6c-0.3,0-0.6-0.3-0.6-0.6c0-0.3,0.3-0.6,0.6-0.6
			C18.9,169.9,19.1,170.1,19.1,170.4z"/>
	</g>
	<g>
		<path class="st1" d="M19.1,183.8c0,0.3-0.3,0.6-0.6,0.6c-0.3,0-0.6-0.3-0.6-0.6s0.3-0.6,0.6-0.6C18.9,183.3,19.1,183.5,19.1,183.8
			z"/>
	</g>
	<g>
		<path class="st1" d="M19.1,196.9c0,0.3-0.3,0.6-0.6,0.6c-0.3,0-0.6-0.3-0.6-0.6c0-0.3,0.3-0.6,0.6-0.6
			C18.9,196.3,19.1,196.6,19.1,196.9z"/>
	</g>
	<g>
		<path class="st1" d="M19.3,216.1c0,0.3-0.3,0.6-0.6,0.6c-0.3,0-0.6-0.3-0.6-0.6c0-0.3,0.3-0.6,0.6-0.6
			C19.1,215.5,19.3,215.7,19.3,216.1z"/>
	</g>
	<g>
		<path class="st1" d="M39.9,216.6c0,0.3-0.3,0.6-0.6,0.6c-0.3,0-0.6-0.3-0.6-0.6c0-0.3,0.3-0.6,0.6-0.6
			C39.6,216.1,39.9,216.3,39.9,216.6z"/>
	</g>
	<g>
		<path class="st1" d="M66.3,216.6c0,0.3-0.3,0.6-0.6,0.6s-0.6-0.3-0.6-0.6c0-0.3,0.3-0.6,0.6-0.6S66.3,216.3,66.3,216.6z"/>
	</g>
	<g>
		<path class="st1" d="M92.7,216.6c0,0.3-0.3,0.6-0.6,0.6s-0.6-0.3-0.6-0.6c0-0.3,0.3-0.6,0.6-0.6S92.7,216.3,92.7,216.6z"/>
	</g>
	<g>
		<path class="st1" d="M118.4,216.6c0,0.3-0.3,0.6-0.6,0.6c-0.3,0-0.6-0.3-0.6-0.6c0-0.3,0.3-0.6,0.6-0.6
			C118.2,216.1,118.4,216.3,118.4,216.6z"/>
	</g>
	<g>
		<path class="st1" d="M149.4,118.4c0,0.3-0.3,0.6-0.6,0.6s-0.6-0.3-0.6-0.6s0.3-0.6,0.6-0.6S149.4,118,149.4,118.4z"/>
	</g>
	<g>
		<path class="st1" d="M149.4,130.7c0,0.3-0.3,0.6-0.6,0.6s-0.6-0.3-0.6-0.6c0-0.3,0.3-0.6,0.6-0.6S149.4,130.4,149.4,130.7z"/>
	</g>
	<g>
		<path class="st1" d="M149.4,144c0,0.3-0.3,0.6-0.6,0.6s-0.6-0.3-0.6-0.6c0-0.3,0.3-0.6,0.6-0.6S149.4,143.7,149.4,144z"/>
	</g>
	<g>
		<path class="st1" d="M149.4,157.1c0,0.3-0.3,0.6-0.6,0.6s-0.6-0.3-0.6-0.6c0-0.3,0.3-0.6,0.6-0.6S149.4,156.8,149.4,157.1z"/>
	</g>
	<g>
		<path class="st1" d="M149.4,169.8c0,0.3-0.3,0.6-0.6,0.6s-0.6-0.3-0.6-0.6c0-0.3,0.3-0.6,0.6-0.6S149.4,169.5,149.4,169.8z"/>
	</g>
	<g>
		<path class="st1" d="M149.4,182.4c0,0.3-0.3,0.6-0.6,0.6s-0.6-0.3-0.6-0.6c0-0.3,0.3-0.6,0.6-0.6S149.4,182.1,149.4,182.4z"/>
	</g>
	<g>
		<path class="st1" d="M149.4,195.3c0,0.3-0.3,0.6-0.6,0.6s-0.6-0.3-0.6-0.6c0-0.3,0.3-0.6,0.6-0.6S149.4,194.9,149.4,195.3z"/>
	</g>
	<g>
		<path class="st1" d="M149.4,214.8c0,0.3-0.3,0.6-0.6,0.6s-0.6-0.3-0.6-0.6c0-0.3,0.3-0.6,0.6-0.6S149.4,214.5,149.4,214.8z"/>
	</g>
	<g>
		<g>
			<g>
				<g>
					<path class="st3" d="M13.6,29.2c-0.5-0.3-0.9-0.6-1.2-1c-0.3-0.4-0.4-0.9-0.4-1.4c0-0.6,0.2-1.1,0.5-1.4
						c0.3-0.3,0.7-0.5,1.1-0.5c0.3,0,0.6,0.1,0.8,0.3c0.2,0.2,0.3,0.5,0.3,0.8c0,0.2-0.1,0.4-0.2,0.6c-0.1,0.2-0.3,0.3-0.5,0.4
						c-0.2,0.1-0.3,0.2-0.4,0.3c-0.1,0.1-0.2,0.2-0.2,0.4c0,0.4,0.2,0.7,0.5,1c0.3,0.2,0.9,0.3,1.6,0.3c1,0,1.6-0.4,2.1-1.2
						c0.4-0.8,0.6-1.9,0.6-3.1c0-1.2-0.2-2.1-0.6-2.7c-0.4-0.6-1.1-1-2-1c-0.4,0-0.7,0.1-1,0.2c-0.3,0.1-0.6,0.3-0.8,0.6
						c-0.1,0.1-0.2,0.3-0.3,0.5c-0.1,0.2-0.1,0.4-0.1,0.6c0,0.1,0,0.3-0.1,0.3c-0.1,0.1-0.2,0.1-0.3,0.1c-0.2,0-0.3-0.2-0.3-0.5V16
						l0.4-0.3c0.3,0.2,0.7,0.4,1.2,0.6c0.5,0.2,1,0.2,1.5,0.2c0.6,0,1.2-0.1,1.7-0.2c0.5-0.1,1-0.3,1.6-0.6l0.2,0.3
						c-0.5,0.6-1,1.1-1.7,1.5c-0.7,0.4-1.4,0.6-2.2,0.6c-0.5,0-0.9,0-1.1-0.1c-0.3-0.1-0.6-0.2-0.8-0.3v3.7l0.1,0
						c0.3-0.4,0.7-0.6,1.1-0.8c0.4-0.2,0.9-0.3,1.4-0.3c1.4,0,2.4,0.4,3.2,1.2c0.8,0.8,1.1,1.9,1.1,3.2c0,0.9-0.2,1.8-0.6,2.6
						c-0.4,0.8-1,1.4-1.7,1.8c-0.7,0.4-1.5,0.6-2.4,0.6C14.8,29.6,14.1,29.4,13.6,29.2z"/>
				</g>
			</g>
		</g>
		<g>
			<g>
				<g>
					<path class="st3" d="M150.5,211.6c0.5,0.3,0.9,0.6,1.2,1c0.3,0.4,0.4,0.9,0.4,1.4c0,0.6-0.2,1.1-0.5,1.4
						c-0.3,0.3-0.7,0.5-1.1,0.5c-0.3,0-0.6-0.1-0.8-0.3c-0.2-0.2-0.3-0.5-0.3-0.8c0-0.2,0.1-0.4,0.2-0.6c0.1-0.2,0.3-0.3,0.5-0.4
						c0.2-0.1,0.3-0.2,0.4-0.3c0.1-0.1,0.2-0.2,0.2-0.4c0-0.4-0.2-0.7-0.5-1c-0.3-0.2-0.9-0.3-1.6-0.3c-1,0-1.6,0.4-2.1,1.2
						c-0.4,0.8-0.6,1.9-0.6,3.1c0,1.2,0.2,2.1,0.6,2.7c0.4,0.6,1.1,1,2,1c0.4,0,0.7-0.1,1-0.2c0.3-0.1,0.6-0.3,0.8-0.6
						c0.1-0.1,0.2-0.3,0.3-0.5c0.1-0.2,0.1-0.4,0.1-0.6c0-0.1,0-0.3,0.1-0.3c0.1-0.1,0.2-0.1,0.3-0.1c0.2,0,0.3,0.2,0.3,0.5v6.7
						l-0.4,0.3c-0.3-0.2-0.7-0.4-1.2-0.6c-0.5-0.2-1-0.2-1.5-0.2c-0.6,0-1.2,0.1-1.7,0.2c-0.5,0.1-1,0.3-1.6,0.6l-0.2-0.3
						c0.5-0.6,1-1.1,1.7-1.5c0.7-0.4,1.4-0.6,2.2-0.6c0.5,0,0.9,0,1.1,0.1c0.3,0.1,0.6,0.2,0.8,0.3v-3.7l-0.1,0
						c-0.3,0.4-0.7,0.6-1.1,0.8c-0.4,0.2-0.9,0.3-1.4,0.3c-1.4,0-2.4-0.4-3.2-1.2c-0.8-0.8-1.1-1.9-1.1-3.2c0-0.9,0.2-1.8,0.6-2.6
						c0.4-0.8,1-1.4,1.7-1.8c0.7-0.4,1.5-0.6,2.4-0.6C149.3,211.2,149.9,211.3,150.5,211.6z"/>
				</g>
			</g>
		</g>
		<g>
			<path class="st0" d="M19.6,35.1c-1.9,0-2.3,1.4-2.4,2.1c-0.1-0.7-0.5-2.2-2.4-2.1c-2.5,0.1-2.8,2.9-2,4.3
				c0.9,1.4,1.3,1.9,2.2,2.8c0.8,0.9,1.8,1.8,2.2,2.4c0,0,0,0.1,0,0c0,0,0,0,0,0c0.4-0.6,1.3-1.5,2.2-2.4c0.9-0.9,1.3-1.4,2.2-2.8
				C22.4,38,22.1,35.2,19.6,35.1z"/>
		</g>
		<g>
			<path class="st0" d="M62.5,30.9c-5.5-0.1-6.7,4.1-7,6.1c-0.3-2-1.6-6.2-7-6.1c-7.2,0.2-8.2,8.3-5.6,12.3c2.5,4.1,3.8,5.4,6.3,8
				c2.4,2.5,5.2,5.2,6.3,6.9c0,0,0.1,0.2,0.1,0.1c0,0.1,0.1-0.1,0.1-0.1c1-1.7,3.9-4.5,6.3-6.9c2.5-2.6,3.8-3.9,6.3-8
				S69.7,31.1,62.5,30.9z"/>
		</g>
		<g>
			<path class="st0" d="M62.5,205.3c-5.5,0.1-6.7-4.1-7-6.1c-0.3,2-1.6,6.2-7,6.1c-7.2-0.2-8.2-8.3-5.6-12.3c2.5-4.1,3.8-5.4,6.3-8
				c2.4-2.5,5.2-5.2,6.3-6.9c0,0,0.1-0.2,0.1-0.1c0-0.1,0.1,0.1,0.1,0.1c1,1.7,3.9,4.5,6.3,6.9c2.5,2.6,3.8,3.9,6.3,8
				C70.7,197,69.7,205.1,62.5,205.3z"/>
		</g>
		<g>
			<path class="st0" d="M115.2,30.9c-5.5-0.1-6.7,4.1-7,6.1c-0.3-2-1.6-6.2-7-6.1c-7.2,0.2-8.2,8.3-5.6,12.3s3.8,5.4,6.3,8
				c2.4,2.5,5.2,5.2,6.3,6.9c0,0,0.1,0.2,0.1,0.1c0,0.1,0.1-0.1,0.1-0.1c1-1.7,3.9-4.5,6.3-6.9c2.5-2.6,3.8-3.9,6.3-8
				S122.4,31.1,115.2,30.9z"/>
		</g>
		<g>
			<path class="st0" d="M115.2,205.3c-5.5,0.1-6.7-4.1-7-6.1c-0.3,2-1.6,6.2-7,6.1c-7.2-0.2-8.2-8.3-5.6-12.3c2.5-4.1,3.8-5.4,6.3-8
				c2.4-2.5,5.2-5.2,6.3-6.9c0,0,0.1-0.2,0.1-0.1c0-0.1,0.1,0.1,0.1,0.1c1,1.7,3.9,4.5,6.3,6.9c2.5,2.6,3.8,3.9,6.3,8
				C123.4,197,122.4,205.1,115.2,205.3z"/>
		</g>
		<g>
			<path class="st0" d="M88.4,103c-5.5-0.1-6.7,4.1-7,6.1c-0.3-2-1.6-6.2-7-6.1c-7.2,0.2-8.2,8.3-5.6,12.3s3.8,5.4,6.3,8
				c2.4,2.5,5.2,5.2,6.3,6.9c0,0,0.1,0.2,0.1,0.1c0,0.1,0.1-0.1,0.1-0.1c1-1.7,3.9-4.5,6.3-6.9c2.5-2.6,3.8-3.9,6.3-8
				S95.6,103.2,88.4,103z"/>
		</g>
	</g>
</g>
</svg>
