<?xml version="1.0" encoding="utf-8"?>
<!-- Generator: Adobe Illustrator 25.0.0, SVG Export Plug-In . SVG Version: 6.00 Build 0)  -->
<svg version="1.1" id="Ebene_1" xmlns="http://www.w3.org/2000/svg" xmlns:xlink="http://www.w3.org/1999/xlink" x="0px" y="0px"
	 viewBox="0 0 167 234" style="enable-background:new 0 0 167 234;" xml:space="preserve">
<style type="text/css">
	.st0{fill:#FFFFFF;}
	.st1{fill:#161616;}
	.st2{fill:#CD0902;}
	.st3{fill:#CC0601;}
</style>
<g>
	<g>
		<g>
			<path class="st0" d="M160.7,233.4H6.3c-3.3,0-5.9-2.7-5.9-5.9V6.5c0-3.3,2.7-5.9,5.9-5.9h154.4c3.3,0,5.9,2.7,5.9,5.9v221
				C166.6,230.8,164,233.4,160.7,233.4z"/>
			<path class="st1" d="M160.7,233.5H6.3c-3.3,0-6.1-2.7-6.1-6.1V6.5c0-3.3,2.7-6.1,6.1-6.1h154.4c3.3,0,6.1,2.7,6.1,6.1v221
				C166.7,230.8,164,233.5,160.7,233.5z M6.3,0.7c-3.2,0-5.8,2.6-5.8,5.8v221c0,3.2,2.6,5.8,5.8,5.8h154.4c3.2,0,5.8-2.6,5.8-5.8
				V6.5c0-3.2-2.6-5.8-5.8-5.8H6.3z"/>
		</g>
	</g>
	<g>
		<g>
			<g>
				<g>
					<path class="st2" d="M14.2,23.9c-0.2-0.2-0.3-0.5-0.4-0.8c-0.1-0.3-0.1-0.5-0.1-0.8c0-0.5,0.2-0.8,0.5-1.1
						c0.2-0.2,0.5-0.3,0.8-0.3s0.5,0.1,0.7,0.3c0.1,0.1,0.1,0.2,0.1,0.3c0,0.1,0,0.2,0,0.3c0,0.2-0.1,0.4-0.3,0.6
						c-0.1,0.1-0.2,0.2-0.4,0.3C15.1,22.9,15,23,15,23.1c0,0.1-0.1,0.2-0.1,0.3c0,0.2,0.1,0.4,0.4,0.6c0.3,0.2,0.7,0.3,1.2,0.3
						c0.5,0,0.9-0.1,1.3-0.4c0.4-0.3,0.8-0.7,1.1-1.4c0.2-0.5,0.4-1.1,0.5-1.8c0.1-0.7,0.2-1.3,0.2-1.8V18l-0.1-0.1
						c-0.2,0.5-0.6,0.9-1.1,1.2c-0.5,0.3-1,0.5-1.4,0.5c-0.9,0-1.6-0.2-2.2-0.6c-0.5-0.4-0.9-0.9-1.2-1.5c-0.3-0.6-0.4-1.3-0.4-2
						c0-0.7,0.2-1.4,0.5-2.1c0.3-0.7,0.8-1.3,1.4-1.8c0.6-0.5,1.3-0.7,2.1-0.7c0.8,0,1.6,0.3,2.2,0.8c0.6,0.5,1.1,1.3,1.5,2.2
						c0.3,1,0.5,2.1,0.5,3.4c0,1.1-0.1,2.1-0.4,3.1c-0.3,1-0.7,1.9-1.2,2.5c-0.9,1.2-2.1,1.8-3.3,1.8C15.6,24.8,14.8,24.5,14.2,23.9
						z M18.1,18.4c0.4-0.3,0.6-0.7,0.9-1.3c0.2-0.5,0.3-1.2,0.3-1.9c0-1.1-0.2-2-0.5-2.6c-0.3-0.7-0.9-1-1.7-1
						c-0.8,0-1.4,0.4-1.7,1.1c-0.4,0.8-0.5,1.6-0.5,2.6c0,1,0.2,1.9,0.5,2.6c0.3,0.7,0.8,1,1.6,1C17.4,18.9,17.8,18.7,18.1,18.4z"/>
				</g>
			</g>
		</g>
		<g>
			<g>
				<g>
					<path class="st3" d="M152.5,207.4c0.2,0.2,0.3,0.5,0.4,0.8c0.1,0.3,0.1,0.5,0.1,0.8c0,0.5-0.2,0.8-0.5,1.1
						c-0.2,0.2-0.5,0.3-0.8,0.3c-0.3,0-0.5-0.1-0.7-0.4c-0.1-0.1-0.1-0.2-0.1-0.3c0-0.1,0-0.2,0-0.3c0-0.2,0.1-0.4,0.3-0.6
						c0.1-0.1,0.2-0.2,0.4-0.3c0.1-0.1,0.2-0.2,0.2-0.2c0-0.1,0.1-0.2,0.1-0.3c0-0.2-0.1-0.4-0.4-0.6c-0.3-0.2-0.7-0.3-1.2-0.3
						c-0.5,0-0.9,0.1-1.3,0.4c-0.4,0.3-0.8,0.7-1.1,1.4c-0.2,0.5-0.4,1.1-0.5,1.8c-0.1,0.7-0.2,1.3-0.2,1.8v0.9l0.1,0.1
						c0.2-0.5,0.6-0.9,1.1-1.2c0.5-0.3,1-0.5,1.4-0.5c0.9,0,1.6,0.2,2.2,0.6c0.5,0.4,0.9,0.8,1.2,1.5c0.3,0.6,0.4,1.3,0.4,2
						c0,0.7-0.2,1.4-0.5,2.1c-0.3,0.7-0.8,1.3-1.4,1.8c-0.6,0.5-1.3,0.7-2.1,0.7c-0.8,0-1.6-0.3-2.2-0.8c-0.6-0.5-1.1-1.3-1.5-2.2
						c-0.3-1-0.5-2.1-0.5-3.4c0-1.1,0.1-2.1,0.4-3.1c0.3-1,0.7-1.9,1.2-2.5c0.9-1.2,2.1-1.8,3.3-1.8
						C151.2,206.4,152,206.7,152.5,207.4z M148.6,212.9c-0.4,0.3-0.6,0.7-0.9,1.3c-0.2,0.5-0.3,1.2-0.3,1.9c0,1.1,0.2,2,0.5,2.6
						c0.3,0.7,0.9,1,1.7,1c0.8,0,1.4-0.4,1.7-1.1c0.4-0.8,0.5-1.6,0.5-2.6c0-1-0.2-1.9-0.5-2.6c-0.3-0.7-0.8-1-1.6-1
						C149.4,212.4,149,212.6,148.6,212.9z"/>
				</g>
			</g>
		</g>
		<g>
			<path class="st3" d="M152.1,202.2c-1.9,0-2.3-1.4-2.4-2.1c-0.1,0.7-0.5,2.2-2.4,2.1c-2.5-0.1-2.8-2.9-2-4.3
				c0.9-1.4,1.3-1.9,2.2-2.8c0.8-0.9,1.8-1.8,2.2-2.4c0,0,0-0.1,0-0.1c0,0,0,0.1,0,0.1c0.4,0.6,1.3,1.5,2.2,2.4
				c0.9,0.9,1.3,1.4,2.2,2.8C154.9,199.4,154.6,202.2,152.1,202.2z"/>
		</g>
		<g>
			<path class="st3" d="M19.8,29.8c-1.9,0-2.3,1.4-2.4,2.1c-0.1-0.7-0.5-2.2-2.4-2.1c-2.5,0.1-2.8,2.9-2,4.3
				c0.9,1.4,1.3,1.9,2.2,2.8c0.8,0.9,1.8,1.8,2.2,2.4c0,0,0,0.1,0,0c0,0,0,0,0,0c0.4-0.6,1.3-1.5,2.2-2.4c0.9-0.9,1.3-1.4,2.2-2.8
				C22.6,32.6,22.3,29.8,19.8,29.8z"/>
		</g>
		<g>
			<path class="st3" d="M52,27.6c-5.5-0.1-6.7,4.1-7,6.1c-0.3-2-1.6-6.2-7-6.1c-7.2,0.2-8.2,8.2-5.6,12.3c2.5,4.1,3.8,5.4,6.3,8
				c2.4,2.5,5.2,5.2,6.2,6.9c0,0,0.1,0.2,0.1,0.1c0,0.1,0.1-0.1,0.1-0.1c1-1.7,3.9-4.5,6.2-6.9c2.5-2.6,3.8-3.9,6.3-8
				C60.2,35.9,59.2,27.8,52,27.6z"/>
		</g>
		<g>
			<path class="st3" d="M87.1,103.4c-5.5-0.1-6.7,4.1-7,6.1c-0.3-2-1.6-6.2-7-6.1c-7.2,0.2-8.2,8.2-5.6,12.3c2.5,4.1,3.8,5.4,6.3,8
				c2.4,2.5,5.2,5.2,6.2,6.9c0,0,0.1,0.2,0.1,0.1c0,0.1,0.1-0.1,0.1-0.1c1-1.7,3.9-4.5,6.2-6.9c2.5-2.6,3.8-3.9,6.3-8
				C95.2,111.7,94.3,103.6,87.1,103.4z"/>
		</g>
		<g>
			<path class="st3" d="M52,78.2c-5.5-0.1-6.7,4.1-7,6.1c-0.3-2-1.6-6.2-7-6.1c-7.2,0.2-8.2,8.2-5.6,12.3c2.5,4.1,3.8,5.4,6.3,8
				c2.4,2.5,5.2,5.2,6.2,6.9c0,0,0.1,0.2,0.1,0.1c0,0.1,0.1-0.1,0.1-0.1c1-1.7,3.9-4.5,6.2-6.9c2.5-2.6,3.8-3.9,6.3-8
				C60.2,86.4,59.2,78.3,52,78.2z"/>
		</g>
		<g>
			<path class="st3" d="M52,206.6c-5.5,0.1-6.7-4.1-7-6.1c-0.3,2-1.6,6.2-7,6.1c-7.2-0.2-8.2-8.2-5.6-12.3c2.5-4.1,3.8-5.4,6.3-8
				c2.4-2.5,5.2-5.2,6.2-6.9c0,0,0.1-0.2,0.1-0.1c0-0.1,0.1,0.1,0.1,0.1c1,1.7,3.9,4.5,6.2,6.9c2.5,2.6,3.8,3.9,6.3,8
				C60.2,198.3,59.2,206.4,52,206.6z"/>
		</g>
		<g>
			<path class="st3" d="M52,156.1c-5.5,0.1-6.7-4.1-7-6.1c-0.3,2-1.6,6.2-7,6.1c-7.2-0.2-8.2-8.2-5.6-12.3c2.5-4.1,3.8-5.4,6.3-8
				c2.4-2.5,5.2-5.2,6.2-6.9c0,0,0.1-0.2,0.1-0.1c0-0.1,0.1,0.1,0.1,0.1c1,1.7,3.9,4.5,6.2,6.9c2.5,2.6,3.8,3.9,6.3,8
				C60.2,147.8,59.2,155.9,52,156.1z"/>
		</g>
		<g>
			<path class="st3" d="M125.9,27.6c-5.5-0.1-6.7,4.1-7,6.1c-0.3-2-1.6-6.2-7-6.1c-7.2,0.2-8.2,8.2-5.6,12.3c2.5,4.1,3.8,5.4,6.3,8
				c2.4,2.5,5.2,5.2,6.2,6.9c0,0,0.1,0.2,0.1,0.1c0,0.1,0.1-0.1,0.1-0.1c1-1.7,3.9-4.5,6.2-6.9c2.5-2.6,3.8-3.9,6.3-8
				C134.1,35.9,133.1,27.8,125.9,27.6z"/>
		</g>
		<g>
			<path class="st3" d="M125.9,78.2c-5.5-0.1-6.7,4.1-7,6.1c-0.3-2-1.6-6.2-7-6.1c-7.2,0.2-8.2,8.2-5.6,12.3c2.5,4.1,3.8,5.4,6.3,8
				c2.4,2.5,5.2,5.2,6.2,6.9c0,0,0.1,0.2,0.1,0.1c0,0.1,0.1-0.1,0.1-0.1c1-1.7,3.9-4.5,6.2-6.9c2.5-2.6,3.8-3.9,6.3-8
				C134.1,86.4,133.1,78.3,125.9,78.2z"/>
		</g>
		<g>
			<path class="st3" d="M125.9,206.6c-5.5,0.1-6.7-4.1-7-6.1c-0.3,2-1.6,6.2-7,6.1c-7.2-0.2-8.2-8.2-5.6-12.3c2.5-4.1,3.8-5.4,6.3-8
				c2.4-2.5,5.2-5.2,6.2-6.9c0,0,0.1-0.2,0.1-0.1c0-0.1,0.1,0.1,0.1,0.1c1,1.7,3.9,4.5,6.2,6.9c2.5,2.6,3.8,3.9,6.3,8
				C134.1,198.3,133.1,206.4,125.9,206.6z"/>
		</g>
		<g>
			<path class="st3" d="M125.9,156.1c-5.5,0.1-6.7-4.1-7-6.1c-0.3,2-1.6,6.2-7,6.1c-7.2-0.2-8.2-8.2-5.6-12.3c2.5-4.1,3.8-5.4,6.3-8
				c2.4-2.5,5.2-5.2,6.2-6.9c0,0,0.1-0.2,0.1-0.1c0-0.1,0.1,0.1,0.1,0.1c1,1.7,3.9,4.5,6.2,6.9c2.5,2.6,3.8,3.9,6.3,8
				C134.1,147.8,133.1,155.9,125.9,156.1z"/>
		</g>
	</g>
	<g>
		<path class="st0" d="M149,18.9c0,0.3-0.3,0.6-0.6,0.6c-0.3,0-0.6-0.3-0.6-0.6s0.3-0.6,0.6-0.6C148.8,18.4,149,18.6,149,18.9z"/>
	</g>
	<g>
		<circle class="st0" cx="121.3" cy="18.9" r="0.6"/>
	</g>
	<g>
		<path class="st0" d="M97,18.9c0,0.3-0.3,0.6-0.6,0.6c-0.3,0-0.6-0.3-0.6-0.6s0.3-0.6,0.6-0.6C96.7,18.4,97,18.6,97,18.9z"/>
	</g>
	<g>
		<circle class="st0" cx="71.4" cy="19.1" r="0.6"/>
	</g>
	<g>
		<path class="st0" d="M149,40.1c0,0.3-0.3,0.6-0.6,0.6c-0.3,0-0.6-0.3-0.6-0.6c0-0.3,0.3-0.6,0.6-0.6C148.8,39.5,149,39.8,149,40.1
			z"/>
	</g>
	<g>
		<path class="st0" d="M149,59.4c0,0.3-0.3,0.6-0.6,0.6c-0.3,0-0.6-0.3-0.6-0.6c0-0.3,0.3-0.6,0.6-0.6C148.8,58.8,149,59.1,149,59.4
			z"/>
	</g>
	<g>
		<path class="st0" d="M149,79.6c0,0.3-0.3,0.6-0.6,0.6c-0.3,0-0.6-0.3-0.6-0.6s0.3-0.6,0.6-0.6C148.8,79,149,79.3,149,79.6z"/>
	</g>
	<g>
		<path class="st0" d="M149,92.4c0,0.3-0.3,0.6-0.6,0.6c-0.3,0-0.6-0.3-0.6-0.6c0-0.3,0.3-0.6,0.6-0.6C148.8,91.8,149,92,149,92.4z"
			/>
	</g>
	<g>
		<path class="st0" d="M149,105.2c0,0.3-0.3,0.6-0.6,0.6c-0.3,0-0.6-0.3-0.6-0.6c0-0.3,0.3-0.6,0.6-0.6
			C148.8,104.6,149,104.9,149,105.2z"/>
	</g>
	<g>
		<circle class="st0" cx="18.2" cy="19.5" r="0.6"/>
	</g>
	<g>
		<circle class="st0" cx="45.6" cy="19.1" r="0.6"/>
	</g>
	<g>
		<path class="st0" d="M18.8,39.6c0,0.3-0.3,0.6-0.6,0.6c-0.3,0-0.6-0.3-0.6-0.6c0-0.3,0.3-0.6,0.6-0.6
			C18.5,39.1,18.8,39.3,18.8,39.6z"/>
	</g>
	<g>
		<circle class="st0" cx="18.2" cy="59.5" r="0.6"/>
	</g>
	<g>
		<circle class="st0" cx="18.2" cy="79.4" r="0.6"/>
	</g>
	<g>
		<circle class="st0" cx="18.2" cy="92.4" r="0.6"/>
	</g>
	<g>
		<circle class="st0" cx="18.2" cy="105.8" r="0.6"/>
	</g>
	<g>
		<circle class="st0" cx="18.2" cy="118.7" r="0.6"/>
	</g>
	<g>
		<circle class="st0" cx="18.2" cy="131.6" r="0.6"/>
	</g>
	<g>
		<circle class="st0" cx="18.2" cy="145" r="0.6"/>
	</g>
	<g>
		<circle class="st0" cx="18.2" cy="158.4" r="0.6"/>
	</g>
	<g>
		<circle class="st0" cx="18.2" cy="170.4" r="0.6"/>
	</g>
	<g>
		<circle class="st0" cx="18.2" cy="183.8" r="0.6"/>
	</g>
	<g>
		<circle class="st0" cx="18.2" cy="196.9" r="0.6"/>
	</g>
	<g>
		<circle class="st0" cx="18.5" cy="216" r="0.6"/>
	</g>
	<g>
		<circle class="st0" cx="39" cy="216.6" r="0.6"/>
	</g>
	<g>
		<circle class="st0" cx="65.4" cy="216.6" r="0.6"/>
	</g>
	<g>
		<circle class="st0" cx="91.8" cy="216.6" r="0.6"/>
	</g>
	<g>
		<circle class="st0" cx="117.5" cy="216.6" r="0.6"/>
	</g>
	<g>
		<path class="st0" d="M149,118.4c0,0.3-0.3,0.6-0.6,0.6c-0.3,0-0.6-0.3-0.6-0.6c0-0.3,0.3-0.6,0.6-0.6
			C148.8,117.8,149,118,149,118.4z"/>
	</g>
	<g>
		<path class="st0" d="M149,130.7c0,0.3-0.3,0.6-0.6,0.6c-0.3,0-0.6-0.3-0.6-0.6s0.3-0.6,0.6-0.6C148.8,130.1,149,130.4,149,130.7z"
			/>
	</g>
	<g>
		<path class="st0" d="M149,144c0,0.3-0.3,0.6-0.6,0.6c-0.3,0-0.6-0.3-0.6-0.6s0.3-0.6,0.6-0.6C148.8,143.4,149,143.7,149,144z"/>
	</g>
	<g>
		<path class="st0" d="M149,157.1c0,0.3-0.3,0.6-0.6,0.6c-0.3,0-0.6-0.3-0.6-0.6s0.3-0.6,0.6-0.6C148.8,156.5,149,156.8,149,157.1z"
			/>
	</g>
	<g>
		<path class="st0" d="M149,169.8c0,0.3-0.3,0.6-0.6,0.6c-0.3,0-0.6-0.3-0.6-0.6c0-0.3,0.3-0.6,0.6-0.6
			C148.8,169.3,149,169.5,149,169.8z"/>
	</g>
	<g>
		<path class="st0" d="M149,182.4c0,0.3-0.3,0.6-0.6,0.6c-0.3,0-0.6-0.3-0.6-0.6s0.3-0.6,0.6-0.6C148.8,181.8,149,182.1,149,182.4z"
			/>
	</g>
	<g>
		<path class="st0" d="M149,195.2c0,0.3-0.3,0.6-0.6,0.6c-0.3,0-0.6-0.3-0.6-0.6c0-0.3,0.3-0.6,0.6-0.6
			C148.8,194.7,149,194.9,149,195.2z"/>
	</g>
	<g>
		<path class="st0" d="M149,214.8c0,0.3-0.3,0.6-0.6,0.6c-0.3,0-0.6-0.3-0.6-0.6c0-0.3,0.3-0.6,0.6-0.6
			C148.8,214.2,149,214.5,149,214.8z"/>
	</g>
</g>
</svg>
