<?xml version="1.0" encoding="utf-8"?>
<!-- Generator: Adobe Illustrator 25.0.0, SVG Export Plug-In . SVG Version: 6.00 Build 0)  -->
<svg version="1.1" id="Ebene_1" xmlns="http://www.w3.org/2000/svg" xmlns:xlink="http://www.w3.org/1999/xlink" x="0px" y="0px"
	 viewBox="0 0 167 234" style="enable-background:new 0 0 167 234;" xml:space="preserve">
<style type="text/css">
	.st0{fill:#FFFFFF;}
	.st1{fill:#161616;}
	.st2{fill:#CC0601;}
	.st3{fill:#CD0902;}
</style>
<g>
	<g>
		<g>
			<path class="st0" d="M160.74,233.45H6.26c-3.28,0-5.94-2.66-5.94-5.94V6.49c0-3.28,2.66-5.94,5.94-5.94h154.48
				c3.28,0,5.94,2.66,5.94,5.94v221.02C166.68,230.79,164.02,233.45,160.74,233.45z"/>
			<path class="st1" d="M160.74,233.57H6.26c-3.34,0-6.06-2.72-6.06-6.06V6.49c0-3.34,2.72-6.06,6.06-6.06h154.48
				c3.34,0,6.06,2.72,6.06,6.06v221.02C166.79,230.85,164.08,233.57,160.74,233.57z M6.26,0.67c-3.21,0-5.82,2.61-5.82,5.82v221.02
				c0,3.21,2.61,5.82,5.82,5.82h154.48c3.21,0,5.82-2.61,5.82-5.82V6.49c0-3.21-2.61-5.82-5.82-5.82H6.26z"/>
		</g>
	</g>
	<g>
		<path class="st0" d="M149.4,18.92c0,0.31-0.25,0.57-0.57,0.57c-0.31,0-0.57-0.25-0.57-0.57c0-0.31,0.25-0.57,0.57-0.57
			C149.15,18.35,149.4,18.6,149.4,18.92z"/>
	</g>
	<g>
		<path class="st0" d="M122.27,18.92c0,0.31-0.25,0.57-0.57,0.57c-0.31,0-0.57-0.25-0.57-0.57c0-0.31,0.25-0.57,0.57-0.57
			C122.02,18.35,122.27,18.6,122.27,18.92z"/>
	</g>
	<g>
		<path class="st0" d="M97.32,18.92c0,0.31-0.25,0.57-0.57,0.57c-0.31,0-0.57-0.25-0.57-0.57c0-0.31,0.25-0.57,0.57-0.57
			C97.06,18.35,97.32,18.6,97.32,18.92z"/>
	</g>
	<g>
		<path class="st0" d="M72.27,19.1c0,0.31-0.25,0.57-0.57,0.57s-0.57-0.25-0.57-0.57c0-0.31,0.25-0.57,0.57-0.57
			S72.27,18.78,72.27,19.1z"/>
	</g>
	<g>
		<path class="st0" d="M149.4,40.06c0,0.31-0.25,0.57-0.57,0.57c-0.31,0-0.57-0.25-0.57-0.57s0.25-0.57,0.57-0.57
			C149.15,39.49,149.4,39.74,149.4,40.06z"/>
	</g>
	<g>
		<path class="st0" d="M149.4,59.35c0,0.31-0.25,0.57-0.57,0.57c-0.31,0-0.57-0.25-0.57-0.57s0.25-0.57,0.57-0.57
			C149.15,58.78,149.4,59.04,149.4,59.35z"/>
	</g>
	<g>
		<path class="st0" d="M149.4,79.57c0,0.31-0.25,0.57-0.57,0.57c-0.31,0-0.57-0.25-0.57-0.57c0-0.31,0.25-0.57,0.57-0.57
			C149.15,79,149.4,79.25,149.4,79.57z"/>
	</g>
	<g>
		<path class="st0" d="M149.4,92.35c0,0.31-0.25,0.57-0.57,0.57c-0.31,0-0.57-0.25-0.57-0.57c0-0.31,0.25-0.57,0.57-0.57
			C149.15,91.78,149.4,92.04,149.4,92.35z"/>
	</g>
	<g>
		<path class="st0" d="M149.4,105.18c0,0.31-0.25,0.57-0.57,0.57c-0.31,0-0.57-0.25-0.57-0.57c0-0.31,0.25-0.57,0.57-0.57
			C149.15,104.61,149.4,104.86,149.4,105.18z"/>
	</g>
	<g>
		<path class="st0" d="M19.11,19.48c0,0.31-0.25,0.57-0.57,0.57c-0.31,0-0.57-0.25-0.57-0.57c0-0.31,0.25-0.57,0.57-0.57
			C18.85,18.92,19.11,19.17,19.11,19.48z"/>
	</g>
	<g>
		<path class="st0" d="M46.55,19.1c0,0.31-0.25,0.57-0.57,0.57c-0.31,0-0.57-0.25-0.57-0.57c0-0.31,0.25-0.57,0.57-0.57
			C46.29,18.53,46.55,18.78,46.55,19.1z"/>
	</g>
	<g>
		<path class="st0" d="M19.11,39.61c0,0.31-0.25,0.57-0.57,0.57c-0.31,0-0.57-0.25-0.57-0.57c0-0.31,0.25-0.57,0.57-0.57
			C18.85,39.04,19.11,39.29,19.11,39.61z"/>
	</g>
	<g>
		<path class="st0" d="M19.11,59.48c0,0.31-0.25,0.57-0.57,0.57c-0.31,0-0.57-0.25-0.57-0.57c0-0.31,0.25-0.57,0.57-0.57
			C18.85,58.91,19.11,59.17,19.11,59.48z"/>
	</g>
	<g>
		<path class="st0" d="M19.11,79.43c0,0.31-0.25,0.57-0.57,0.57c-0.31,0-0.57-0.25-0.57-0.57c0-0.31,0.25-0.57,0.57-0.57
			C18.85,78.86,19.11,79.11,19.11,79.43z"/>
	</g>
	<g>
		<path class="st0" d="M19.11,92.35c0,0.31-0.25,0.57-0.57,0.57c-0.31,0-0.57-0.25-0.57-0.57c0-0.31,0.25-0.57,0.57-0.57
			C18.85,91.78,19.11,92.04,19.11,92.35z"/>
	</g>
	<g>
		<path class="st0" d="M19.11,105.75c0,0.31-0.25,0.57-0.57,0.57c-0.31,0-0.57-0.25-0.57-0.57c0-0.31,0.25-0.57,0.57-0.57
			C18.85,105.18,19.11,105.43,19.11,105.75z"/>
	</g>
	<g>
		<path class="st0" d="M19.11,118.68c0,0.31-0.25,0.57-0.57,0.57c-0.31,0-0.57-0.25-0.57-0.57c0-0.31,0.25-0.57,0.57-0.57
			C18.85,118.11,19.11,118.36,19.11,118.68z"/>
	</g>
	<g>
		<path class="st0" d="M19.11,131.6c0,0.31-0.25,0.57-0.57,0.57c-0.31,0-0.57-0.25-0.57-0.57c0-0.31,0.25-0.57,0.57-0.57
			C18.85,131.03,19.11,131.29,19.11,131.6z"/>
	</g>
	<g>
		<path class="st0" d="M19.11,145c0,0.31-0.25,0.57-0.57,0.57c-0.31,0-0.57-0.25-0.57-0.57c0-0.31,0.25-0.57,0.57-0.57
			C18.85,144.43,19.11,144.69,19.11,145z"/>
	</g>
	<g>
		<path class="st0" d="M19.11,158.43c0,0.31-0.25,0.57-0.57,0.57c-0.31,0-0.57-0.25-0.57-0.57c0-0.31,0.25-0.57,0.57-0.57
			C18.85,157.86,19.11,158.12,19.11,158.43z"/>
	</g>
	<g>
		<path class="st0" d="M19.11,170.43c0,0.31-0.25,0.57-0.57,0.57c-0.31,0-0.57-0.25-0.57-0.57c0-0.31,0.25-0.57,0.57-0.57
			C18.85,169.86,19.11,170.12,19.11,170.43z"/>
	</g>
	<g>
		<path class="st0" d="M19.11,183.83c0,0.31-0.25,0.57-0.57,0.57c-0.31,0-0.57-0.25-0.57-0.57s0.25-0.57,0.57-0.57
			C18.85,183.26,19.11,183.51,19.11,183.83z"/>
	</g>
	<g>
		<path class="st0" d="M19.11,196.88c0,0.31-0.25,0.57-0.57,0.57c-0.31,0-0.57-0.25-0.57-0.57c0-0.31,0.25-0.57,0.57-0.57
			C18.85,196.31,19.11,196.56,19.11,196.88z"/>
	</g>
	<g>
		<path class="st0" d="M19.34,216.06c0,0.31-0.25,0.57-0.57,0.57s-0.57-0.25-0.57-0.57c0-0.31,0.25-0.57,0.57-0.57
			S19.34,215.75,19.34,216.06z"/>
	</g>
	<g>
		<path class="st0" d="M39.86,216.63c0,0.31-0.25,0.57-0.57,0.57c-0.31,0-0.57-0.25-0.57-0.57c0-0.31,0.25-0.57,0.57-0.57
			C39.61,216.06,39.86,216.32,39.86,216.63z"/>
	</g>
	<g>
		<path class="st0" d="M66.31,216.63c0,0.31-0.25,0.57-0.57,0.57s-0.57-0.25-0.57-0.57c0-0.31,0.25-0.57,0.57-0.57
			S66.31,216.32,66.31,216.63z"/>
	</g>
	<g>
		<path class="st0" d="M92.72,216.63c0,0.31-0.25,0.57-0.57,0.57c-0.31,0-0.57-0.25-0.57-0.57c0-0.31,0.25-0.57,0.57-0.57
			C92.46,216.06,92.72,216.32,92.72,216.63z"/>
	</g>
	<g>
		<path class="st0" d="M118.44,216.63c0,0.31-0.25,0.57-0.57,0.57c-0.31,0-0.57-0.25-0.57-0.57c0-0.31,0.25-0.57,0.57-0.57
			C118.19,216.06,118.44,216.32,118.44,216.63z"/>
	</g>
	<g>
		<path class="st0" d="M149.4,118.36c0,0.31-0.25,0.57-0.57,0.57c-0.31,0-0.57-0.25-0.57-0.57s0.25-0.57,0.57-0.57
			C149.15,117.79,149.4,118.05,149.4,118.36z"/>
	</g>
	<g>
		<path class="st0" d="M149.4,130.69c0,0.31-0.25,0.57-0.57,0.57c-0.31,0-0.57-0.25-0.57-0.57c0-0.31,0.25-0.57,0.57-0.57
			C149.15,130.12,149.4,130.38,149.4,130.69z"/>
	</g>
	<g>
		<path class="st0" d="M149.4,143.98c0,0.31-0.25,0.57-0.57,0.57c-0.31,0-0.57-0.25-0.57-0.57c0-0.31,0.25-0.57,0.57-0.57
			C149.15,143.42,149.4,143.67,149.4,143.98z"/>
	</g>
	<g>
		<path class="st0" d="M149.4,157.09c0,0.31-0.25,0.57-0.57,0.57c-0.31,0-0.57-0.25-0.57-0.57c0-0.31,0.25-0.57,0.57-0.57
			C149.15,156.52,149.4,156.77,149.4,157.09z"/>
	</g>
	<g>
		<path class="st0" d="M149.4,169.84c0,0.31-0.25,0.57-0.57,0.57c-0.31,0-0.57-0.25-0.57-0.57c0-0.31,0.25-0.57,0.57-0.57
			C149.15,169.27,149.4,169.53,149.4,169.84z"/>
	</g>
	<g>
		<path class="st0" d="M149.4,182.42c0,0.31-0.25,0.57-0.57,0.57c-0.31,0-0.57-0.25-0.57-0.57c0-0.31,0.25-0.57,0.57-0.57
			C149.15,181.85,149.4,182.1,149.4,182.42z"/>
	</g>
	<g>
		<path class="st0" d="M149.4,195.26c0,0.31-0.25,0.57-0.57,0.57c-0.31,0-0.57-0.25-0.57-0.57c0-0.31,0.25-0.57,0.57-0.57
			C149.15,194.69,149.4,194.94,149.4,195.26z"/>
	</g>
	<g>
		<path class="st0" d="M149.4,214.83c0,0.31-0.25,0.57-0.57,0.57c-0.31,0-0.57-0.25-0.57-0.57c0-0.31,0.25-0.57,0.57-0.57
			C149.15,214.26,149.4,214.51,149.4,214.83z"/>
	</g>
	<g>
		<g>
			<path class="st2" d="M95.33,91.01c-10.61-0.26-13.05,7.84-13.61,11.74c-0.56-3.9-3-12-13.61-11.74
				c-13.95,0.34-15.79,15.96-10.92,23.86c4.87,7.9,7.39,10.42,12.27,15.46c4.59,4.75,10.07,10.09,12.1,13.36
				c0,0,0.11,0.38,0.17,0.28c0.06,0.1,0.17-0.28,0.17-0.28c2.03-3.27,7.51-8.62,12.1-13.36c4.87-5.04,7.39-7.56,12.27-15.46
				C111.13,106.98,109.28,91.35,95.33,91.01z"/>
		</g>
		<g>
			<path class="st2" d="M20.52,29.56c-1.9-0.05-2.34,1.41-2.44,2.11c-0.1-0.7-0.54-2.15-2.44-2.11c-2.5,0.06-2.83,2.86-1.96,4.28
				c0.87,1.42,1.33,1.87,2.2,2.77c0.82,0.85,1.81,1.81,2.17,2.4c0,0,0.02,0.07,0.03,0.05c0.01,0.02,0.03-0.05,0.03-0.05
				c0.36-0.59,1.35-1.54,2.17-2.4c0.87-0.9,1.33-1.36,2.2-2.77C23.36,32.43,23.03,29.62,20.52,29.56z"/>
		</g>
		<g>
			<g>
				<g>
					<path class="st3" d="M12.04,24.63h0.72c0.76,0,1.32-0.47,1.67-1.42l4.17-11.78h0.48l4.21,12.34c0.13,0.32,0.28,0.55,0.47,0.67
						c0.18,0.12,0.41,0.18,0.7,0.18h1.09v0.62h-6.02v-0.62h1.28c0.19,0,0.36-0.05,0.49-0.15c0.13-0.1,0.19-0.21,0.19-0.34
						c0-0.17-0.03-0.31-0.08-0.43l-0.91-2.58h-4.54l-0.47,1.3c-0.18,0.52-0.27,0.89-0.27,1.13c0,0.29,0.07,0.53,0.21,0.75
						c0.14,0.21,0.39,0.32,0.74,0.32h1.18v0.62h-5.32V24.63z M16.18,20.52h4.11l-2.02-5.92L16.18,20.52z"/>
				</g>
			</g>
		</g>
		<g>
			<g>
				<g>
					<path class="st2" d="M140.51,205.52h5.32v0.62h-1.18c-0.35,0-0.6,0.11-0.74,0.32c-0.14,0.21-0.21,0.46-0.21,0.75
						c0,0.23,0.09,0.61,0.27,1.12l0.47,1.3h4.54l0.91-2.58c0.05-0.12,0.08-0.26,0.08-0.43c0-0.13-0.06-0.24-0.19-0.34
						c-0.13-0.1-0.29-0.15-0.49-0.15H148v-0.62h6.02v0.62h-1.09c-0.29,0-0.52,0.06-0.7,0.19c-0.18,0.12-0.34,0.35-0.47,0.67
						l-4.21,12.34h-0.48l-4.17-11.78c-0.35-0.94-0.91-1.42-1.67-1.42h-0.72V205.52z M146.74,216.18l2.02-5.92h-4.11L146.74,216.18z"
						/>
				</g>
			</g>
		</g>
		<g>
			<path class="st2" d="M150.84,200.8c-1.9,0.05-2.34-1.41-2.44-2.1c-0.1,0.7-0.54,2.15-2.44,2.1c-2.5-0.06-2.83-2.86-1.96-4.28
				c0.87-1.42,1.33-1.87,2.2-2.77c0.82-0.85,1.81-1.81,2.17-2.4c0,0,0.02-0.07,0.03-0.05c0.01-0.02,0.03,0.05,0.03,0.05
				c0.36,0.59,1.35,1.54,2.17,2.4c0.87,0.9,1.33,1.36,2.2,2.77C153.67,197.94,153.34,200.74,150.84,200.8z"/>
		</g>
	</g>
</g>
</svg>
