<?xml version="1.0" encoding="utf-8"?>
<!-- Generator: Adobe Illustrator 25.0.0, SVG Export Plug-In . SVG Version: 6.00 Build 0)  -->
<svg version="1.1" id="Ebene_1" xmlns="http://www.w3.org/2000/svg" xmlns:xlink="http://www.w3.org/1999/xlink" x="0px" y="0px"
	 viewBox="0 0 167 234" style="enable-background:new 0 0 167 234;" xml:space="preserve">
<style type="text/css">
	.st0{fill:#FFFFFF;}
	.st1{fill:#161616;}
	.st2{fill:#CD0902;}
	.st3{fill:#CC0601;}
</style>
<g>
	<g>
		<g>
			<path class="st0" d="M160.7,233.4H6.3c-3.3,0-5.9-2.7-5.9-5.9V6.5c0-3.3,2.7-5.9,5.9-5.9h154.4c3.3,0,5.9,2.7,5.9,5.9v221
				C166.6,230.8,164,233.4,160.7,233.4z"/>
			<path class="st1" d="M160.7,233.5H6.3c-3.3,0-6.1-2.7-6.1-6.1V6.5c0-3.3,2.7-6.1,6.1-6.1h154.4c3.3,0,6.1,2.7,6.1,6.1v221
				C166.7,230.8,164,233.5,160.7,233.5z M6.3,0.7c-3.2,0-5.8,2.6-5.8,5.8v221c0,3.2,2.6,5.8,5.8,5.8h154.4c3.2,0,5.8-2.6,5.8-5.8
				V6.5c0-3.2-2.6-5.8-5.8-5.8H6.3z"/>
		</g>
	</g>
	<g>
		<g>
			<g>
				<g>
					<path class="st2" d="M14.4,23.9h1.9c0.2,0,0.3,0,0.4-0.1c0.1-0.1,0.1-0.2,0.1-0.4v-9.5h-2.4v-0.7h1.1c0.7,0,1.3-0.2,1.7-0.6
						c0.4-0.4,0.7-0.8,0.8-1.4h0.6v12.1c0,0.2,0,0.3,0.1,0.4c0.1,0.1,0.2,0.1,0.4,0.1H21v0.6h-6.6V23.9z"/>
				</g>
				<g>
					<path class="st2" d="M26.5,23.9c-0.7-0.7-1.3-1.5-1.7-2.6c-0.4-1.1-0.6-2.2-0.6-3.4c0-1.2,0.2-2.3,0.6-3.4
						c0.4-1.1,0.9-1.9,1.7-2.6c0.7-0.7,1.5-1,2.4-1c0.9,0,1.7,0.3,2.4,1c0.7,0.7,1.3,1.5,1.7,2.6c0.4,1.1,0.6,2.2,0.6,3.4
						c0,1.2-0.2,2.3-0.6,3.4c-0.4,1.1-0.9,1.9-1.7,2.6c-0.7,0.7-1.5,1-2.4,1C28.1,24.8,27.2,24.5,26.5,23.9z M31.1,22.4
						c0.3-1.2,0.5-2.7,0.5-4.5c0-1.8-0.2-3.3-0.5-4.5c-0.3-1.2-1.1-1.8-2.1-1.8c-1.1,0-1.8,0.6-2.1,1.8c-0.3,1.2-0.5,2.7-0.5,4.5
						c0,1.8,0.2,3.3,0.5,4.5c0.3,1.2,1.1,1.8,2.1,1.8C30,24.2,30.8,23.6,31.1,22.4z"/>
				</g>
			</g>
		</g>
		<g>
			<g>
				<g>
					<path class="st3" d="M153.2,207.4h-1.9c-0.2,0-0.3,0-0.4,0.1c-0.1,0.1-0.1,0.2-0.1,0.4v9.5h2.4v0.7h-1.1
						c-0.7,0-1.3,0.2-1.7,0.6c-0.4,0.4-0.7,0.8-0.8,1.4H149v-12.1c0-0.2,0-0.3-0.1-0.4c-0.1-0.1-0.2-0.1-0.4-0.1h-1.9v-0.6h6.6
						V207.4z"/>
				</g>
				<g>
					<path class="st3" d="M141.1,207.4c0.7,0.7,1.3,1.5,1.7,2.6c0.4,1.1,0.6,2.2,0.6,3.4c0,1.2-0.2,2.3-0.6,3.4
						c-0.4,1.1-0.9,1.9-1.7,2.6c-0.7,0.7-1.5,1-2.4,1c-0.9,0-1.7-0.3-2.4-1c-0.7-0.7-1.3-1.5-1.7-2.6c-0.4-1.1-0.6-2.2-0.6-3.4
						c0-1.2,0.2-2.3,0.6-3.4c0.4-1.1,0.9-1.9,1.7-2.6c0.7-0.7,1.5-1,2.4-1C139.5,206.4,140.4,206.8,141.1,207.4z M136.5,208.9
						c-0.3,1.2-0.5,2.7-0.5,4.5c0,1.8,0.2,3.3,0.5,4.5c0.3,1.2,1.1,1.8,2.1,1.8c1.1,0,1.8-0.6,2.1-1.8c0.3-1.2,0.5-2.7,0.5-4.5
						c0-1.8-0.2-3.3-0.5-4.5c-0.3-1.2-1.1-1.8-2.1-1.8C137.6,207.1,136.8,207.7,136.5,208.9z"/>
				</g>
			</g>
		</g>
		<g>
			<path class="st3" d="M148.9,202.2c-1.9,0-2.3-1.4-2.4-2.1c-0.1,0.7-0.5,2.2-2.4,2.1c-2.5-0.1-2.8-2.9-2-4.3
				c0.9-1.4,1.3-1.9,2.2-2.8c0.8-0.9,1.8-1.8,2.2-2.4c0,0,0-0.1,0-0.1c0,0,0,0.1,0,0.1c0.4,0.6,1.3,1.5,2.2,2.4
				c0.9,0.9,1.3,1.4,2.2,2.8C151.8,199.3,151.4,202.2,148.9,202.2z"/>
		</g>
		<g>
			<path class="st3" d="M24.3,29.8c-1.9,0-2.3,1.4-2.4,2.1c-0.1-0.7-0.5-2.2-2.4-2.1c-2.5,0.1-2.8,2.9-2,4.3
				c0.9,1.4,1.3,1.9,2.2,2.8c0.8,0.9,1.8,1.8,2.2,2.4c0,0,0,0.1,0,0.1c0,0,0-0.1,0-0.1c0.4-0.6,1.3-1.5,2.2-2.4
				c0.9-0.9,1.3-1.4,2.2-2.8C27.1,32.6,26.8,29.8,24.3,29.8z"/>
		</g>
		<g>
			<path class="st3" d="M56.1,27.6c-5.5-0.1-6.7,4.1-7,6.1c-0.3-2-1.6-6.2-7-6.1c-7.2,0.2-8.2,8.2-5.6,12.3c2.5,4.1,3.8,5.4,6.3,8
				c2.4,2.5,5.2,5.2,6.2,6.9c0,0,0.1,0.2,0.1,0.1c0,0.1,0.1-0.1,0.1-0.1c1-1.7,3.9-4.5,6.2-6.9c2.5-2.6,3.8-3.9,6.3-8
				C64.2,35.9,63.3,27.8,56.1,27.6z"/>
		</g>
		<g>
			<path class="st3" d="M90.6,50.8c-5.5-0.1-6.7,4.1-7,6.1c-0.3-2-1.6-6.2-7-6.1c-7.2,0.2-8.2,8.2-5.6,12.3c2.5,4.1,3.8,5.4,6.3,8
				c2.4,2.5,5.2,5.2,6.2,6.9c0,0,0.1,0.2,0.1,0.1c0,0.1,0.1-0.1,0.1-0.1c1-1.7,3.9-4.5,6.2-6.9c2.5-2.6,3.8-3.9,6.3-8
				C98.8,59,97.8,51,90.6,50.8z"/>
		</g>
		<g>
			<path class="st3" d="M90.9,184.1c-5.5,0.1-6.7-4.1-7-6.1c-0.3,2-1.6,6.2-7,6.1c-7.2-0.2-8.2-8.2-5.6-12.3c2.5-4.1,3.8-5.4,6.3-8
				c2.4-2.5,5.2-5.2,6.2-6.9c0,0,0.1-0.2,0.1-0.1c0-0.1,0.1,0.1,0.1,0.1c1,1.7,3.9,4.5,6.2,6.9c2.5,2.6,3.8,3.9,6.3,8
				C99.1,175.9,98.2,183.9,90.9,184.1z"/>
		</g>
		<g>
			<path class="st3" d="M56.1,78.2c-5.5-0.1-6.7,4.1-7,6.1c-0.3-2-1.6-6.2-7-6.1c-7.2,0.2-8.2,8.2-5.6,12.3c2.5,4.1,3.8,5.4,6.3,8
				c2.4,2.5,5.2,5.2,6.2,6.9c0,0,0.1,0.2,0.1,0.1c0,0.1,0.1-0.1,0.1-0.1c1-1.7,3.9-4.5,6.2-6.9c2.5-2.6,3.8-3.9,6.3-8
				C64.2,86.4,63.3,78.3,56.1,78.2z"/>
		</g>
		<g>
			<path class="st3" d="M56.1,206.6c-5.5,0.1-6.7-4.1-7-6.1c-0.3,2-1.6,6.2-7,6.1c-7.2-0.2-8.2-8.2-5.6-12.3c2.5-4.1,3.8-5.4,6.3-8
				c2.4-2.5,5.2-5.2,6.2-6.9c0,0,0.1-0.2,0.1-0.1c0-0.1,0.1,0.1,0.1,0.1c1,1.7,3.9,4.5,6.2,6.9c2.5,2.6,3.8,3.9,6.3,8
				C64.2,198.3,63.3,206.4,56.1,206.6z"/>
		</g>
		<g>
			<path class="st3" d="M56.1,156.1c-5.5,0.1-6.7-4.1-7-6.1c-0.3,2-1.6,6.2-7,6.1c-7.2-0.2-8.2-8.2-5.6-12.3c2.5-4.1,3.8-5.4,6.3-8
				c2.4-2.5,5.2-5.2,6.2-6.9c0,0,0.1-0.2,0.1-0.1c0-0.1,0.1,0.1,0.1,0.1c1,1.7,3.9,4.5,6.2,6.9c2.5,2.6,3.8,3.9,6.3,8
				C64.2,147.8,63.3,155.9,56.1,156.1z"/>
		</g>
		<g>
			<path class="st3" d="M130,27.6c-5.5-0.1-6.7,4.1-7,6.1c-0.3-2-1.6-6.2-7-6.1c-7.2,0.2-8.2,8.2-5.6,12.3c2.5,4.1,3.8,5.4,6.3,8
				c2.4,2.5,5.2,5.2,6.2,6.9c0,0,0.1,0.2,0.1,0.1c0,0.1,0.1-0.1,0.1-0.1c1-1.7,3.9-4.5,6.2-6.9c2.5-2.6,3.8-3.9,6.3-8
				C138.1,35.9,137.2,27.8,130,27.6z"/>
		</g>
		<g>
			<path class="st3" d="M130,78.2c-5.5-0.1-6.7,4.1-7,6.1c-0.3-2-1.6-6.2-7-6.1c-7.2,0.2-8.2,8.2-5.6,12.3c2.5,4.1,3.8,5.4,6.3,8
				c2.4,2.5,5.2,5.2,6.2,6.9c0,0,0.1,0.2,0.1,0.1c0,0.1,0.1-0.1,0.1-0.1c1-1.7,3.9-4.5,6.2-6.9c2.5-2.6,3.8-3.9,6.3-8
				C138.1,86.4,137.2,78.3,130,78.2z"/>
		</g>
		<g>
			<path class="st3" d="M130,206.6c-5.5,0.1-6.7-4.1-7-6.1c-0.3,2-1.6,6.2-7,6.1c-7.2-0.2-8.2-8.2-5.6-12.3c2.5-4.1,3.8-5.4,6.3-8
				c2.4-2.5,5.2-5.2,6.2-6.9c0,0,0.1-0.2,0.1-0.1c0-0.1,0.1,0.1,0.1,0.1c1,1.7,3.9,4.5,6.2,6.9c2.5,2.6,3.8,3.9,6.3,8
				C138.1,198.3,137.2,206.4,130,206.6z"/>
		</g>
		<g>
			<path class="st3" d="M130,156.1c-5.5,0.1-6.7-4.1-7-6.1c-0.3,2-1.6,6.2-7,6.1c-7.2-0.2-8.2-8.2-5.6-12.3c2.5-4.1,3.8-5.4,6.3-8
				c2.4-2.5,5.2-5.2,6.2-6.9c0,0,0.1-0.2,0.1-0.1c0-0.1,0.1,0.1,0.1,0.1c1,1.7,3.9,4.5,6.2,6.9c2.5,2.6,3.8,3.9,6.3,8
				C138.1,147.8,137.2,155.9,130,156.1z"/>
		</g>
	</g>
	<g>
		<circle class="st0" cx="148.8" cy="18.9" r="0.6"/>
	</g>
	<g>
		<circle class="st0" cx="121.7" cy="18.9" r="0.6"/>
	</g>
	<g>
		<circle class="st0" cx="96.7" cy="18.9" r="0.6"/>
	</g>
	<g>
		<path class="st0" d="M72.3,19.1c0,0.3-0.3,0.6-0.6,0.6c-0.3,0-0.6-0.3-0.6-0.6c0-0.3,0.3-0.6,0.6-0.6C72,18.6,72.3,18.8,72.3,19.1
			z"/>
	</g>
	<g>
		<circle class="st0" cx="148.8" cy="40.1" r="0.6"/>
	</g>
	<g>
		<circle class="st0" cx="148.8" cy="59.4" r="0.6"/>
	</g>
	<g>
		<circle class="st0" cx="148.8" cy="79.6" r="0.6"/>
	</g>
	<g>
		<circle class="st0" cx="148.8" cy="92.4" r="0.6"/>
	</g>
	<g>
		<circle class="st0" cx="148.8" cy="105.2" r="0.6"/>
	</g>
	<g>
		<circle class="st0" cx="18.6" cy="19.5" r="0.6"/>
	</g>
	<g>
		<path class="st0" d="M46.6,19.1c0,0.3-0.3,0.6-0.6,0.6c-0.3,0-0.6-0.3-0.6-0.6c0-0.3,0.3-0.6,0.6-0.6
			C46.3,18.6,46.6,18.8,46.6,19.1z"/>
	</g>
	<g>
		<path class="st0" d="M19.1,39.6c0,0.3-0.3,0.6-0.6,0.6c-0.3,0-0.6-0.3-0.6-0.6c0-0.3,0.3-0.6,0.6-0.6
			C18.9,39.1,19.1,39.3,19.1,39.6z"/>
	</g>
	<g>
		<circle class="st0" cx="18.6" cy="59.5" r="0.6"/>
	</g>
	<g>
		<circle class="st0" cx="18.6" cy="79.4" r="0.6"/>
	</g>
	<g>
		<circle class="st0" cx="18.6" cy="92.4" r="0.6"/>
	</g>
	<g>
		<circle class="st0" cx="18.6" cy="105.7" r="0.6"/>
	</g>
	<g>
		<circle class="st0" cx="18.6" cy="118.7" r="0.6"/>
	</g>
	<g>
		<circle class="st0" cx="18.6" cy="131.6" r="0.6"/>
	</g>
	<g>
		<circle class="st0" cx="18.6" cy="145" r="0.6"/>
	</g>
	<g>
		<circle class="st0" cx="18.6" cy="158.4" r="0.6"/>
	</g>
	<g>
		<circle class="st0" cx="18.6" cy="170.4" r="0.6"/>
	</g>
	<g>
		<path class="st0" d="M19.1,183.8c0,0.3-0.3,0.6-0.6,0.6c-0.3,0-0.6-0.3-0.6-0.6c0-0.3,0.3-0.6,0.6-0.6
			C18.9,183.2,19.1,183.5,19.1,183.8z"/>
	</g>
	<g>
		<circle class="st0" cx="18.6" cy="196.9" r="0.6"/>
	</g>
	<g>
		<circle class="st0" cx="18.8" cy="216" r="0.6"/>
	</g>
	<g>
		<path class="st0" d="M39.9,216.6c0,0.3-0.3,0.6-0.6,0.6c-0.3,0-0.6-0.3-0.6-0.6c0-0.3,0.3-0.6,0.6-0.6
			C39.6,216,39.9,216.3,39.9,216.6z"/>
	</g>
	<g>
		<path class="st0" d="M66.3,216.6c0,0.3-0.3,0.6-0.6,0.6c-0.3,0-0.6-0.3-0.6-0.6c0-0.3,0.3-0.6,0.6-0.6
			C66.1,216,66.3,216.3,66.3,216.6z"/>
	</g>
	<g>
		<circle class="st0" cx="92.1" cy="216.6" r="0.6"/>
	</g>
	<g>
		<circle class="st0" cx="117.9" cy="216.6" r="0.6"/>
	</g>
	<g>
		<circle class="st0" cx="148.8" cy="118.4" r="0.6"/>
	</g>
	<g>
		<circle class="st0" cx="148.8" cy="130.7" r="0.6"/>
	</g>
	<g>
		<circle class="st0" cx="148.8" cy="144" r="0.6"/>
	</g>
	<g>
		<circle class="st0" cx="148.8" cy="157.1" r="0.6"/>
	</g>
	<g>
		<circle class="st0" cx="148.8" cy="169.8" r="0.6"/>
	</g>
	<g>
		<circle class="st0" cx="148.8" cy="182.4" r="0.6"/>
	</g>
	<g>
		<circle class="st0" cx="148.8" cy="195.2" r="0.6"/>
	</g>
	<g>
		<circle class="st0" cx="148.8" cy="214.8" r="0.6"/>
	</g>
</g>
</svg>
