<?xml version="1.0" encoding="utf-8"?>
<!-- Generator: Adobe Illustrator 25.0.0, SVG Export Plug-In . SVG Version: 6.00 Build 0)  -->
<svg version="1.1" id="Ebene_1" xmlns="http://www.w3.org/2000/svg" xmlns:xlink="http://www.w3.org/1999/xlink" x="0px" y="0px"
	 viewBox="0 0 167 234" style="enable-background:new 0 0 167 234;" xml:space="preserve">
<style type="text/css">
	.st0{fill:#FFFFFF;}
	.st1{fill:#161616;}
	.st2{fill:#CC0601;}
	.st3{fill:#CD0902;}
</style>
<g>
	<g>
		<g>
			<path class="st0" d="M160.7,233.4H6.3c-3.3,0-5.9-2.7-5.9-5.9V6.5c0-3.3,2.7-5.9,5.9-5.9h154.4c3.3,0,5.9,2.7,5.9,5.9v221
				C166.6,230.8,164,233.4,160.7,233.4z"/>
			<path class="st1" d="M160.7,233.5H6.3c-3.3,0-6.1-2.7-6.1-6.1V6.5c0-3.3,2.7-6.1,6.1-6.1h154.4c3.3,0,6.1,2.7,6.1,6.1v221
				C166.7,230.8,164,233.5,160.7,233.5z M6.3,0.7c-3.2,0-5.8,2.6-5.8,5.8v221c0,3.2,2.6,5.8,5.8,5.8h154.4c3.2,0,5.8-2.6,5.8-5.8
				V6.5c0-3.2-2.6-5.8-5.8-5.8H6.3z"/>
		</g>
	</g>
	<g>
		<circle class="st0" cx="148.8" cy="18.9" r="0.6"/>
	</g>
	<g>
		<circle class="st0" cx="121.7" cy="18.9" r="0.6"/>
	</g>
	<g>
		<circle class="st0" cx="96.7" cy="18.9" r="0.6"/>
	</g>
	<g>
		<circle class="st0" cx="71.7" cy="19.1" r="0.6"/>
	</g>
	<g>
		<circle class="st0" cx="148.8" cy="40.1" r="0.6"/>
	</g>
	<g>
		<circle class="st0" cx="148.8" cy="59.4" r="0.6"/>
	</g>
	<g>
		<circle class="st0" cx="148.8" cy="79.6" r="0.6"/>
	</g>
	<g>
		<circle class="st0" cx="148.8" cy="92.4" r="0.6"/>
	</g>
	<g>
		<circle class="st0" cx="148.8" cy="105.2" r="0.6"/>
	</g>
	<g>
		<circle class="st0" cx="18.6" cy="19.5" r="0.6"/>
	</g>
	<g>
		<path class="st0" d="M46.6,19.1c0,0.3-0.3,0.6-0.6,0.6c-0.3,0-0.6-0.3-0.6-0.6c0-0.3,0.3-0.6,0.6-0.6
			C46.3,18.6,46.6,18.8,46.6,19.1z"/>
	</g>
	<g>
		<circle class="st0" cx="18.6" cy="39.6" r="0.6"/>
	</g>
	<g>
		<circle class="st0" cx="18.6" cy="59.5" r="0.6"/>
	</g>
	<g>
		<circle class="st0" cx="18.6" cy="79.4" r="0.6"/>
	</g>
	<g>
		<circle class="st0" cx="18.6" cy="92.4" r="0.6"/>
	</g>
	<g>
		<circle class="st0" cx="18.6" cy="105.8" r="0.6"/>
	</g>
	<g>
		<circle class="st0" cx="18.6" cy="118.7" r="0.6"/>
	</g>
	<g>
		<circle class="st0" cx="18.6" cy="131.6" r="0.6"/>
	</g>
	<g>
		<circle class="st0" cx="18.6" cy="145" r="0.6"/>
	</g>
	<g>
		<circle class="st0" cx="18.6" cy="158.4" r="0.6"/>
	</g>
	<g>
		<circle class="st0" cx="18.6" cy="170.4" r="0.6"/>
	</g>
	<g>
		<circle class="st0" cx="18.6" cy="183.8" r="0.6"/>
	</g>
	<g>
		<circle class="st0" cx="18.6" cy="196.9" r="0.6"/>
	</g>
	<g>
		<circle class="st0" cx="18.8" cy="216" r="0.6"/>
	</g>
	<g>
		<circle class="st0" cx="39.3" cy="216.6" r="0.6"/>
	</g>
	<g>
		<path class="st0" d="M66.3,216.6c0,0.3-0.3,0.6-0.6,0.6c-0.3,0-0.6-0.3-0.6-0.6s0.3-0.6,0.6-0.6C66.1,216,66.3,216.3,66.3,216.6z"
			/>
	</g>
	<g>
		<circle class="st0" cx="92.1" cy="216.6" r="0.6"/>
	</g>
	<g>
		<circle class="st0" cx="117.9" cy="216.6" r="0.6"/>
	</g>
	<g>
		<circle class="st0" cx="148.8" cy="118.4" r="0.6"/>
	</g>
	<g>
		<circle class="st0" cx="148.8" cy="130.7" r="0.6"/>
	</g>
	<g>
		<circle class="st0" cx="148.8" cy="144" r="0.6"/>
	</g>
	<g>
		<circle class="st0" cx="148.8" cy="157.1" r="0.6"/>
	</g>
	<g>
		<circle class="st0" cx="148.8" cy="169.8" r="0.6"/>
	</g>
	<g>
		<circle class="st0" cx="148.8" cy="182.4" r="0.6"/>
	</g>
	<g>
		<circle class="st0" cx="148.8" cy="195.2" r="0.6"/>
	</g>
	<g>
		<path class="st0" d="M149.4,214.8c0,0.3-0.3,0.6-0.6,0.6c-0.3,0-0.6-0.3-0.6-0.6c0-0.3,0.3-0.6,0.6-0.6
			C149.1,214.2,149.4,214.5,149.4,214.8z"/>
	</g>
	<g>
		<g>
			<polygon class="st2" points="144.4,194.7 139.7,199.9 143.9,205.6 148.7,200.4 			"/>
		</g>
		<g>
			<polygon class="st2" points="18.5,29.4 13.7,34.6 17.9,40.3 22.8,35.1 			"/>
		</g>
		<g>
			<g>
				<g>
					<g>
						<path class="st3" d="M13.2,25.4h1.9c0.2,0,0.3,0,0.4-0.1c0.1-0.1,0.1-0.2,0.1-0.4v-9.5h-2.4v-0.7h1.1c0.7,0,1.3-0.2,1.7-0.6
							c0.4-0.4,0.7-0.8,0.8-1.4h0.6v12.1c0,0.2,0,0.3,0.1,0.4c0.1,0.1,0.2,0.1,0.4,0.1h1.9V26h-6.6V25.4z"/>
					</g>
				</g>
				<g>
					<g>
						<path class="st3" d="M25.3,25.3c-0.7-0.7-1.3-1.5-1.7-2.6s-0.6-2.2-0.6-3.4c0-1.2,0.2-2.3,0.6-3.4c0.4-1.1,0.9-1.9,1.7-2.6
							c0.7-0.7,1.5-1,2.4-1c0.9,0,1.7,0.3,2.4,1c0.7,0.7,1.3,1.5,1.7,2.6c0.4,1.1,0.6,2.2,0.6,3.4c0,1.2-0.2,2.3-0.6,3.4
							c-0.4,1.1-0.9,1.9-1.7,2.6c-0.7,0.7-1.5,1-2.4,1C26.9,26.3,26.1,26,25.3,25.3z M29.9,23.9c0.3-1.2,0.5-2.7,0.5-4.5
							c0-1.8-0.2-3.3-0.5-4.5c-0.3-1.2-1.1-1.8-2.1-1.8c-1.1,0-1.8,0.6-2.1,1.8c-0.3,1.2-0.5,2.7-0.5,4.5s0.2,3.3,0.5,4.5
							c0.3,1.2,1.1,1.8,2.1,1.8C28.9,25.7,29.6,25.1,29.9,23.9z"/>
					</g>
				</g>
			</g>
		</g>
		<g>
			<g>
				<g>
					<g>
						<path class="st2" d="M152,208.8h-1.9c-0.2,0-0.3,0-0.4,0.1c-0.1,0.1-0.1,0.2-0.1,0.4v9.5h2.4v0.7h-1.1c-0.7,0-1.3,0.2-1.7,0.6
							c-0.4,0.4-0.7,0.8-0.8,1.4h-0.6v-12.1c0-0.2,0-0.3-0.1-0.4c-0.1-0.1-0.2-0.1-0.4-0.1h-1.9v-0.6h6.6V208.8z"/>
					</g>
				</g>
				<g>
					<g>
						<path class="st2" d="M139.9,208.9c0.7,0.7,1.3,1.5,1.7,2.6c0.4,1.1,0.6,2.2,0.6,3.4c0,1.2-0.2,2.3-0.6,3.4
							c-0.4,1.1-0.9,1.9-1.7,2.6c-0.7,0.7-1.5,1-2.4,1c-0.9,0-1.7-0.3-2.4-1c-0.7-0.7-1.3-1.5-1.7-2.6c-0.4-1.1-0.6-2.2-0.6-3.4
							c0-1.2,0.2-2.3,0.6-3.4c0.4-1.1,0.9-1.9,1.7-2.6c0.7-0.7,1.5-1,2.4-1C138.4,207.9,139.2,208.2,139.9,208.9z M135.3,210.4
							c-0.3,1.2-0.5,2.7-0.5,4.5s0.2,3.3,0.5,4.5c0.3,1.2,1.1,1.8,2.1,1.8c1.1,0,1.8-0.6,2.1-1.8c0.3-1.2,0.5-2.7,0.5-4.5
							c0-1.8-0.2-3.3-0.5-4.5c-0.3-1.2-1.1-1.8-2.1-1.8C136.4,208.5,135.7,209.1,135.3,210.4z"/>
					</g>
				</g>
			</g>
		</g>
		<g>
			<polygon class="st2" points="51.2,25.4 37.9,41.5 51.2,57.9 64.8,41.7 			"/>
		</g>
		<g>
			<polygon class="st2" points="86,52.4 72.7,68.6 86,85 99.6,68.7 			"/>
		</g>
		<g>
			<polygon class="st2" points="85.4,149 72.1,165.1 85.4,181.5 99.1,165.2 			"/>
		</g>
		<g>
			<polygon class="st2" points="51.2,75.2 37.9,91.4 51.2,107.8 64.8,91.5 			"/>
		</g>
		<g>
			<polygon class="st2" points="51.2,125.1 37.9,141.2 51.2,157.6 64.8,141.4 			"/>
		</g>
		<g>
			<polygon class="st2" points="51.2,174.9 37.9,191.1 51.2,207.5 64.8,191.2 			"/>
		</g>
		<g>
			<polygon class="st2" points="118.6,25.4 105.3,41.5 118.6,57.9 132.3,41.7 			"/>
		</g>
		<g>
			<polygon class="st2" points="118.6,75.2 105.3,91.4 118.6,107.8 132.3,91.5 			"/>
		</g>
		<g>
			<polygon class="st2" points="118.6,125.1 105.3,141.2 118.6,157.6 132.3,141.4 			"/>
		</g>
		<g>
			<polygon class="st2" points="118.6,174.9 105.3,191.1 118.6,207.5 132.3,191.2 			"/>
		</g>
	</g>
</g>
</svg>
