<?xml version="1.0" encoding="utf-8"?>
<!-- Generator: Adobe Illustrator 25.0.0, SVG Export Plug-In . SVG Version: 6.00 Build 0)  -->
<svg version="1.1" id="Ebene_1" xmlns="http://www.w3.org/2000/svg" xmlns:xlink="http://www.w3.org/1999/xlink" x="0px" y="0px"
	 viewBox="0 0 167 234" style="enable-background:new 0 0 167 234;" xml:space="preserve">
<style type="text/css">
	.st0{fill:#FFFFFF;}
	.st1{fill:#161616;}
	.st2{fill:#CC0601;}
	.st3{fill:#CD0902;}
</style>
<g>
	<g>
		<g>
			<path class="st0" d="M160.7,233.4H6.3c-3.3,0-5.9-2.7-5.9-5.9V6.5c0-3.3,2.7-5.9,5.9-5.9h154.4c3.3,0,5.9,2.7,5.9,5.9v221
				C166.6,230.8,164,233.4,160.7,233.4z"/>
			<path class="st1" d="M160.7,233.5H6.3c-3.3,0-6.1-2.7-6.1-6.1V6.5c0-3.3,2.7-6.1,6.1-6.1h154.4c3.3,0,6.1,2.7,6.1,6.1v221
				C166.7,230.8,164,233.5,160.7,233.5z M6.3,0.7c-3.2,0-5.8,2.6-5.8,5.8v221c0,3.2,2.6,5.8,5.8,5.8h154.4c3.2,0,5.8-2.6,5.8-5.8
				V6.5c0-3.2-2.6-5.8-5.8-5.8H6.3z"/>
		</g>
	</g>
	<g>
		<path class="st0" d="M149.4,18.9c0,0.3-0.3,0.6-0.6,0.6c-0.3,0-0.6-0.3-0.6-0.6s0.3-0.6,0.6-0.6C149.1,18.4,149.4,18.6,149.4,18.9
			z"/>
	</g>
	<g>
		<circle class="st0" cx="121.7" cy="18.9" r="0.6"/>
	</g>
	<g>
		<path class="st0" d="M97.3,18.9c0,0.3-0.3,0.6-0.6,0.6c-0.3,0-0.6-0.3-0.6-0.6s0.3-0.6,0.6-0.6C97.1,18.4,97.3,18.6,97.3,18.9z"/>
	</g>
	<g>
		<circle class="st0" cx="71.7" cy="19.1" r="0.6"/>
	</g>
	<g>
		<path class="st0" d="M149.4,40.1c0,0.3-0.3,0.6-0.6,0.6c-0.3,0-0.6-0.3-0.6-0.6c0-0.3,0.3-0.6,0.6-0.6
			C149.1,39.5,149.4,39.8,149.4,40.1z"/>
	</g>
	<g>
		<path class="st0" d="M149.4,59.4c0,0.3-0.3,0.6-0.6,0.6c-0.3,0-0.6-0.3-0.6-0.6c0-0.3,0.3-0.6,0.6-0.6
			C149.1,58.8,149.4,59,149.4,59.4z"/>
	</g>
	<g>
		<path class="st0" d="M149.4,79.6c0,0.3-0.3,0.6-0.6,0.6c-0.3,0-0.6-0.3-0.6-0.6c0-0.3,0.3-0.6,0.6-0.6
			C149.1,79,149.4,79.3,149.4,79.6z"/>
	</g>
	<g>
		<path class="st0" d="M149.4,92.4c0,0.3-0.3,0.6-0.6,0.6c-0.3,0-0.6-0.3-0.6-0.6s0.3-0.6,0.6-0.6C149.1,91.8,149.4,92,149.4,92.4z"
			/>
	</g>
	<g>
		<path class="st0" d="M149.4,105.2c0,0.3-0.3,0.6-0.6,0.6c-0.3,0-0.6-0.3-0.6-0.6c0-0.3,0.3-0.6,0.6-0.6
			C149.1,104.6,149.4,104.9,149.4,105.2z"/>
	</g>
	<g>
		<circle class="st0" cx="18.6" cy="19.5" r="0.6"/>
	</g>
	<g>
		<circle class="st0" cx="46" cy="19.1" r="0.6"/>
	</g>
	<g>
		<circle class="st0" cx="18.6" cy="39.6" r="0.6"/>
	</g>
	<g>
		<circle class="st0" cx="18.6" cy="59.5" r="0.6"/>
	</g>
	<g>
		<circle class="st0" cx="18.6" cy="79.4" r="0.6"/>
	</g>
	<g>
		<circle class="st0" cx="18.6" cy="92.4" r="0.6"/>
	</g>
	<g>
		<circle class="st0" cx="18.6" cy="105.8" r="0.6"/>
	</g>
	<g>
		<circle class="st0" cx="18.6" cy="118.7" r="0.6"/>
	</g>
	<g>
		<circle class="st0" cx="18.6" cy="131.6" r="0.6"/>
	</g>
	<g>
		<circle class="st0" cx="18.6" cy="145" r="0.6"/>
	</g>
	<g>
		<circle class="st0" cx="18.6" cy="158.4" r="0.6"/>
	</g>
	<g>
		<circle class="st0" cx="18.6" cy="170.4" r="0.6"/>
	</g>
	<g>
		<path class="st0" d="M19.1,183.8c0,0.3-0.3,0.6-0.6,0.6s-0.6-0.3-0.6-0.6c0-0.3,0.3-0.6,0.6-0.6S19.1,183.5,19.1,183.8z"/>
	</g>
	<g>
		<circle class="st0" cx="18.6" cy="196.9" r="0.6"/>
	</g>
	<g>
		<circle class="st0" cx="18.8" cy="216" r="0.6"/>
	</g>
	<g>
		<circle class="st0" cx="39.3" cy="216.6" r="0.6"/>
	</g>
	<g>
		<circle class="st0" cx="65.8" cy="216.6" r="0.6"/>
	</g>
	<g>
		<circle class="st0" cx="92.1" cy="216.6" r="0.6"/>
	</g>
	<g>
		<circle class="st0" cx="117.9" cy="216.6" r="0.6"/>
	</g>
	<g>
		<path class="st0" d="M149.4,118.4c0,0.3-0.3,0.6-0.6,0.6c-0.3,0-0.6-0.3-0.6-0.6s0.3-0.6,0.6-0.6
			C149.1,117.8,149.4,118,149.4,118.4z"/>
	</g>
	<g>
		<path class="st0" d="M149.4,130.7c0,0.3-0.3,0.6-0.6,0.6c-0.3,0-0.6-0.3-0.6-0.6s0.3-0.6,0.6-0.6
			C149.1,130.1,149.4,130.4,149.4,130.7z"/>
	</g>
	<g>
		<path class="st0" d="M149.4,144c0,0.3-0.3,0.6-0.6,0.6c-0.3,0-0.6-0.3-0.6-0.6s0.3-0.6,0.6-0.6C149.1,143.4,149.4,143.7,149.4,144
			z"/>
	</g>
	<g>
		<path class="st0" d="M149.4,157.1c0,0.3-0.3,0.6-0.6,0.6c-0.3,0-0.6-0.3-0.6-0.6s0.3-0.6,0.6-0.6
			C149.1,156.5,149.4,156.8,149.4,157.1z"/>
	</g>
	<g>
		<path class="st0" d="M149.4,169.8c0,0.3-0.3,0.6-0.6,0.6c-0.3,0-0.6-0.3-0.6-0.6c0-0.3,0.3-0.6,0.6-0.6
			C149.1,169.3,149.4,169.5,149.4,169.8z"/>
	</g>
	<g>
		<path class="st0" d="M149.4,182.4c0,0.3-0.3,0.6-0.6,0.6c-0.3,0-0.6-0.3-0.6-0.6s0.3-0.6,0.6-0.6
			C149.1,181.8,149.4,182.1,149.4,182.4z"/>
	</g>
	<g>
		<path class="st0" d="M149.4,195.2c0,0.3-0.3,0.6-0.6,0.6c-0.3,0-0.6-0.3-0.6-0.6c0-0.3,0.3-0.6,0.6-0.6
			C149.1,194.7,149.4,194.9,149.4,195.2z"/>
	</g>
	<g>
		<path class="st0" d="M149.4,214.8c0,0.3-0.3,0.6-0.6,0.6c-0.3,0-0.6-0.3-0.6-0.6c0-0.3,0.3-0.6,0.6-0.6
			C149.1,214.2,149.4,214.5,149.4,214.8z"/>
	</g>
	<g>
		<g>
			<polygon class="st2" points="17,28.8 12.3,34 16.5,39.8 21.4,34.5 			"/>
		</g>
		<g>
			<polygon class="st2" points="149.7,193.6 145,198.8 149.2,204.5 154.1,199.3 			"/>
		</g>
		<g>
			<g>
				<g>
					<path class="st3" d="M14.8,25.7c-0.7-0.3-1.2-0.7-1.6-1.3c-0.4-0.6-0.6-1.2-0.6-2c0-0.9,0.3-1.7,0.8-2.2c0.5-0.5,1.1-0.9,1.7-1
						v-0.1L14.9,19c-0.7-0.3-1.2-0.7-1.6-1.3c-0.4-0.6-0.5-1.2-0.5-1.9c0-0.7,0.2-1.3,0.6-1.8c0.4-0.5,1-1,1.6-1.3
						c0.7-0.3,1.3-0.5,2.1-0.5c0.9,0,1.6,0.2,2.2,0.5c0.6,0.3,1.1,0.7,1.4,1.2c0.3,0.5,0.5,1.1,0.5,1.6c0,0.7-0.2,1.3-0.7,1.8
						c-0.4,0.5-1,0.9-1.6,1.2v0.1l0.4,0.2c1.5,0.6,2.3,1.6,2.3,2.9c0,0.8-0.2,1.5-0.6,2.2c-0.4,0.7-0.9,1.2-1.6,1.6
						c-0.7,0.4-1.6,0.6-2.6,0.6C16.2,26.1,15.5,26,14.8,25.7z M18.9,25c0.5-0.3,0.8-0.7,1-1.1c0.2-0.4,0.3-0.8,0.3-1.2
						c0-0.7-0.2-1.3-0.5-1.6c-0.3-0.3-0.8-0.6-1.4-0.9l-2.6-1c-0.5,0.2-0.9,0.6-1.2,1c-0.3,0.5-0.4,1.2-0.4,2.1c0,1,0.3,1.8,0.9,2.3
						c0.6,0.5,1.4,0.7,2.2,0.7C17.8,25.5,18.4,25.3,18.9,25z M19.6,17.3c0.2-0.5,0.3-1,0.3-1.6c0-0.5-0.1-1-0.4-1.4
						c-0.3-0.4-0.6-0.8-1-1c-0.4-0.2-0.9-0.4-1.4-0.4c-0.8,0-1.5,0.2-2,0.7c-0.5,0.5-0.8,1.1-0.8,1.8c0,0.5,0.1,1,0.4,1.3
						c0.3,0.3,0.7,0.6,1.3,0.8l2.5,1C18.9,18.1,19.3,17.7,19.6,17.3z"/>
				</g>
			</g>
		</g>
		<g>
			<g>
				<g>
					<path class="st3" d="M151.6,208.1c0.7,0.3,1.2,0.7,1.6,1.3c0.4,0.6,0.6,1.2,0.6,2c0,0.9-0.3,1.7-0.8,2.2
						c-0.5,0.5-1.1,0.9-1.7,1v0.1l0.2,0.1c0.7,0.3,1.2,0.7,1.6,1.3c0.4,0.6,0.5,1.2,0.5,1.9c0,0.7-0.2,1.3-0.6,1.8
						c-0.4,0.5-1,1-1.6,1.3c-0.7,0.3-1.3,0.5-2.1,0.5c-0.9,0-1.6-0.2-2.2-0.5c-0.6-0.3-1.1-0.7-1.4-1.2c-0.3-0.5-0.5-1.1-0.5-1.6
						c0-0.7,0.2-1.3,0.7-1.8c0.4-0.5,1-0.9,1.6-1.2v-0.1L147,215c-1.5-0.6-2.3-1.6-2.3-2.9c0-0.8,0.2-1.5,0.6-2.2
						c0.4-0.7,0.9-1.2,1.6-1.6c0.7-0.4,1.6-0.6,2.6-0.6C150.2,207.7,150.9,207.8,151.6,208.1z M147.5,208.7c-0.5,0.3-0.8,0.7-1,1.1
						c-0.2,0.4-0.3,0.8-0.3,1.2c0,0.7,0.2,1.3,0.5,1.6c0.3,0.3,0.8,0.6,1.4,0.9l2.6,1c0.5-0.2,0.9-0.6,1.2-1
						c0.3-0.5,0.4-1.2,0.4-2.1c0-1-0.3-1.8-0.9-2.3c-0.6-0.5-1.4-0.7-2.2-0.7C148.5,208.3,147.9,208.4,147.5,208.7z M146.8,216.5
						c-0.2,0.5-0.3,1-0.3,1.6c0,0.5,0.1,1,0.4,1.4c0.3,0.4,0.6,0.8,1,1c0.4,0.2,0.9,0.4,1.4,0.4c0.8,0,1.5-0.2,2-0.7
						c0.5-0.5,0.8-1.1,0.8-1.8c0-0.5-0.1-1-0.4-1.3c-0.3-0.3-0.7-0.6-1.3-0.8l-2.5-1C147.4,215.7,147,216.1,146.8,216.5z"/>
				</g>
			</g>
		</g>
		<g>
			<polygon class="st2" points="51,24 37.7,40.2 51,56.6 64.6,40.3 			"/>
		</g>
		<g>
			<polygon class="st2" points="83.3,56.5 70,72.6 83.3,89 96.9,72.7 			"/>
		</g>
		<g>
			<polygon class="st2" points="83.3,140.9 70,157.1 83.3,173.5 96.9,157.2 			"/>
		</g>
		<g>
			<polygon class="st2" points="51,173.6 37.7,189.7 51,206.1 64.6,189.9 			"/>
		</g>
		<g>
			<polygon class="st2" points="51,98.8 37.7,115 51,131.4 64.6,115.1 			"/>
		</g>
		<g>
			<polygon class="st2" points="115.6,24 102.3,40.2 115.6,56.6 129.3,40.3 			"/>
		</g>
		<g>
			<polygon class="st2" points="115.6,173.6 102.3,189.7 115.6,206.1 129.3,189.9 			"/>
		</g>
		<g>
			<polygon class="st2" points="115.6,98.8 102.3,115 115.6,131.4 129.3,115.1 			"/>
		</g>
	</g>
</g>
</svg>
