<?xml version="1.0" encoding="utf-8"?>
<!-- Generator: Adobe Illustrator 25.0.0, SVG Export Plug-In . SVG Version: 6.00 Build 0)  -->
<svg version="1.1" id="Ebene_1" xmlns="http://www.w3.org/2000/svg" xmlns:xlink="http://www.w3.org/1999/xlink" x="0px" y="0px"
	 viewBox="0 0 167 234" style="enable-background:new 0 0 167 234;" xml:space="preserve">
<style type="text/css">
	.st0{fill:#FFFFFF;}
	.st1{fill:#161616;}
	.st2{fill:#CC0601;}
	.st3{fill:#CD0902;}
</style>
<g>
	<g>
		<g>
			<path class="st0" d="M160.7,233.4H6.3c-3.3,0-5.9-2.7-5.9-5.9V6.5c0-3.3,2.7-5.9,5.9-5.9h154.4c3.3,0,5.9,2.7,5.9,5.9v221
				C166.6,230.8,164,233.4,160.7,233.4z"/>
			<path class="st1" d="M160.7,233.5H6.3c-3.3,0-6.1-2.7-6.1-6.1V6.5c0-3.3,2.7-6.1,6.1-6.1h154.4c3.3,0,6.1,2.7,6.1,6.1v221
				C166.7,230.8,164,233.5,160.7,233.5z M6.3,0.7c-3.2,0-5.8,2.6-5.8,5.8v221c0,3.2,2.6,5.8,5.8,5.8h154.4c3.2,0,5.8-2.6,5.8-5.8
				V6.5c0-3.2-2.6-5.8-5.8-5.8H6.3z"/>
		</g>
	</g>
	<g>
		<circle class="st0" cx="148.8" cy="18.9" r="0.6"/>
	</g>
	<g>
		<circle class="st0" cx="121.7" cy="18.9" r="0.6"/>
	</g>
	<g>
		<circle class="st0" cx="96.7" cy="18.9" r="0.6"/>
	</g>
	<g>
		<path class="st0" d="M72.3,19.1c0,0.3-0.3,0.6-0.6,0.6c-0.3,0-0.6-0.3-0.6-0.6c0-0.3,0.3-0.6,0.6-0.6C72,18.6,72.3,18.8,72.3,19.1
			z"/>
	</g>
	<g>
		<circle class="st0" cx="148.8" cy="40.1" r="0.6"/>
	</g>
	<g>
		<circle class="st0" cx="148.8" cy="59.4" r="0.6"/>
	</g>
	<g>
		<circle class="st0" cx="148.8" cy="79.6" r="0.6"/>
	</g>
	<g>
		<circle class="st0" cx="148.8" cy="92.4" r="0.6"/>
	</g>
	<g>
		<circle class="st0" cx="148.8" cy="105.2" r="0.6"/>
	</g>
	<g>
		<circle class="st0" cx="18.6" cy="19.5" r="0.6"/>
	</g>
	<g>
		<circle class="st0" cx="46" cy="19.1" r="0.6"/>
	</g>
	<g>
		<circle class="st0" cx="18.6" cy="39.6" r="0.6"/>
	</g>
	<g>
		<circle class="st0" cx="18.6" cy="59.5" r="0.6"/>
	</g>
	<g>
		<circle class="st0" cx="18.6" cy="79.4" r="0.6"/>
	</g>
	<g>
		<circle class="st0" cx="18.6" cy="92.4" r="0.6"/>
	</g>
	<g>
		<circle class="st0" cx="18.6" cy="105.8" r="0.6"/>
	</g>
	<g>
		<circle class="st0" cx="18.6" cy="118.7" r="0.6"/>
	</g>
	<g>
		<circle class="st0" cx="18.6" cy="131.6" r="0.6"/>
	</g>
	<g>
		<circle class="st0" cx="18.6" cy="145" r="0.6"/>
	</g>
	<g>
		<circle class="st0" cx="18.6" cy="158.4" r="0.6"/>
	</g>
	<g>
		<circle class="st0" cx="18.6" cy="170.4" r="0.6"/>
	</g>
	<g>
		<circle class="st0" cx="18.6" cy="183.8" r="0.6"/>
	</g>
	<g>
		<circle class="st0" cx="18.6" cy="196.9" r="0.6"/>
	</g>
	<g>
		<circle class="st0" cx="18.8" cy="216" r="0.6"/>
	</g>
	<g>
		<path class="st0" d="M39.9,216.6c0,0.3-0.3,0.6-0.6,0.6c-0.3,0-0.6-0.3-0.6-0.6s0.3-0.6,0.6-0.6C39.6,216,39.9,216.3,39.9,216.6z"
			/>
	</g>
	<g>
		<circle class="st0" cx="65.8" cy="216.6" r="0.6"/>
	</g>
	<g>
		<circle class="st0" cx="92.1" cy="216.6" r="0.6"/>
	</g>
	<g>
		<path class="st0" d="M118.4,216.6c0,0.3-0.3,0.6-0.6,0.6c-0.3,0-0.6-0.3-0.6-0.6s0.3-0.6,0.6-0.6
			C118.2,216,118.4,216.3,118.4,216.6z"/>
	</g>
	<g>
		<circle class="st0" cx="148.8" cy="118.4" r="0.6"/>
	</g>
	<g>
		<circle class="st0" cx="148.8" cy="130.7" r="0.6"/>
	</g>
	<g>
		<circle class="st0" cx="148.8" cy="144" r="0.6"/>
	</g>
	<g>
		<circle class="st0" cx="148.8" cy="157.1" r="0.6"/>
	</g>
	<g>
		<circle class="st0" cx="148.8" cy="169.8" r="0.6"/>
	</g>
	<g>
		<circle class="st0" cx="148.8" cy="182.4" r="0.6"/>
	</g>
	<g>
		<circle class="st0" cx="148.8" cy="195.2" r="0.6"/>
	</g>
	<g>
		<path class="st0" d="M149.4,214.8c0,0.3-0.3,0.6-0.6,0.6s-0.6-0.3-0.6-0.6c0-0.3,0.3-0.6,0.6-0.6S149.4,214.5,149.4,214.8z"/>
	</g>
	<g>
		<g>
			<polygon class="st2" points="148.5,193.5 143.8,198.7 148,204.4 152.9,199.2 			"/>
		</g>
		<g>
			<polygon class="st2" points="15.6,30.5 10.9,35.7 15.1,41.5 20,36.2 			"/>
		</g>
		<g>
			<g>
				<g>
					<g>
						<path class="st3" d="M13,25.4c-0.2-0.2-0.3-0.5-0.4-0.8s-0.1-0.5-0.1-0.8c0-0.5,0.2-0.8,0.5-1.1c0.2-0.2,0.5-0.3,0.8-0.3
							c0.3,0,0.5,0.1,0.7,0.3c0.1,0.1,0.1,0.2,0.1,0.3c0,0.1,0,0.2,0,0.3c0,0.2-0.1,0.4-0.3,0.6c-0.1,0.1-0.2,0.2-0.4,0.3
							c-0.1,0.1-0.2,0.2-0.2,0.2c0,0.1-0.1,0.2-0.1,0.3c0,0.2,0.1,0.4,0.4,0.6c0.3,0.2,0.7,0.3,1.2,0.3c0.5,0,0.9-0.1,1.3-0.4
							c0.4-0.3,0.8-0.7,1.1-1.4c0.2-0.5,0.4-1.1,0.5-1.8c0.1-0.7,0.2-1.3,0.2-1.8v-0.9l-0.1-0.1c-0.2,0.5-0.6,0.9-1.1,1.2
							c-0.5,0.3-1,0.5-1.4,0.5c-0.9,0-1.6-0.2-2.2-0.6c-0.5-0.4-0.9-0.8-1.2-1.5c-0.3-0.6-0.4-1.3-0.4-2c0-0.7,0.2-1.4,0.5-2.1
							c0.3-0.7,0.8-1.3,1.4-1.8c0.6-0.5,1.3-0.7,2.1-0.7c0.8,0,1.6,0.3,2.2,0.8c0.6,0.5,1.1,1.3,1.5,2.2c0.3,1,0.5,2.1,0.5,3.4
							c0,1.1-0.1,2.1-0.4,3.1c-0.3,1-0.7,1.9-1.2,2.5c-0.9,1.2-2.1,1.8-3.3,1.8C14.3,26.3,13.5,26,13,25.4z M16.9,19.9
							c0.4-0.3,0.6-0.7,0.9-1.3c0.2-0.5,0.3-1.2,0.3-1.9c0-1.1-0.2-2-0.5-2.6c-0.3-0.7-0.9-1-1.7-1c-0.8,0-1.4,0.4-1.7,1.1
							c-0.4,0.7-0.5,1.6-0.5,2.6c0,1,0.2,1.9,0.5,2.6c0.3,0.7,0.8,1,1.6,1C16.1,20.4,16.5,20.2,16.9,19.9z"/>
					</g>
				</g>
			</g>
		</g>
		<g>
			<g>
				<g>
					<g>
						<path class="st2" d="M151.2,208.8c0.2,0.2,0.3,0.5,0.4,0.8c0.1,0.3,0.1,0.5,0.1,0.8c0,0.5-0.2,0.8-0.5,1.1
							c-0.2,0.2-0.5,0.3-0.8,0.3c-0.3,0-0.5-0.1-0.7-0.3c-0.1-0.1-0.1-0.2-0.1-0.3c0-0.1,0-0.2,0-0.3c0-0.2,0.1-0.4,0.3-0.6
							c0.1-0.1,0.2-0.2,0.4-0.3c0.1-0.1,0.2-0.2,0.2-0.2c0-0.1,0.1-0.2,0.1-0.3c0-0.2-0.1-0.4-0.4-0.6c-0.3-0.2-0.7-0.3-1.2-0.3
							c-0.5,0-0.9,0.1-1.3,0.4c-0.4,0.3-0.8,0.7-1.1,1.4c-0.2,0.5-0.4,1.1-0.5,1.8c-0.1,0.7-0.2,1.3-0.2,1.8v0.9l0.1,0.1
							c0.2-0.5,0.6-0.9,1.1-1.2c0.5-0.3,1-0.5,1.4-0.5c0.9,0,1.6,0.2,2.2,0.6c0.5,0.4,0.9,0.9,1.2,1.5c0.3,0.6,0.4,1.3,0.4,2
							c0,0.7-0.2,1.4-0.5,2.1c-0.3,0.7-0.8,1.3-1.4,1.8c-0.6,0.5-1.3,0.7-2.1,0.7c-0.8,0-1.6-0.3-2.2-0.8c-0.6-0.5-1.1-1.3-1.5-2.2
							c-0.3-1-0.5-2.1-0.5-3.4c0-1.1,0.1-2.1,0.4-3.1c0.3-1,0.7-1.9,1.2-2.5c0.9-1.2,2.1-1.8,3.3-1.8
							C149.9,207.9,150.7,208.2,151.2,208.8z M147.3,214.3c-0.4,0.3-0.6,0.7-0.9,1.3c-0.2,0.5-0.3,1.2-0.3,1.9c0,1.1,0.2,2,0.5,2.6
							c0.3,0.7,0.9,1,1.7,1c0.8,0,1.4-0.4,1.7-1.1c0.4-0.7,0.5-1.6,0.5-2.6c0-1-0.2-1.9-0.5-2.6c-0.3-0.7-0.8-1-1.6-1
							C148.1,213.9,147.7,214,147.3,214.3z"/>
					</g>
				</g>
			</g>
		</g>
		<g>
			<polygon class="st2" points="48.9,25.4 35.6,41.5 48.9,57.9 62.5,41.7 			"/>
		</g>
		<g>
			<polygon class="st2" points="83.6,102.3 70.4,118.5 83.6,134.9 97.3,118.6 			"/>
		</g>
		<g>
			<polygon class="st2" points="48.9,75.2 35.6,91.4 48.9,107.8 62.5,91.5 			"/>
		</g>
		<g>
			<polygon class="st2" points="48.9,125.1 35.6,141.2 48.9,157.6 62.5,141.4 			"/>
		</g>
		<g>
			<polygon class="st2" points="48.9,174.9 35.6,191.1 48.9,207.5 62.5,191.2 			"/>
		</g>
		<g>
			<polygon class="st2" points="118.2,25.4 104.9,41.5 118.2,57.9 131.8,41.7 			"/>
		</g>
		<g>
			<polygon class="st2" points="118.2,75.2 104.9,91.4 118.2,107.8 131.8,91.5 			"/>
		</g>
		<g>
			<polygon class="st2" points="118.2,125.1 104.9,141.2 118.2,157.6 131.8,141.4 			"/>
		</g>
		<g>
			<polygon class="st2" points="118.2,174.9 104.9,191.1 118.2,207.5 131.8,191.2 			"/>
		</g>
	</g>
</g>
</svg>
