<?xml version="1.0" encoding="utf-8"?>
<!-- Generator: Adobe Illustrator 25.0.0, SVG Export Plug-In . SVG Version: 6.00 Build 0)  -->
<svg version="1.1" id="Ebene_1" xmlns="http://www.w3.org/2000/svg" xmlns:xlink="http://www.w3.org/1999/xlink" x="0px" y="0px"
	 viewBox="0 0 167 234" style="enable-background:new 0 0 167 234;" xml:space="preserve">
<style type="text/css">
	.st0{fill:#FFFFFF;}
	.st1{fill:#161616;}
	.st2{fill:#CC0601;}
	.st3{fill:#CD0902;}
</style>
<g>
	<g>
		<g>
			<path class="st0" d="M160.69,233.42H6.31c-3.28,0-5.94-2.66-5.94-5.94V6.52c0-3.28,2.66-5.94,5.94-5.94h154.38
				c3.28,0,5.94,2.66,5.94,5.94v220.96C166.63,230.76,163.97,233.42,160.69,233.42z"/>
			<path class="st1" d="M160.69,233.53H6.31c-3.34,0-6.05-2.71-6.05-6.05V6.52c0-3.34,2.71-6.05,6.05-6.05h154.38
				c3.34,0,6.05,2.72,6.05,6.05v220.96C166.74,230.82,164.03,233.53,160.69,233.53z M6.31,0.7c-3.21,0-5.82,2.61-5.82,5.82v220.96
				c0,3.21,2.61,5.82,5.82,5.82h154.38c3.21,0,5.82-2.61,5.82-5.82V6.52c0-3.21-2.61-5.82-5.82-5.82H6.31z"/>
		</g>
	</g>
	<g>
		<circle class="st0" cx="148.79" cy="18.94" r="0.57"/>
	</g>
	<g>
		<circle class="st0" cx="121.68" cy="18.94" r="0.57"/>
	</g>
	<g>
		<circle class="st0" cx="96.74" cy="18.94" r="0.57"/>
	</g>
	<g>
		<circle class="st0" cx="71.71" cy="19.12" r="0.57"/>
	</g>
	<g>
		<circle class="st0" cx="148.79" cy="40.08" r="0.57"/>
	</g>
	<g>
		<circle class="st0" cx="148.79" cy="59.36" r="0.57"/>
	</g>
	<g>
		<circle class="st0" cx="148.79" cy="79.58" r="0.57"/>
	</g>
	<g>
		<circle class="st0" cx="148.79" cy="92.36" r="0.57"/>
	</g>
	<g>
		<circle class="st0" cx="148.79" cy="105.18" r="0.57"/>
	</g>
	<g>
		<circle class="st0" cx="18.58" cy="19.51" r="0.57"/>
	</g>
	<g>
		<path class="st0" d="M46.57,19.12c0,0.31-0.25,0.57-0.57,0.57c-0.31,0-0.57-0.25-0.57-0.57c0-0.31,0.25-0.57,0.57-0.57
			C46.31,18.56,46.57,18.81,46.57,19.12z"/>
	</g>
	<g>
		<circle class="st0" cx="18.58" cy="39.63" r="0.57"/>
	</g>
	<g>
		<circle class="st0" cx="18.58" cy="59.49" r="0.57"/>
	</g>
	<g>
		<circle class="st0" cx="18.58" cy="79.43" r="0.57"/>
	</g>
	<g>
		<circle class="st0" cx="18.58" cy="92.36" r="0.57"/>
	</g>
	<g>
		<circle class="st0" cx="18.58" cy="105.75" r="0.57"/>
	</g>
	<g>
		<circle class="st0" cx="18.58" cy="118.68" r="0.57"/>
	</g>
	<g>
		<circle class="st0" cx="18.58" cy="131.6" r="0.57"/>
	</g>
	<g>
		<circle class="st0" cx="18.58" cy="144.99" r="0.57"/>
	</g>
	<g>
		<circle class="st0" cx="18.58" cy="158.42" r="0.57"/>
	</g>
	<g>
		<circle class="st0" cx="18.58" cy="170.42" r="0.57"/>
	</g>
	<g>
		<path class="st0" d="M19.15,183.81c0,0.31-0.25,0.57-0.57,0.57c-0.31,0-0.57-0.25-0.57-0.57c0-0.31,0.25-0.57,0.57-0.57
			C18.89,183.24,19.15,183.5,19.15,183.81z"/>
	</g>
	<g>
		<circle class="st0" cx="18.58" cy="196.85" r="0.57"/>
	</g>
	<g>
		<circle class="st0" cx="18.81" cy="216.03" r="0.57"/>
	</g>
	<g>
		<circle class="st0" cx="39.32" cy="216.6" r="0.57"/>
	</g>
	<g>
		<path class="st0" d="M66.32,216.6c0,0.31-0.25,0.57-0.57,0.57c-0.31,0-0.57-0.25-0.57-0.57c0-0.31,0.25-0.57,0.57-0.57
			C66.07,216.03,66.32,216.29,66.32,216.6z"/>
	</g>
	<g>
		<circle class="st0" cx="92.14" cy="216.6" r="0.57"/>
	</g>
	<g>
		<circle class="st0" cx="117.85" cy="216.6" r="0.57"/>
	</g>
	<g>
		<circle class="st0" cx="148.79" cy="118.36" r="0.57"/>
	</g>
	<g>
		<circle class="st0" cx="148.79" cy="130.69" r="0.57"/>
	</g>
	<g>
		<circle class="st0" cx="148.79" cy="143.98" r="0.57"/>
	</g>
	<g>
		<circle class="st0" cx="148.79" cy="157.08" r="0.57"/>
	</g>
	<g>
		<circle class="st0" cx="148.79" cy="169.83" r="0.57"/>
	</g>
	<g>
		<circle class="st0" cx="148.79" cy="182.4" r="0.57"/>
	</g>
	<g>
		<circle class="st0" cx="148.79" cy="195.24" r="0.57"/>
	</g>
	<g>
		<circle class="st0" cx="148.79" cy="214.8" r="0.57"/>
	</g>
	<g>
		<g>
			<polygon class="st2" points="80.59,86.7 55.86,116.75 80.59,147.27 105.97,116.99 			"/>
		</g>
		<g>
			<polygon class="st2" points="18.32,26.44 13.6,31.65 17.81,37.38 22.65,32.12 			"/>
		</g>
		<g>
			<polygon class="st2" points="147.83,186.22 143.11,191.44 147.32,197.16 152.16,191.91 			"/>
		</g>
		<g>
			<g>
				<g>
					<path class="st3" d="M11.62,21.16h0.72c0.76,0,1.32-0.47,1.67-1.42l4.17-11.78h0.48l4.21,12.34c0.13,0.32,0.28,0.55,0.47,0.67
						c0.18,0.12,0.41,0.18,0.7,0.18h1.09v0.62h-6.01v-0.62h1.28c0.19,0,0.36-0.05,0.48-0.15c0.13-0.1,0.19-0.21,0.19-0.34
						c0-0.17-0.03-0.31-0.08-0.43l-0.91-2.58h-4.54l-0.47,1.3c-0.18,0.52-0.27,0.89-0.27,1.13c0,0.28,0.07,0.53,0.21,0.75
						c0.14,0.21,0.39,0.32,0.74,0.32h1.18v0.62h-5.31V21.16z M15.75,17.05h4.11l-2.02-5.92L15.75,17.05z"/>
				</g>
			</g>
		</g>
		<g>
			<g>
				<g>
					<path class="st2" d="M140.01,202.01h5.31v0.62h-1.18c-0.35,0-0.59,0.11-0.74,0.32c-0.14,0.21-0.21,0.46-0.21,0.75
						c0,0.23,0.09,0.61,0.27,1.13l0.47,1.3h4.54l0.91-2.58c0.05-0.12,0.08-0.26,0.08-0.43c0-0.13-0.06-0.24-0.19-0.34
						c-0.13-0.1-0.29-0.15-0.48-0.15h-1.28v-0.62h6.01v0.62h-1.09c-0.28,0-0.52,0.06-0.7,0.18c-0.18,0.12-0.34,0.35-0.47,0.67
						l-4.21,12.34h-0.49l-4.17-11.78c-0.35-0.94-0.9-1.42-1.67-1.42h-0.72V202.01z M146.23,212.66l2.02-5.92h-4.11L146.23,212.66z"
						/>
				</g>
			</g>
		</g>
	</g>
</g>
</svg>
