<?xml version="1.0" encoding="utf-8"?>
<!-- Generator: Adobe Illustrator 25.0.0, SVG Export Plug-In . SVG Version: 6.00 Build 0)  -->
<svg version="1.1" id="Ebene_1" xmlns="http://www.w3.org/2000/svg" xmlns:xlink="http://www.w3.org/1999/xlink" x="0px" y="0px"
	 viewBox="0 0 167 234" style="enable-background:new 0 0 167 234;" xml:space="preserve">
<style type="text/css">
	.st0{fill:#FFFFFF;}
	.st1{fill:#161616;}
	.st2{fill:#0D0D0D;}
</style>
<g>
	<g>
		<g>
			<path class="st0" d="M160.7,233.4H6.3c-3.3,0-5.9-2.7-5.9-5.9V6.5c0-3.3,2.7-5.9,5.9-5.9h154.5c3.3,0,5.9,2.7,5.9,5.9v221
				C166.7,230.8,164,233.4,160.7,233.4z"/>
			<path class="st1" d="M160.7,233.6H6.3c-3.3,0-6.1-2.7-6.1-6.1V6.5c0-3.3,2.7-6.1,6.1-6.1h154.5c3.3,0,6.1,2.7,6.1,6.1v221
				C166.8,230.8,164.1,233.6,160.7,233.6z M6.3,0.7C3,0.7,0.4,3.3,0.4,6.5v221c0,3.2,2.6,5.8,5.8,5.8h154.5c3.2,0,5.8-2.6,5.8-5.8
				V6.5c0-3.2-2.6-5.8-5.8-5.8H6.3z"/>
		</g>
	</g>
	<g>
		<g>
			<path class="st2" d="M22.9,31.8c-1.1-1.2-2.3-2.3-2.8-2.9c-0.4-0.4-0.7-0.8-0.8-0.9v-0.1c0,0,0,0,0,0c0,0,0,0,0,0V28
				c-0.1,0.1-0.4,0.5-0.8,0.9c-0.5,0.6-1.8,1.7-2.8,2.9c-1.1,1.2-1.2,2.3-1,3.3c0.2,1,1.2,1.9,2.8,1.7c0.5-0.1,0.9-0.3,1.1-0.6
				c-0.2,1.4-0.9,2.1-0.9,2.1h3.1c-0.6-0.6-0.8-1.5-0.8-2.1c0.3,0.3,0.6,0.5,1.1,0.6c1.6,0.2,2.6-0.7,2.8-1.7
				C24,34.1,24,33,22.9,31.8z"/>
		</g>
		<g>
			<g>
				<g>
					<path d="M15.9,24.1c-0.7-0.4-1-1.1-1-2c0-0.5,0.1-0.9,0.4-1.2c0.3-0.3,0.6-0.5,1.1-0.5c0.4,0,0.7,0.1,0.9,0.3
						c0.2,0.2,0.3,0.5,0.3,0.8c0,0.3-0.1,0.5-0.2,0.7c-0.2,0.2-0.4,0.3-0.6,0.3c-0.5,0-0.7,0.1-0.7,0.3c0,0.8,0.8,1.2,2.4,1.2
						c0.9,0,1.6-0.3,2-1c0.4-0.6,0.6-1.4,0.6-2.3c0-1-0.2-1.8-0.7-2.3c-0.4-0.5-1-0.8-1.6-0.8c-0.2,0-0.4,0-0.5,0
						c-0.1,0-0.3,0.1-0.5,0.1c-0.4,0.1-0.8,0.2-1,0.2c-0.2,0-0.4,0-0.5-0.1c-0.1-0.1-0.2-0.2-0.2-0.4c0-0.2,0.1-0.3,0.2-0.4
						c0.1-0.1,0.3-0.1,0.5-0.1c0.2,0,0.5,0,0.9,0.1c0.3,0,0.6,0.1,1.1,0.1c0.6,0,1.1-0.3,1.4-0.8c0.3-0.6,0.5-1.2,0.5-1.9
						c0-0.8-0.2-1.5-0.6-2.1c-0.4-0.6-1-0.8-1.7-0.8c-0.8,0-1.3,0.1-1.6,0.4c-0.3,0.2-0.5,0.5-0.5,0.8c0,0.1,0,0.2,0.1,0.4
						c0.1,0.1,0.2,0.2,0.4,0.3c0.5,0.2,0.7,0.5,0.7,1c0,0.3-0.1,0.5-0.3,0.7c-0.2,0.2-0.4,0.3-0.8,0.3c-0.4,0-0.7-0.2-1-0.5
						c-0.3-0.3-0.4-0.7-0.4-1.1c0-0.9,0.3-1.6,1-2.1c0.7-0.5,1.5-0.7,2.5-0.7c1.2,0,2.1,0.3,2.8,0.9c0.7,0.6,1.1,1.5,1.1,2.5
						c0,0.5-0.1,1-0.4,1.4c-0.3,0.4-0.6,0.8-1,1c-0.4,0.3-0.8,0.4-1.2,0.5v0.2c0.4,0.1,0.9,0.3,1.3,0.6c0.5,0.3,0.9,0.7,1.2,1.2
						c0.3,0.5,0.5,1.1,0.5,1.7c0,0.8-0.2,1.5-0.6,2.1c-0.4,0.6-1,1-1.7,1.4c-0.7,0.3-1.5,0.5-2.4,0.5C17.4,24.8,16.5,24.6,15.9,24.1
						z"/>
				</g>
			</g>
		</g>
		<g>
			<g>
				<g>
					<path d="M153.6,205.1c0.7,0.4,1,1.1,1,2c0,0.5-0.1,0.9-0.4,1.2c-0.3,0.3-0.6,0.5-1.1,0.5c-0.4,0-0.7-0.1-0.9-0.3
						c-0.2-0.2-0.3-0.5-0.3-0.8c0-0.3,0.1-0.5,0.2-0.7c0.2-0.2,0.4-0.3,0.6-0.3c0.5,0,0.7-0.1,0.7-0.3c0-0.8-0.8-1.2-2.4-1.2
						c-0.9,0-1.6,0.3-2,1c-0.4,0.6-0.6,1.4-0.6,2.3c0,1,0.2,1.8,0.7,2.3c0.4,0.5,1,0.8,1.6,0.8c0.2,0,0.4,0,0.5,0
						c0.1,0,0.3-0.1,0.5-0.1c0.4-0.1,0.8-0.2,1-0.2c0.2,0,0.4,0,0.5,0.1c0.1,0.1,0.2,0.2,0.2,0.4c0,0.2-0.1,0.3-0.2,0.4
						c-0.1,0.1-0.3,0.1-0.5,0.1c-0.2,0-0.5,0-0.9-0.1c-0.3,0-0.6-0.1-1.1-0.1c-0.6,0-1.1,0.3-1.4,0.8c-0.3,0.6-0.5,1.2-0.5,1.9
						c0,0.8,0.2,1.5,0.6,2.1c0.4,0.6,1,0.8,1.7,0.8c0.8,0,1.3-0.1,1.6-0.4c0.3-0.2,0.5-0.5,0.5-0.8c0-0.1,0-0.2-0.1-0.4
						c-0.1-0.1-0.2-0.2-0.4-0.3c-0.5-0.2-0.7-0.5-0.7-1c0-0.3,0.1-0.5,0.3-0.7c0.2-0.2,0.4-0.3,0.8-0.3c0.4,0,0.7,0.2,1,0.5
						c0.3,0.3,0.4,0.7,0.4,1.1c0,0.9-0.3,1.6-1,2.1c-0.7,0.5-1.5,0.7-2.5,0.7c-1.2,0-2.1-0.3-2.8-0.9c-0.7-0.6-1.1-1.5-1.1-2.5
						c0-0.5,0.1-1,0.4-1.4c0.3-0.4,0.6-0.8,1-1c0.4-0.3,0.8-0.4,1.2-0.5v-0.2c-0.4-0.1-0.9-0.3-1.3-0.6c-0.5-0.3-0.9-0.7-1.2-1.2
						c-0.3-0.5-0.5-1.1-0.5-1.7c0-0.8,0.2-1.5,0.6-2.1c0.4-0.6,1-1,1.7-1.4c0.7-0.3,1.5-0.5,2.4-0.5
						C152,204.4,152.9,204.7,153.6,205.1z"/>
				</g>
			</g>
		</g>
		<g>
			<path class="st2" d="M97.3,35.8c-3.7-4-7.9-7.9-9.7-10c-1.3-1.5-2.3-2.7-2.7-3.2v-0.3c0,0,0,0-0.1,0.1c-0.1-0.1-0.1-0.1-0.1-0.1
				v0.3c-0.4,0.5-1.3,1.7-2.7,3.2c-1.8,2.1-6.1,6-9.7,10c-3.7,4-4,8-3.3,11.3c0.7,3.3,4.2,6.5,9.6,5.8c1.7-0.2,3-1,3.9-2.1
				c-0.6,4.7-3.2,7.2-3.2,7.2H90c-1.9-2.2-2.6-5.2-2.9-7.1c0.9,1,2.2,1.8,3.9,2c5.5,0.7,8.9-2.4,9.6-5.8S101,39.8,97.3,35.8z"/>
		</g>
		<g>
			<path class="st2" d="M97.3,112.3c-3.7-4-7.9-7.9-9.7-10c-1.3-1.5-2.3-2.7-2.7-3.2v-0.3c0,0,0,0-0.1,0.1c-0.1-0.1-0.1-0.1-0.1-0.1
				v0.3c-0.4,0.5-1.3,1.7-2.7,3.2c-1.8,2.1-6.1,6-9.7,10c-3.7,4-4,8-3.3,11.3c0.7,3.3,4.2,6.5,9.6,5.8c1.7-0.2,3-1,3.9-2.1
				c-0.6,4.7-3.2,7.2-3.2,7.2H90c-1.9-2.2-2.6-5.2-2.9-7.1c0.9,1,2.2,1.8,3.9,2c5.5,0.7,8.9-2.4,9.6-5.8
				C101.3,120.4,101,116.4,97.3,112.3z"/>
		</g>
		<g>
			<path class="st2" d="M97.3,195.2c-3.7,4-7.9,7.9-9.7,10c-1.3,1.5-2.3,2.7-2.7,3.2v0.3c0,0,0,0-0.1-0.1c-0.1,0.1-0.1,0.1-0.1,0.1
				v-0.3c-0.4-0.5-1.3-1.7-2.7-3.2c-1.8-2.1-6.1-6-9.7-10c-3.7-4-4-8-3.3-11.3c0.7-3.3,4.2-6.5,9.6-5.8c1.7,0.2,3,1,3.9,2.1
				c-0.6-4.7-3.2-7.2-3.2-7.2H90c-1.9,2.2-2.6,5.2-2.9,7.1c0.9-1,2.2-1.8,3.9-2c5.5-0.7,8.9,2.4,9.6,5.8
				C101.3,187.2,101,191.2,97.3,195.2z"/>
		</g>
		<g>
			<path class="st2" d="M153.2,197.9c-1.1,1.2-2.3,2.3-2.8,2.9c-0.4,0.4-0.7,0.8-0.8,0.9v0.1c0,0,0,0,0,0c0,0,0,0,0,0v-0.1
				c-0.1-0.1-0.4-0.5-0.8-0.9c-0.5-0.6-1.8-1.7-2.8-2.9c-1.1-1.2-1.2-2.3-1-3.3c0.2-1,1.2-1.9,2.8-1.7c0.5,0.1,0.9,0.3,1.1,0.6
				c-0.2-1.4-0.9-2.1-0.9-2.1h3.1c-0.6,0.6-0.8,1.5-0.8,2.1c0.3-0.3,0.6-0.5,1.1-0.6c1.6-0.2,2.6,0.7,2.8,1.7
				C154.4,195.6,154.3,196.8,153.2,197.9z"/>
		</g>
	</g>
</g>
</svg>
