<?xml version="1.0" encoding="utf-8"?>
<!-- Generator: Adobe Illustrator 25.0.0, SVG Export Plug-In . SVG Version: 6.00 Build 0)  -->
<svg version="1.1" id="Ebene_1" xmlns="http://www.w3.org/2000/svg" xmlns:xlink="http://www.w3.org/1999/xlink" x="0px" y="0px"
	 viewBox="0 0 167 234" style="enable-background:new 0 0 167 234;" xml:space="preserve">
<style type="text/css">
	.st0{fill:#FFFFFF;}
	.st1{fill:#161616;}
	.st2{fill:#0D0D0D;}
</style>
<g>
	<g>
		<g>
			<path class="st0" d="M160.7,233.4H6.3c-3.3,0-5.9-2.7-5.9-5.9V6.5c0-3.3,2.7-5.9,5.9-5.9h154.5c3.3,0,5.9,2.7,5.9,5.9v221
				C166.7,230.8,164,233.4,160.7,233.4z"/>
			<path class="st1" d="M160.7,233.6H6.3c-3.3,0-6.1-2.7-6.1-6.1V6.5c0-3.3,2.7-6.1,6.1-6.1h154.5c3.3,0,6.1,2.7,6.1,6.1v221
				C166.8,230.8,164.1,233.6,160.7,233.6z M6.3,0.7C3,0.7,0.4,3.3,0.4,6.5v221c0,3.2,2.6,5.8,5.8,5.8h154.5c3.2,0,5.8-2.6,5.8-5.8
				V6.5c0-3.2-2.6-5.8-5.8-5.8H6.3z"/>
		</g>
	</g>
	<g>
		<path class="st0" d="M149.4,18.9c0,0.3-0.3,0.6-0.6,0.6c-0.3,0-0.6-0.3-0.6-0.6s0.3-0.6,0.6-0.6C149.1,18.3,149.4,18.6,149.4,18.9
			z"/>
	</g>
	<g>
		<path class="st0" d="M122.3,18.9c0,0.3-0.3,0.6-0.6,0.6c-0.3,0-0.6-0.3-0.6-0.6s0.3-0.6,0.6-0.6C122,18.3,122.3,18.6,122.3,18.9z"
			/>
	</g>
	<g>
		<path class="st0" d="M97.3,18.9c0,0.3-0.3,0.6-0.6,0.6c-0.3,0-0.6-0.3-0.6-0.6s0.3-0.6,0.6-0.6C97.1,18.3,97.3,18.6,97.3,18.9z"/>
	</g>
	<g>
		<path class="st0" d="M72.3,19.1c0,0.3-0.3,0.6-0.6,0.6c-0.3,0-0.6-0.3-0.6-0.6c0-0.3,0.3-0.6,0.6-0.6C72,18.5,72.3,18.8,72.3,19.1
			z"/>
	</g>
	<g>
		<path class="st0" d="M149.4,40.1c0,0.3-0.3,0.6-0.6,0.6c-0.3,0-0.6-0.3-0.6-0.6c0-0.3,0.3-0.6,0.6-0.6
			C149.1,39.5,149.4,39.7,149.4,40.1z"/>
	</g>
	<g>
		<path class="st0" d="M149.4,59.3c0,0.3-0.3,0.6-0.6,0.6c-0.3,0-0.6-0.3-0.6-0.6s0.3-0.6,0.6-0.6C149.1,58.8,149.4,59,149.4,59.3z"
			/>
	</g>
	<g>
		<path class="st0" d="M149.4,79.6c0,0.3-0.3,0.6-0.6,0.6c-0.3,0-0.6-0.3-0.6-0.6s0.3-0.6,0.6-0.6C149.1,79,149.4,79.3,149.4,79.6z"
			/>
	</g>
	<g>
		<path class="st0" d="M149.4,92.3c0,0.3-0.3,0.6-0.6,0.6c-0.3,0-0.6-0.3-0.6-0.6c0-0.3,0.3-0.6,0.6-0.6
			C149.1,91.8,149.4,92,149.4,92.3z"/>
	</g>
	<g>
		<path class="st0" d="M149.4,105.2c0,0.3-0.3,0.6-0.6,0.6c-0.3,0-0.6-0.3-0.6-0.6s0.3-0.6,0.6-0.6
			C149.1,104.6,149.4,104.9,149.4,105.2z"/>
	</g>
	<g>
		<path class="st0" d="M19.1,19.5c0,0.3-0.3,0.6-0.6,0.6c-0.3,0-0.6-0.3-0.6-0.6s0.3-0.6,0.6-0.6C18.9,18.9,19.1,19.2,19.1,19.5z"/>
	</g>
	<g>
		<path class="st0" d="M46.5,19.1c0,0.3-0.3,0.6-0.6,0.6c-0.3,0-0.6-0.3-0.6-0.6c0-0.3,0.3-0.6,0.6-0.6
			C46.3,18.5,46.5,18.8,46.5,19.1z"/>
	</g>
	<g>
		<path class="st0" d="M19.1,39.6c0,0.3-0.3,0.6-0.6,0.6c-0.3,0-0.6-0.3-0.6-0.6c0-0.3,0.3-0.6,0.6-0.6C18.9,39,19.1,39.3,19.1,39.6
			z"/>
	</g>
	<g>
		<path class="st0" d="M19.1,59.5c0,0.3-0.3,0.6-0.6,0.6c-0.3,0-0.6-0.3-0.6-0.6c0-0.3,0.3-0.6,0.6-0.6
			C18.9,58.9,19.1,59.2,19.1,59.5z"/>
	</g>
	<g>
		<path class="st0" d="M19.1,79.4c0,0.3-0.3,0.6-0.6,0.6c-0.3,0-0.6-0.3-0.6-0.6c0-0.3,0.3-0.6,0.6-0.6
			C18.9,78.9,19.1,79.1,19.1,79.4z"/>
	</g>
	<g>
		<path class="st0" d="M19.1,92.3c0,0.3-0.3,0.6-0.6,0.6c-0.3,0-0.6-0.3-0.6-0.6c0-0.3,0.3-0.6,0.6-0.6C18.9,91.8,19.1,92,19.1,92.3
			z"/>
	</g>
	<g>
		<path class="st0" d="M19.1,105.7c0,0.3-0.3,0.6-0.6,0.6c-0.3,0-0.6-0.3-0.6-0.6c0-0.3,0.3-0.6,0.6-0.6
			C18.9,105.2,19.1,105.4,19.1,105.7z"/>
	</g>
	<g>
		<path class="st0" d="M19.1,118.7c0,0.3-0.3,0.6-0.6,0.6c-0.3,0-0.6-0.3-0.6-0.6s0.3-0.6,0.6-0.6C18.9,118.1,19.1,118.4,19.1,118.7
			z"/>
	</g>
	<g>
		<path class="st0" d="M19.1,131.6c0,0.3-0.3,0.6-0.6,0.6c-0.3,0-0.6-0.3-0.6-0.6c0-0.3,0.3-0.6,0.6-0.6
			C18.9,131,19.1,131.3,19.1,131.6z"/>
	</g>
	<g>
		<path class="st0" d="M19.1,145c0,0.3-0.3,0.6-0.6,0.6c-0.3,0-0.6-0.3-0.6-0.6c0-0.3,0.3-0.6,0.6-0.6
			C18.9,144.4,19.1,144.7,19.1,145z"/>
	</g>
	<g>
		<path class="st0" d="M19.1,158.4c0,0.3-0.3,0.6-0.6,0.6c-0.3,0-0.6-0.3-0.6-0.6c0-0.3,0.3-0.6,0.6-0.6
			C18.9,157.9,19.1,158.1,19.1,158.4z"/>
	</g>
	<g>
		<path class="st0" d="M19.1,170.4c0,0.3-0.3,0.6-0.6,0.6c-0.3,0-0.6-0.3-0.6-0.6s0.3-0.6,0.6-0.6C18.9,169.9,19.1,170.1,19.1,170.4
			z"/>
	</g>
	<g>
		<path class="st0" d="M19.1,183.8c0,0.3-0.3,0.6-0.6,0.6c-0.3,0-0.6-0.3-0.6-0.6c0-0.3,0.3-0.6,0.6-0.6
			C18.9,183.3,19.1,183.5,19.1,183.8z"/>
	</g>
	<g>
		<path class="st0" d="M19.1,196.9c0,0.3-0.3,0.6-0.6,0.6c-0.3,0-0.6-0.3-0.6-0.6c0-0.3,0.3-0.6,0.6-0.6
			C18.9,196.3,19.1,196.6,19.1,196.9z"/>
	</g>
	<g>
		<path class="st0" d="M19.3,216.1c0,0.3-0.3,0.6-0.6,0.6c-0.3,0-0.6-0.3-0.6-0.6s0.3-0.6,0.6-0.6C19.1,215.5,19.3,215.7,19.3,216.1
			z"/>
	</g>
	<g>
		<path class="st0" d="M39.9,216.6c0,0.3-0.3,0.6-0.6,0.6c-0.3,0-0.6-0.3-0.6-0.6c0-0.3,0.3-0.6,0.6-0.6
			C39.6,216.1,39.9,216.3,39.9,216.6z"/>
	</g>
	<g>
		<path class="st0" d="M66.3,216.6c0,0.3-0.3,0.6-0.6,0.6c-0.3,0-0.6-0.3-0.6-0.6c0-0.3,0.3-0.6,0.6-0.6
			C66.1,216.1,66.3,216.3,66.3,216.6z"/>
	</g>
	<g>
		<path class="st0" d="M92.7,216.6c0,0.3-0.3,0.6-0.6,0.6s-0.6-0.3-0.6-0.6c0-0.3,0.3-0.6,0.6-0.6S92.7,216.3,92.7,216.6z"/>
	</g>
	<g>
		<path class="st0" d="M118.4,216.6c0,0.3-0.3,0.6-0.6,0.6c-0.3,0-0.6-0.3-0.6-0.6c0-0.3,0.3-0.6,0.6-0.6
			C118.2,216.1,118.4,216.3,118.4,216.6z"/>
	</g>
	<g>
		<path class="st0" d="M149.4,118.4c0,0.3-0.3,0.6-0.6,0.6c-0.3,0-0.6-0.3-0.6-0.6c0-0.3,0.3-0.6,0.6-0.6
			C149.1,117.8,149.4,118,149.4,118.4z"/>
	</g>
	<g>
		<path class="st0" d="M149.4,130.7c0,0.3-0.3,0.6-0.6,0.6c-0.3,0-0.6-0.3-0.6-0.6s0.3-0.6,0.6-0.6
			C149.1,130.1,149.4,130.4,149.4,130.7z"/>
	</g>
	<g>
		<path class="st0" d="M149.4,144c0,0.3-0.3,0.6-0.6,0.6c-0.3,0-0.6-0.3-0.6-0.6c0-0.3,0.3-0.6,0.6-0.6
			C149.1,143.4,149.4,143.7,149.4,144z"/>
	</g>
	<g>
		<path class="st0" d="M149.4,157.1c0,0.3-0.3,0.6-0.6,0.6c-0.3,0-0.6-0.3-0.6-0.6c0-0.3,0.3-0.6,0.6-0.6
			C149.1,156.5,149.4,156.8,149.4,157.1z"/>
	</g>
	<g>
		<path class="st0" d="M149.4,169.8c0,0.3-0.3,0.6-0.6,0.6c-0.3,0-0.6-0.3-0.6-0.6c0-0.3,0.3-0.6,0.6-0.6
			C149.1,169.3,149.4,169.5,149.4,169.8z"/>
	</g>
	<g>
		<path class="st0" d="M149.4,182.4c0,0.3-0.3,0.6-0.6,0.6c-0.3,0-0.6-0.3-0.6-0.6s0.3-0.6,0.6-0.6
			C149.1,181.8,149.4,182.1,149.4,182.4z"/>
	</g>
	<g>
		<path class="st0" d="M149.4,195.3c0,0.3-0.3,0.6-0.6,0.6c-0.3,0-0.6-0.3-0.6-0.6c0-0.3,0.3-0.6,0.6-0.6
			C149.1,194.7,149.4,194.9,149.4,195.3z"/>
	</g>
	<g>
		<path class="st0" d="M149.4,214.8c0,0.3-0.3,0.6-0.6,0.6c-0.3,0-0.6-0.3-0.6-0.6c0-0.3,0.3-0.6,0.6-0.6
			C149.1,214.3,149.4,214.5,149.4,214.8z"/>
	</g>
	<g>
		<g>
			<g>
				<g>
					<path d="M14,23.3c-0.5-0.3-0.9-0.6-1.2-1c-0.3-0.4-0.4-0.9-0.4-1.4c0-0.6,0.2-1.1,0.5-1.4c0.3-0.3,0.7-0.5,1.1-0.5
						c0.3,0,0.6,0.1,0.8,0.3c0.2,0.2,0.3,0.5,0.3,0.8c0,0.2-0.1,0.4-0.2,0.6c-0.1,0.2-0.3,0.3-0.5,0.4c-0.2,0.1-0.3,0.2-0.4,0.3
						c-0.1,0.1-0.2,0.2-0.2,0.4c0,0.4,0.2,0.7,0.5,1c0.3,0.2,0.9,0.3,1.6,0.3c1,0,1.6-0.4,2.1-1.2c0.4-0.8,0.6-1.9,0.6-3.1
						c0-1.2-0.2-2.1-0.6-2.7c-0.4-0.6-1.1-1-2-1c-0.4,0-0.7,0.1-1,0.2c-0.3,0.1-0.6,0.3-0.8,0.6c-0.1,0.1-0.2,0.3-0.3,0.5
						c-0.1,0.2-0.1,0.4-0.1,0.6c0,0.1,0,0.3-0.1,0.3c-0.1,0.1-0.2,0.1-0.3,0.1c-0.2,0-0.3-0.2-0.3-0.5v-6.7l0.4-0.3
						c0.3,0.2,0.7,0.4,1.2,0.6c0.5,0.2,1,0.2,1.5,0.2c0.6,0,1.2-0.1,1.7-0.2c0.5-0.1,1-0.3,1.6-0.6l0.2,0.3c-0.5,0.6-1,1.1-1.7,1.5
						c-0.7,0.4-1.4,0.6-2.2,0.6c-0.5,0-0.9,0-1.1-0.1c-0.3-0.1-0.6-0.2-0.8-0.3v3.7l0.1,0c0.3-0.4,0.7-0.6,1.1-0.8
						c0.4-0.2,0.9-0.3,1.4-0.3c1.4,0,2.4,0.4,3.2,1.2c0.8,0.8,1.1,1.9,1.1,3.2c0,0.9-0.2,1.8-0.6,2.6c-0.4,0.8-1,1.4-1.7,1.8
						c-0.7,0.4-1.5,0.6-2.4,0.6C15.1,23.7,14.5,23.6,14,23.3z"/>
				</g>
			</g>
		</g>
		<g>
			<g>
				<g>
					<path d="M150.8,205.7c0.5,0.3,0.9,0.6,1.2,1c0.3,0.4,0.4,0.9,0.4,1.4c0,0.6-0.2,1.1-0.5,1.4c-0.3,0.3-0.7,0.5-1.1,0.5
						c-0.3,0-0.6-0.1-0.8-0.3c-0.2-0.2-0.3-0.5-0.3-0.8c0-0.2,0.1-0.4,0.2-0.6c0.1-0.2,0.3-0.3,0.5-0.4c0.2-0.1,0.3-0.2,0.4-0.3
						c0.1-0.1,0.2-0.2,0.2-0.4c0-0.4-0.2-0.7-0.5-1c-0.3-0.2-0.9-0.3-1.6-0.3c-1,0-1.6,0.4-2.1,1.2c-0.4,0.8-0.6,1.9-0.6,3.1
						c0,1.2,0.2,2.1,0.6,2.7c0.4,0.6,1.1,1,2,1c0.4,0,0.7-0.1,1-0.2c0.3-0.1,0.6-0.3,0.8-0.6c0.1-0.1,0.2-0.3,0.3-0.5
						c0.1-0.2,0.1-0.4,0.1-0.6c0-0.1,0-0.3,0.1-0.3c0.1-0.1,0.2-0.1,0.3-0.1c0.2,0,0.3,0.2,0.3,0.5v6.7l-0.4,0.3
						c-0.3-0.2-0.7-0.4-1.2-0.6c-0.5-0.2-1-0.2-1.5-0.2c-0.6,0-1.2,0.1-1.7,0.2c-0.5,0.1-1,0.3-1.6,0.6l-0.2-0.3
						c0.5-0.6,1-1.1,1.7-1.5c0.7-0.4,1.4-0.6,2.2-0.6c0.5,0,0.9,0,1.1,0.1c0.3,0.1,0.6,0.2,0.8,0.3v-3.7l-0.1,0
						c-0.3,0.4-0.7,0.6-1.1,0.8c-0.4,0.2-0.9,0.3-1.4,0.3c-1.4,0-2.4-0.4-3.2-1.2c-0.8-0.8-1.1-1.9-1.1-3.2c0-0.9,0.2-1.8,0.6-2.6
						c0.4-0.8,1-1.4,1.7-1.8c0.7-0.4,1.5-0.6,2.4-0.6C149.7,205.3,150.3,205.4,150.8,205.7z"/>
				</g>
			</g>
		</g>
		<g>
			<path class="st2" d="M67.8,35.3c-3.7-4-7.9-7.9-9.7-10c-1.3-1.5-2.3-2.7-2.7-3.2v-0.3c0,0,0,0-0.1,0.1c-0.1-0.1-0.1-0.1-0.1-0.1
				v0.3c-0.4,0.5-1.3,1.7-2.7,3.2c-1.8,2.1-6.1,6-9.7,10c-3.7,4-4,8-3.3,11.3c0.7,3.3,4.2,6.5,9.6,5.8c1.7-0.2,3-1,3.9-2.1
				c-0.6,4.7-3.2,7.2-3.2,7.2h10.6c-1.9-2.2-2.6-5.2-2.9-7.1c0.9,1,2.2,1.8,3.9,2c5.5,0.7,8.9-2.4,9.6-5.8
				C71.8,43.3,71.5,39.3,67.8,35.3z"/>
		</g>
		<g>
			<path class="st2" d="M67.8,194.7c-3.7,4-7.9,7.9-9.7,10c-1.3,1.5-2.3,2.7-2.7,3.2v0.3c0,0,0,0-0.1-0.1c-0.1,0.1-0.1,0.1-0.1,0.1
				v-0.3c-0.4-0.5-1.3-1.7-2.7-3.2c-1.8-2.1-6.1-6-9.7-10c-3.7-4-4-8-3.3-11.3c0.7-3.3,4.2-6.5,9.6-5.8c1.7,0.2,3,1,3.9,2.1
				c-0.6-4.7-3.2-7.2-3.2-7.2h10.6c-1.9,2.2-2.6,5.2-2.9,7.1c0.9-1,2.2-1.8,3.9-2c5.5-0.7,8.9,2.4,9.6,5.8
				C71.8,186.7,71.5,190.7,67.8,194.7z"/>
		</g>
		<g>
			<path class="st2" d="M122.3,35.3c-3.7-4-7.9-7.9-9.7-10c-1.3-1.5-2.3-2.7-2.7-3.2v-0.3c0,0,0,0-0.1,0.1c-0.1-0.1-0.1-0.1-0.1-0.1
				v0.3c-0.4,0.5-1.3,1.7-2.7,3.2c-1.8,2.1-6.1,6-9.7,10c-3.7,4-4,8-3.3,11.3c0.7,3.3,4.2,6.5,9.6,5.8c1.7-0.2,3-1,3.9-2.1
				c-0.6,4.7-3.2,7.2-3.2,7.2H115c-1.9-2.2-2.6-5.2-2.9-7.1c0.9,1,2.2,1.8,3.9,2c5.5,0.7,8.9-2.4,9.6-5.8
				C126.3,43.3,126,39.3,122.3,35.3z"/>
		</g>
		<g>
			<path class="st2" d="M122.3,194.7c-3.7,4-7.9,7.9-9.7,10c-1.3,1.5-2.3,2.7-2.7,3.2v0.3c0,0,0,0-0.1-0.1c-0.1,0.1-0.1,0.1-0.1,0.1
				v-0.3c-0.4-0.5-1.3-1.7-2.7-3.2c-1.8-2.1-6.1-6-9.7-10c-3.7-4-4-8-3.3-11.3c0.7-3.3,4.2-6.5,9.6-5.8c1.7,0.2,3,1,3.9,2.1
				c-0.6-4.7-3.2-7.2-3.2-7.2H115c-1.9,2.2-2.6,5.2-2.9,7.1c0.9-1,2.2-1.8,3.9-2c5.5-0.7,8.9,2.4,9.6,5.8
				C126.3,186.7,126,190.7,122.3,194.7z"/>
		</g>
		<g>
			<path class="st2" d="M94.6,111.9c-3.7-4-7.9-7.9-9.7-10c-1.3-1.5-2.3-2.7-2.7-3.2v-0.3c0,0,0,0-0.1,0.1C82,98.5,82,98.4,82,98.4
				v0.3c-0.4,0.5-1.3,1.7-2.7,3.2c-1.8,2.1-6.1,6-9.7,10c-3.7,4-4,8-3.3,11.3c0.7,3.3,4.2,6.5,9.6,5.8c1.7-0.2,3-1,3.9-2.1
				c-0.6,4.7-3.2,7.2-3.2,7.2h10.6c-1.9-2.2-2.6-5.2-2.9-7.1c0.9,1,2.2,1.8,3.9,2c5.5,0.7,8.9-2.4,9.6-5.8
				C98.6,119.9,98.3,115.9,94.6,111.9z"/>
		</g>
		<g>
			<path class="st2" d="M152.3,197.4c-1.1,1.2-2.3,2.3-2.8,2.9c-0.4,0.4-0.7,0.8-0.8,0.9v0.1c0,0,0,0,0,0c0,0,0,0,0,0v-0.1
				c-0.1-0.1-0.4-0.5-0.8-0.9c-0.5-0.6-1.8-1.7-2.8-2.9c-1.1-1.2-1.2-2.3-1-3.3c0.2-1,1.2-1.9,2.8-1.7c0.5,0.1,0.9,0.3,1.1,0.6
				c-0.2-1.4-0.9-2.1-0.9-2.1h3.1c-0.6,0.6-0.8,1.5-0.8,2.1c0.3-0.3,0.6-0.5,1.1-0.6c1.6-0.2,2.6,0.7,2.8,1.7
				C153.4,195.1,153.4,196.3,152.3,197.4z"/>
		</g>
		<g>
			<path class="st2" d="M22,31.3c-1.1-1.2-2.3-2.3-2.8-2.9c-0.4-0.4-0.7-0.8-0.8-0.9v-0.1c0,0,0,0,0,0c0,0,0,0,0,0v0.1
				c-0.1,0.1-0.4,0.5-0.8,0.9c-0.5,0.6-1.8,1.7-2.8,2.9c-1.1,1.2-1.2,2.3-1,3.3c0.2,1,1.2,1.9,2.8,1.7c0.5-0.1,0.9-0.3,1.1-0.6
				c-0.2,1.4-0.9,2.1-0.9,2.1h3.1c-0.6-0.6-0.8-1.5-0.8-2.1c0.3,0.3,0.6,0.5,1.1,0.6c1.6,0.2,2.6-0.7,2.8-1.7
				C23.1,33.6,23,32.5,22,31.3z"/>
		</g>
	</g>
</g>
</svg>
