<?xml version="1.0" encoding="utf-8"?>
<!-- Generator: Adobe Illustrator 25.0.0, SVG Export Plug-In . SVG Version: 6.00 Build 0)  -->
<svg version="1.1" id="Ebene_1" xmlns="http://www.w3.org/2000/svg" xmlns:xlink="http://www.w3.org/1999/xlink" x="0px" y="0px"
	 viewBox="0 0 167 234" style="enable-background:new 0 0 167 234;" xml:space="preserve">
<style type="text/css">
	.st0{fill:#FFFFFF;}
	.st1{fill:#161616;}
	.st2{fill:#0D0D0D;}
</style>
<g>
	<g>
		<g>
			<path class="st0" d="M160.7,233.5H6.3c-3.3,0-5.9-2.7-5.9-5.9V6.5c0-3.3,2.7-5.9,5.9-5.9h154.4c3.3,0,5.9,2.7,5.9,5.9v221
				C166.7,230.8,164,233.5,160.7,233.5z"/>
			<path class="st1" d="M160.7,233.6H6.3c-3.3,0-6.1-2.7-6.1-6.1V6.5c0-3.3,2.7-6.1,6.1-6.1h154.4c3.3,0,6.1,2.7,6.1,6.1v221
				C166.8,230.8,164.1,233.6,160.7,233.6z M6.3,0.7c-3.2,0-5.8,2.6-5.8,5.8v221c0,3.2,2.6,5.8,5.8,5.8h154.4c3.2,0,5.8-2.6,5.8-5.8
				V6.5c0-3.2-2.6-5.8-5.8-5.8H6.3z"/>
		</g>
	</g>
	<g>
		<g>
			<g>
				<g>
					<path d="M13,26.6c-0.2-0.2-0.3-0.5-0.4-0.8c-0.1-0.3-0.1-0.5-0.1-0.8c0-0.5,0.2-0.8,0.5-1.1c0.2-0.2,0.5-0.3,0.8-0.3
						c0.3,0,0.5,0.1,0.7,0.3c0.1,0.1,0.1,0.2,0.1,0.3c0,0.1,0,0.2,0,0.3c0,0.2-0.1,0.4-0.3,0.6c-0.1,0.1-0.2,0.2-0.4,0.3
						c-0.1,0.1-0.2,0.2-0.2,0.2c0,0.1-0.1,0.2-0.1,0.3c0,0.2,0.1,0.4,0.4,0.6c0.3,0.2,0.7,0.3,1.2,0.3c0.5,0,0.9-0.1,1.3-0.4
						c0.4-0.3,0.8-0.7,1.1-1.4c0.2-0.5,0.4-1.1,0.5-1.8c0.1-0.7,0.2-1.3,0.2-1.8v-0.9l-0.1-0.1c-0.2,0.5-0.6,0.9-1.1,1.2
						c-0.5,0.3-1,0.5-1.4,0.5c-0.9,0-1.6-0.2-2.2-0.6c-0.5-0.4-0.9-0.9-1.2-1.5c-0.3-0.6-0.4-1.3-0.4-2c0-0.7,0.2-1.4,0.5-2.1
						c0.3-0.7,0.8-1.3,1.4-1.8c0.6-0.5,1.3-0.7,2.1-0.7c0.8,0,1.6,0.3,2.2,0.8c0.6,0.5,1.1,1.3,1.5,2.2c0.3,1,0.5,2.1,0.5,3.4
						c0,1.1-0.1,2.1-0.4,3.1c-0.3,1-0.7,1.9-1.2,2.5c-0.9,1.2-2.1,1.8-3.3,1.8C14.4,27.5,13.6,27.2,13,26.6z M16.9,21.1
						c0.4-0.3,0.7-0.7,0.9-1.3c0.2-0.5,0.3-1.2,0.3-1.9c0-1.1-0.2-2-0.5-2.6c-0.3-0.7-0.9-1-1.7-1c-0.8,0-1.4,0.4-1.7,1.1
						c-0.4,0.8-0.5,1.6-0.5,2.6c0,1,0.2,1.9,0.5,2.6c0.3,0.7,0.8,1,1.6,1C16.2,21.6,16.6,21.4,16.9,21.1z"/>
				</g>
			</g>
		</g>
		<g>
			<g>
				<g>
					<path d="M151.4,210.1c0.2,0.2,0.3,0.5,0.4,0.8c0.1,0.3,0.1,0.5,0.1,0.8c0,0.5-0.2,0.8-0.5,1.1c-0.2,0.2-0.5,0.3-0.8,0.3
						c-0.3,0-0.5-0.1-0.7-0.3c-0.1-0.1-0.1-0.2-0.1-0.3c0-0.1,0-0.2,0-0.3c0-0.2,0.1-0.4,0.3-0.6c0.1-0.1,0.2-0.2,0.4-0.3
						c0.1-0.1,0.2-0.2,0.2-0.2c0-0.1,0.1-0.2,0.1-0.3c0-0.2-0.1-0.4-0.4-0.6c-0.3-0.2-0.7-0.3-1.2-0.3c-0.5,0-0.9,0.1-1.3,0.4
						c-0.4,0.3-0.8,0.7-1.1,1.4c-0.2,0.5-0.4,1.1-0.5,1.8c-0.1,0.7-0.2,1.3-0.2,1.8v0.9l0.1,0.1c0.2-0.5,0.6-0.9,1.1-1.2
						c0.5-0.3,1-0.5,1.4-0.5c0.9,0,1.6,0.2,2.2,0.6c0.5,0.4,0.9,0.9,1.2,1.5c0.3,0.6,0.4,1.3,0.4,2c0,0.7-0.2,1.4-0.5,2.1
						c-0.3,0.7-0.8,1.3-1.4,1.8c-0.6,0.5-1.3,0.7-2.1,0.7c-0.8,0-1.6-0.3-2.2-0.8s-1.1-1.3-1.5-2.2c-0.3-1-0.5-2.1-0.5-3.4
						c0-1.1,0.1-2.1,0.4-3.1c0.3-1,0.7-1.9,1.2-2.5c0.9-1.2,2.1-1.8,3.3-1.8C150.1,209.2,150.8,209.5,151.4,210.1z M147.5,215.6
						c-0.4,0.3-0.7,0.7-0.9,1.3c-0.2,0.5-0.3,1.2-0.3,1.9c0,1.1,0.2,2,0.5,2.6c0.3,0.7,0.9,1,1.7,1c0.8,0,1.4-0.4,1.7-1.1
						c0.4-0.8,0.5-1.6,0.5-2.6c0-1-0.2-1.9-0.5-2.6c-0.3-0.7-0.8-1-1.6-1C148.3,215.2,147.8,215.3,147.5,215.6z"/>
				</g>
			</g>
		</g>
		<g>
			<path class="st2" d="M90.7,114.5c-3.6-4-7.9-7.8-9.6-9.9c-1.3-1.5-2.3-2.7-2.7-3.2v-0.2c0,0,0,0-0.1,0.1
				c-0.1-0.1-0.1-0.1-0.1-0.1v0.2c-0.4,0.5-1.3,1.6-2.7,3.2c-1.8,2-6,5.9-9.6,9.9c-3.6,4-3.9,7.9-3.2,11.2c0.7,3.3,4.1,6.4,9.5,5.7
				c1.7-0.2,2.9-1,3.8-2c-0.6,4.7-3.1,7.1-3.1,7.1h10.5c-1.9-2.1-2.6-5.2-2.8-7c0.9,1,2.1,1.8,3.8,2c5.4,0.7,8.8-2.4,9.5-5.7
				C94.7,122.4,94.4,118.4,90.7,114.5z"/>
		</g>
		<g>
			<path class="st2" d="M59.2,43c-3.6-4-7.9-7.8-9.6-9.9c-1.3-1.5-2.3-2.7-2.7-3.2v-0.2c0,0,0,0-0.1,0.1c-0.1-0.1-0.1-0.1-0.1-0.1
				V30c-0.4,0.5-1.3,1.6-2.7,3.2c-1.8,2-6,5.9-9.6,9.9c-3.6,4-3.9,7.9-3.2,11.2c0.7,3.3,4.1,6.4,9.5,5.7c1.7-0.2,2.9-1,3.8-2
				c-0.6,4.7-3.1,7.1-3.1,7.1h10.5c-1.9-2.1-2.6-5.2-2.8-7c0.9,1,2.1,1.8,3.8,2c5.4,0.7,8.8-2.4,9.5-5.7C63.1,50.9,62.8,47,59.2,43z
				"/>
		</g>
		<g>
			<path class="st2" d="M59.2,93.6c-3.6-4-7.9-7.8-9.6-9.9c-1.3-1.5-2.3-2.7-2.7-3.2v-0.2c0,0,0,0-0.1,0.1c-0.1-0.1-0.1-0.1-0.1-0.1
				v0.2c-0.4,0.5-1.3,1.6-2.7,3.2c-1.8,2-6,5.9-9.6,9.9c-3.6,4-3.9,7.9-3.2,11.2c0.7,3.3,4.1,6.4,9.5,5.7c1.7-0.2,2.9-1,3.8-2
				c-0.6,4.7-3.1,7.1-3.1,7.1h10.5c-1.9-2.1-2.6-5.2-2.8-7c0.9,1,2.1,1.8,3.8,2c5.4,0.7,8.8-2.4,9.5-5.7
				C63.1,101.5,62.8,97.5,59.2,93.6z"/>
		</g>
		<g>
			<path class="st2" d="M59.2,203.4c-3.6,4-7.9,7.8-9.6,9.9c-1.3,1.5-2.3,2.7-2.7,3.2v0.2c0,0,0,0-0.1-0.1c-0.1,0.1-0.1,0.1-0.1,0.1
				v-0.2c-0.4-0.5-1.3-1.6-2.7-3.2c-1.8-2-6-5.9-9.6-9.9c-3.6-4-3.9-7.9-3.2-11.2c0.7-3.3,4.1-6.4,9.5-5.7c1.7,0.2,2.9,1,3.8,2
				c-0.6-4.7-3.1-7.1-3.1-7.1h10.5c-1.9,2.1-2.6,5.2-2.8,7c0.9-1,2.1-1.8,3.8-2c5.4-0.7,8.8,2.4,9.5,5.7
				C63.1,195.5,62.8,199.4,59.2,203.4z"/>
		</g>
		<g>
			<path class="st2" d="M127.8,43c-3.6-4-7.9-7.8-9.6-9.9c-1.3-1.5-2.3-2.7-2.7-3.2v-0.2c0,0,0,0-0.1,0.1c-0.1-0.1-0.1-0.1-0.1-0.1
				V30c-0.4,0.5-1.3,1.6-2.7,3.2c-1.8,2-6,5.9-9.6,9.9c-3.6,4-3.9,7.9-3.2,11.2s4.1,6.4,9.5,5.7c1.7-0.2,2.9-1,3.8-2
				c-0.6,4.7-3.1,7.1-3.1,7.1h10.5c-1.9-2.1-2.6-5.2-2.8-7c0.9,1,2.1,1.8,3.8,2c5.4,0.7,8.8-2.4,9.5-5.7
				C131.7,50.9,131.4,47,127.8,43z"/>
		</g>
		<g>
			<path class="st2" d="M127.8,93.6c-3.6-4-7.9-7.8-9.6-9.9c-1.3-1.5-2.3-2.7-2.7-3.2v-0.2c0,0,0,0-0.1,0.1
				c-0.1-0.1-0.1-0.1-0.1-0.1v0.2c-0.4,0.5-1.3,1.6-2.7,3.2c-1.8,2-6,5.9-9.6,9.9c-3.6,4-3.9,7.9-3.2,11.2c0.7,3.3,4.1,6.4,9.5,5.7
				c1.7-0.2,2.9-1,3.8-2c-0.6,4.7-3.1,7.1-3.1,7.1h10.5c-1.9-2.1-2.6-5.2-2.8-7c0.9,1,2.1,1.8,3.8,2c5.4,0.7,8.8-2.4,9.5-5.7
				C131.7,101.5,131.4,97.5,127.8,93.6z"/>
		</g>
		<g>
			<path class="st2" d="M127.8,203.4c-3.6,4-7.9,7.8-9.6,9.9c-1.3,1.5-2.3,2.7-2.7,3.2v0.2c0,0,0,0-0.1-0.1
				c-0.1,0.1-0.1,0.1-0.1,0.1v-0.2c-0.4-0.5-1.3-1.6-2.7-3.2c-1.8-2-6-5.9-9.6-9.9c-3.6-4-3.9-7.9-3.2-11.2c0.7-3.3,4.1-6.4,9.5-5.7
				c1.7,0.2,2.9,1,3.8,2c-0.6-4.7-3.1-7.1-3.1-7.1h10.5c-1.9,2.1-2.6,5.2-2.8,7c0.9-1,2.1-1.8,3.8-2c5.4-0.7,8.8,2.4,9.5,5.7
				C131.7,195.5,131.4,199.4,127.8,203.4z"/>
		</g>
		<g>
			<path class="st2" d="M59.2,152.8c-3.6,4-7.9,7.8-9.6,9.9c-1.3,1.5-2.3,2.7-2.7,3.2v0.2c0,0,0,0-0.1-0.1c-0.1,0.1-0.1,0.1-0.1,0.1
				v-0.2c-0.4-0.5-1.3-1.6-2.7-3.2c-1.8-2-6-5.9-9.6-9.9c-3.6-4-3.9-7.9-3.2-11.2c0.7-3.3,4.1-6.4,9.5-5.7c1.7,0.2,2.9,1,3.8,2
				c-0.6-4.7-3.1-7.1-3.1-7.1h10.5c-1.9,2.1-2.6,5.2-2.8,7c0.9-1,2.1-1.8,3.8-2c5.4-0.7,8.8,2.4,9.5,5.7
				C63.1,144.9,62.8,148.9,59.2,152.8z"/>
		</g>
		<g>
			<path class="st2" d="M127.8,152.8c-3.6,4-7.9,7.8-9.6,9.9c-1.3,1.5-2.3,2.7-2.7,3.2v0.2c0,0,0,0-0.1-0.1
				c-0.1,0.1-0.1,0.1-0.1,0.1v-0.2c-0.4-0.5-1.3-1.6-2.7-3.2c-1.8-2-6-5.9-9.6-9.9c-3.6-4-3.9-7.9-3.2-11.2c0.7-3.3,4.1-6.4,9.5-5.7
				c1.7,0.2,2.9,1,3.8,2c-0.6-4.7-3.1-7.1-3.1-7.1h10.5c-1.9,2.1-2.6,5.2-2.8,7c0.9-1,2.1-1.8,3.8-2c5.4-0.7,8.8,2.4,9.5,5.7
				C131.7,144.9,131.4,148.9,127.8,152.8z"/>
		</g>
		<g>
			<path class="st2" d="M20.4,35.2c-1.1-1.2-2.3-2.3-2.8-2.9c-0.4-0.4-0.7-0.8-0.8-0.9v-0.1c0,0,0,0,0,0c0,0,0,0,0,0v0.1
				c-0.1,0.1-0.4,0.5-0.8,0.9c-0.5,0.6-1.8,1.7-2.8,2.9c-1.1,1.2-1.2,2.3-1,3.3c0.2,1,1.2,1.9,2.8,1.7c0.5-0.1,0.9-0.3,1.1-0.6
				c-0.2,1.4-0.9,2.1-0.9,2.1h3.1c-0.6-0.6-0.8-1.5-0.8-2.1c0.3,0.3,0.6,0.5,1.1,0.6c1.6,0.2,2.6-0.7,2.8-1.7
				C21.6,37.5,21.5,36.3,20.4,35.2z"/>
		</g>
		<g>
			<path class="st2" d="M150.7,201.3c-1.1,1.2-2.3,2.3-2.8,2.9c-0.4,0.4-0.7,0.8-0.8,0.9v0.1c0,0,0,0,0,0c0,0,0,0,0,0v-0.1
				c-0.1-0.1-0.4-0.5-0.8-0.9c-0.5-0.6-1.8-1.7-2.8-2.9c-1.1-1.2-1.2-2.3-1-3.3c0.2-1,1.2-1.9,2.8-1.7c0.5,0.1,0.9,0.3,1.1,0.6
				c-0.2-1.4-0.9-2.1-0.9-2.1h3.1c-0.6,0.6-0.8,1.5-0.8,2.1c0.3-0.3,0.6-0.5,1.1-0.6c1.6-0.2,2.6,0.7,2.8,1.7
				C151.9,199,151.8,200.1,150.7,201.3z"/>
		</g>
	</g>
	<g>
		<path class="st0" d="M149.4,18.9c0,0.3-0.3,0.6-0.6,0.6c-0.3,0-0.6-0.3-0.6-0.6c0-0.3,0.3-0.6,0.6-0.6
			C149.1,18.3,149.4,18.6,149.4,18.9z"/>
	</g>
	<g>
		<path class="st0" d="M122.3,18.9c0,0.3-0.3,0.6-0.6,0.6c-0.3,0-0.6-0.3-0.6-0.6c0-0.3,0.3-0.6,0.6-0.6
			C122,18.3,122.3,18.6,122.3,18.9z"/>
	</g>
	<g>
		<path class="st0" d="M97.3,18.9c0,0.3-0.3,0.6-0.6,0.6c-0.3,0-0.6-0.3-0.6-0.6c0-0.3,0.3-0.6,0.6-0.6
			C97.1,18.3,97.3,18.6,97.3,18.9z"/>
	</g>
	<g>
		<path class="st0" d="M72.3,19.1c0,0.3-0.3,0.6-0.6,0.6c-0.3,0-0.6-0.3-0.6-0.6s0.3-0.6,0.6-0.6C72,18.5,72.3,18.8,72.3,19.1z"/>
	</g>
	<g>
		<path class="st0" d="M149.4,40.1c0,0.3-0.3,0.6-0.6,0.6c-0.3,0-0.6-0.3-0.6-0.6c0-0.3,0.3-0.6,0.6-0.6
			C149.1,39.5,149.4,39.7,149.4,40.1z"/>
	</g>
	<g>
		<path class="st0" d="M149.4,59.3c0,0.3-0.3,0.6-0.6,0.6c-0.3,0-0.6-0.3-0.6-0.6c0-0.3,0.3-0.6,0.6-0.6
			C149.1,58.8,149.4,59,149.4,59.3z"/>
	</g>
	<g>
		<path class="st0" d="M149.4,79.6c0,0.3-0.3,0.6-0.6,0.6c-0.3,0-0.6-0.3-0.6-0.6c0-0.3,0.3-0.6,0.6-0.6
			C149.1,79,149.4,79.3,149.4,79.6z"/>
	</g>
	<g>
		<path class="st0" d="M149.4,92.3c0,0.3-0.3,0.6-0.6,0.6c-0.3,0-0.6-0.3-0.6-0.6c0-0.3,0.3-0.6,0.6-0.6
			C149.1,91.8,149.4,92,149.4,92.3z"/>
	</g>
	<g>
		<path class="st0" d="M149.4,105.2c0,0.3-0.3,0.6-0.6,0.6c-0.3,0-0.6-0.3-0.6-0.6c0-0.3,0.3-0.6,0.6-0.6
			C149.1,104.6,149.4,104.9,149.4,105.2z"/>
	</g>
	<g>
		<path class="st0" d="M19.1,19.5c0,0.3-0.3,0.6-0.6,0.6c-0.3,0-0.6-0.3-0.6-0.6c0-0.3,0.3-0.6,0.6-0.6
			C18.9,18.9,19.1,19.2,19.1,19.5z"/>
	</g>
	<g>
		<path class="st0" d="M46.6,19.1c0,0.3-0.3,0.6-0.6,0.6c-0.3,0-0.6-0.3-0.6-0.6s0.3-0.6,0.6-0.6C46.3,18.5,46.6,18.8,46.6,19.1z"/>
	</g>
	<g>
		<path class="st0" d="M19.1,39.6c0,0.3-0.3,0.6-0.6,0.6c-0.3,0-0.6-0.3-0.6-0.6s0.3-0.6,0.6-0.6C18.9,39,19.1,39.3,19.1,39.6z"/>
	</g>
	<g>
		<path class="st0" d="M19.1,59.5c0,0.3-0.3,0.6-0.6,0.6c-0.3,0-0.6-0.3-0.6-0.6s0.3-0.6,0.6-0.6C18.9,58.9,19.1,59.2,19.1,59.5z"/>
	</g>
	<g>
		<path class="st0" d="M19.1,79.4c0,0.3-0.3,0.6-0.6,0.6c-0.3,0-0.6-0.3-0.6-0.6c0-0.3,0.3-0.6,0.6-0.6
			C18.9,78.9,19.1,79.1,19.1,79.4z"/>
	</g>
	<g>
		<path class="st0" d="M19.1,92.3c0,0.3-0.3,0.6-0.6,0.6c-0.3,0-0.6-0.3-0.6-0.6c0-0.3,0.3-0.6,0.6-0.6C18.9,91.8,19.1,92,19.1,92.3
			z"/>
	</g>
	<g>
		<path class="st0" d="M19.1,105.7c0,0.3-0.3,0.6-0.6,0.6c-0.3,0-0.6-0.3-0.6-0.6s0.3-0.6,0.6-0.6C18.9,105.2,19.1,105.4,19.1,105.7
			z"/>
	</g>
	<g>
		<path class="st0" d="M19.1,118.7c0,0.3-0.3,0.6-0.6,0.6c-0.3,0-0.6-0.3-0.6-0.6s0.3-0.6,0.6-0.6C18.9,118.1,19.1,118.4,19.1,118.7
			z"/>
	</g>
	<g>
		<path class="st0" d="M19.1,131.6c0,0.3-0.3,0.6-0.6,0.6c-0.3,0-0.6-0.3-0.6-0.6c0-0.3,0.3-0.6,0.6-0.6
			C18.9,131,19.1,131.3,19.1,131.6z"/>
	</g>
	<g>
		<path class="st0" d="M19.1,145c0,0.3-0.3,0.6-0.6,0.6c-0.3,0-0.6-0.3-0.6-0.6c0-0.3,0.3-0.6,0.6-0.6
			C18.9,144.4,19.1,144.7,19.1,145z"/>
	</g>
	<g>
		<path class="st0" d="M19.1,158.4c0,0.3-0.3,0.6-0.6,0.6c-0.3,0-0.6-0.3-0.6-0.6c0-0.3,0.3-0.6,0.6-0.6
			C18.9,157.9,19.1,158.1,19.1,158.4z"/>
	</g>
	<g>
		<path class="st0" d="M19.1,170.4c0,0.3-0.3,0.6-0.6,0.6c-0.3,0-0.6-0.3-0.6-0.6c0-0.3,0.3-0.6,0.6-0.6
			C18.9,169.9,19.1,170.1,19.1,170.4z"/>
	</g>
	<g>
		<path class="st0" d="M19.1,183.8c0,0.3-0.3,0.6-0.6,0.6c-0.3,0-0.6-0.3-0.6-0.6c0-0.3,0.3-0.6,0.6-0.6
			C18.9,183.3,19.1,183.5,19.1,183.8z"/>
	</g>
	<g>
		<path class="st0" d="M19.1,196.9c0,0.3-0.3,0.6-0.6,0.6c-0.3,0-0.6-0.3-0.6-0.6c0-0.3,0.3-0.6,0.6-0.6
			C18.9,196.3,19.1,196.6,19.1,196.9z"/>
	</g>
	<g>
		<path class="st0" d="M19.4,216.1c0,0.3-0.3,0.6-0.6,0.6c-0.3,0-0.6-0.3-0.6-0.6s0.3-0.6,0.6-0.6C19.1,215.5,19.4,215.7,19.4,216.1
			z"/>
	</g>
	<g>
		<path class="st0" d="M39.9,216.6c0,0.3-0.3,0.6-0.6,0.6c-0.3,0-0.6-0.3-0.6-0.6c0-0.3,0.3-0.6,0.6-0.6
			C39.6,216.1,39.9,216.3,39.9,216.6z"/>
	</g>
	<g>
		<path class="st0" d="M66.3,216.6c0,0.3-0.3,0.6-0.6,0.6c-0.3,0-0.6-0.3-0.6-0.6c0-0.3,0.3-0.6,0.6-0.6
			C66.1,216.1,66.3,216.3,66.3,216.6z"/>
	</g>
	<g>
		<path class="st0" d="M92.7,216.6c0,0.3-0.3,0.6-0.6,0.6c-0.3,0-0.6-0.3-0.6-0.6c0-0.3,0.3-0.6,0.6-0.6
			C92.5,216.1,92.7,216.3,92.7,216.6z"/>
	</g>
	<g>
		<path class="st0" d="M118.4,216.6c0,0.3-0.3,0.6-0.6,0.6c-0.3,0-0.6-0.3-0.6-0.6c0-0.3,0.3-0.6,0.6-0.6
			C118.2,216.1,118.4,216.3,118.4,216.6z"/>
	</g>
	<g>
		<path class="st0" d="M149.4,118.4c0,0.3-0.3,0.6-0.6,0.6c-0.3,0-0.6-0.3-0.6-0.6c0-0.3,0.3-0.6,0.6-0.6
			C149.1,117.8,149.4,118,149.4,118.4z"/>
	</g>
	<g>
		<path class="st0" d="M149.4,130.7c0,0.3-0.3,0.6-0.6,0.6c-0.3,0-0.6-0.3-0.6-0.6c0-0.3,0.3-0.6,0.6-0.6
			C149.1,130.1,149.4,130.4,149.4,130.7z"/>
	</g>
	<g>
		<path class="st0" d="M149.4,144c0,0.3-0.3,0.6-0.6,0.6c-0.3,0-0.6-0.3-0.6-0.6c0-0.3,0.3-0.6,0.6-0.6
			C149.1,143.4,149.4,143.7,149.4,144z"/>
	</g>
	<g>
		<path class="st0" d="M149.4,157.1c0,0.3-0.3,0.6-0.6,0.6c-0.3,0-0.6-0.3-0.6-0.6c0-0.3,0.3-0.6,0.6-0.6
			C149.1,156.5,149.4,156.8,149.4,157.1z"/>
	</g>
	<g>
		<path class="st0" d="M149.4,169.8c0,0.3-0.3,0.6-0.6,0.6c-0.3,0-0.6-0.3-0.6-0.6c0-0.3,0.3-0.6,0.6-0.6
			C149.1,169.3,149.4,169.5,149.4,169.8z"/>
	</g>
	<g>
		<path class="st0" d="M149.4,182.4c0,0.3-0.3,0.6-0.6,0.6c-0.3,0-0.6-0.3-0.6-0.6c0-0.3,0.3-0.6,0.6-0.6
			C149.1,181.8,149.4,182.1,149.4,182.4z"/>
	</g>
	<g>
		<path class="st0" d="M149.4,195.3c0,0.3-0.3,0.6-0.6,0.6c-0.3,0-0.6-0.3-0.6-0.6s0.3-0.6,0.6-0.6
			C149.1,194.7,149.4,194.9,149.4,195.3z"/>
	</g>
	<g>
		<path class="st0" d="M149.4,214.8c0,0.3-0.3,0.6-0.6,0.6c-0.3,0-0.6-0.3-0.6-0.6c0-0.3,0.3-0.6,0.6-0.6
			C149.1,214.3,149.4,214.5,149.4,214.8z"/>
	</g>
</g>
</svg>
