<?xml version="1.0" encoding="utf-8"?>
<!-- Generator: Adobe Illustrator 25.0.0, SVG Export Plug-In . SVG Version: 6.00 Build 0)  -->
<svg version="1.1" id="Ebene_1" xmlns="http://www.w3.org/2000/svg" xmlns:xlink="http://www.w3.org/1999/xlink" x="0px" y="0px"
	 viewBox="0 0 167 234" style="enable-background:new 0 0 167 234;" xml:space="preserve">
<style type="text/css">
	.st0{fill:#FFFFFF;}
	.st1{fill:#161616;}
	.st2{fill:#0D0D0D;}
</style>
<g>
	<g>
		<g>
			<path class="st0" d="M160.7,233.4H6.3c-3.3,0-5.9-2.7-5.9-5.9V6.5c0-3.3,2.7-5.9,5.9-5.9h154.5c3.3,0,5.9,2.7,5.9,5.9v221
				C166.7,230.8,164,233.4,160.7,233.4z"/>
			<path class="st1" d="M160.7,233.6H6.3c-3.3,0-6.1-2.7-6.1-6.1V6.5c0-3.3,2.7-6.1,6.1-6.1h154.5c3.3,0,6.1,2.7,6.1,6.1v221
				C166.8,230.8,164.1,233.6,160.7,233.6z M6.3,0.7C3,0.7,0.4,3.3,0.4,6.5v221c0,3.2,2.6,5.8,5.8,5.8h154.5c3.2,0,5.8-2.6,5.8-5.8
				V6.5c0-3.2-2.6-5.8-5.8-5.8H6.3z"/>
		</g>
	</g>
	<g>
		<g>
			<path class="st2" d="M98.2,41.8c-3.6-3.9-9.1-1.6-9.1-1.6c1.5-1.6,2.6-2.9,2.4-5.6c0-0.1,0-0.2,0-0.3c0-4.3-3.5-7.7-7.7-7.7
				S76,30,76,34.2c0,0.5,0.1,1.1,0.2,1.6c0.2,1.9,1.1,3,2.4,4.3c0,0-5.5-2.3-9.1,1.6c-3.6,3.9-1.8,8.5-0.7,10.1
				c1.1,1.5,2.8,4.1,6.8,3.8c3.5-0.3,4-0.9,6.5-2.8c-0.3,5.3-3.5,8.9-3.5,8.9h0.2h5.1h5.1h0.2c-1.9-2-3.7-6.7-3.4-8.9
				c2.4,1.9,2.9,2.5,6.4,2.7c4,0.3,5.7-2.3,6.8-3.8C100,50.3,101.8,45.7,98.2,41.8z"/>
		</g>
		<g>
			<path class="st2" d="M98.2,111.8c-3.6-3.9-9.1-1.6-9.1-1.6c1.5-1.6,2.6-2.9,2.4-5.6c0-0.1,0-0.2,0-0.3c0-4.3-3.5-7.7-7.7-7.7
				S76,100,76,104.3c0,0.5,0.1,1.1,0.2,1.6c0.2,1.9,1.1,3,2.4,4.3c0,0-5.5-2.3-9.1,1.6c-3.6,3.9-1.8,8.5-0.7,10.1
				c1.1,1.5,2.8,4.1,6.8,3.8c3.5-0.3,4-0.9,6.5-2.8c-0.3,5.3-3.5,8.9-3.5,8.9h0.2h5.1h5.1h0.2c-1.9-2-3.7-6.7-3.4-8.9
				c2.4,1.9,2.9,2.5,6.4,2.7c4,0.3,5.7-2.3,6.8-3.8C100,120.3,101.8,115.7,98.2,111.8z"/>
		</g>
		<g>
			<path class="st2" d="M98.2,185.9c-3.6,3.9-9.1,1.6-9.1,1.6c1.5,1.6,2.6,2.9,2.4,5.6c0,0.1,0,0.2,0,0.3c0,4.3-3.5,7.7-7.7,7.7
				s-7.7-3.5-7.7-7.7c0-0.5,0.1-1.1,0.2-1.6c0.2-1.9,1.1-3,2.4-4.3c0,0-5.5,2.3-9.1-1.6c-3.6-3.9-1.8-8.5-0.7-10.1
				c1.1-1.5,2.8-4.1,6.8-3.8c3.5,0.3,4,0.9,6.5,2.8c-0.3-5.3-3.5-8.9-3.5-8.9h0.2h5.1h5.1h0.2c-1.9,2-3.7,6.7-3.4,8.9
				c2.4-1.9,2.9-2.5,6.4-2.7c4-0.3,5.7,2.3,6.8,3.8C100,177.4,101.8,182,98.2,185.9z"/>
		</g>
		<g>
			<g>
				<g>
					<path d="M15.5,25.3c-0.7-0.4-1-1.1-1-2c0-0.5,0.1-0.9,0.4-1.2c0.3-0.3,0.6-0.5,1.1-0.5c0.4,0,0.7,0.1,0.9,0.3
						c0.2,0.2,0.3,0.5,0.3,0.8c0,0.3-0.1,0.5-0.2,0.7c-0.2,0.2-0.4,0.3-0.6,0.3c-0.5,0-0.7,0.1-0.7,0.3c0,0.8,0.8,1.2,2.4,1.2
						c0.9,0,1.6-0.3,2-1c0.4-0.6,0.6-1.4,0.6-2.3c0-1-0.2-1.8-0.7-2.3c-0.4-0.5-1-0.8-1.6-0.8c-0.2,0-0.4,0-0.5,0
						c-0.1,0-0.3,0.1-0.5,0.1c-0.4,0.1-0.8,0.2-1,0.2c-0.2,0-0.4,0-0.5-0.1c-0.1-0.1-0.2-0.2-0.2-0.4c0-0.2,0.1-0.3,0.2-0.4
						c0.1-0.1,0.3-0.1,0.5-0.1c0.2,0,0.5,0,0.9,0.1c0.3,0,0.6,0.1,1.1,0.1c0.6,0,1.1-0.3,1.4-0.8c0.3-0.6,0.5-1.2,0.5-1.9
						c0-0.8-0.2-1.5-0.6-2.1c-0.4-0.6-1-0.8-1.7-0.8c-0.8,0-1.3,0.1-1.6,0.4c-0.3,0.2-0.5,0.5-0.5,0.8c0,0.1,0,0.2,0.1,0.4
						c0.1,0.1,0.2,0.2,0.4,0.3c0.5,0.2,0.7,0.5,0.7,1c0,0.3-0.1,0.5-0.3,0.7c-0.2,0.2-0.4,0.3-0.8,0.3c-0.4,0-0.7-0.2-1-0.5
						c-0.3-0.3-0.4-0.7-0.4-1.1c0-0.9,0.3-1.6,1-2.1c0.7-0.5,1.5-0.7,2.5-0.7c1.2,0,2.1,0.3,2.8,0.9c0.7,0.6,1.1,1.5,1.1,2.5
						c0,0.5-0.1,1-0.4,1.4c-0.3,0.4-0.6,0.8-1,1c-0.4,0.3-0.8,0.4-1.2,0.5v0.2c0.4,0.1,0.9,0.3,1.3,0.6c0.5,0.3,0.9,0.7,1.2,1.2
						c0.3,0.5,0.5,1.1,0.5,1.7c0,0.8-0.2,1.5-0.6,2.1c-0.4,0.6-1,1-1.7,1.4C19.7,25.8,18.9,26,18,26C17,26,16.1,25.8,15.5,25.3z"/>
				</g>
			</g>
		</g>
		<g>
			<g>
				<path d="M153.2,207.4c0.7,0.4,1,1.1,1,2c0,0.5-0.1,0.9-0.4,1.2c-0.3,0.3-0.6,0.5-1.1,0.5c-0.4,0-0.7-0.1-0.9-0.3
					c-0.2-0.2-0.3-0.5-0.3-0.8c0-0.3,0.1-0.5,0.2-0.7c0.2-0.2,0.4-0.3,0.6-0.3c0.5,0,0.7-0.1,0.7-0.3c0-0.8-0.8-1.2-2.4-1.2
					c-0.9,0-1.6,0.3-2,1c-0.4,0.6-0.6,1.4-0.6,2.3c0,1,0.2,1.8,0.7,2.3c0.4,0.5,1,0.8,1.6,0.8c0.2,0,0.4,0,0.5,0
					c0.1,0,0.3-0.1,0.5-0.1c0.4-0.1,0.8-0.2,1-0.2c0.2,0,0.4,0,0.5,0.1c0.1,0.1,0.2,0.2,0.2,0.4c0,0.2-0.1,0.3-0.2,0.4
					c-0.1,0.1-0.3,0.1-0.5,0.1c-0.2,0-0.5,0-0.9-0.1c-0.3,0-0.6-0.1-1.1-0.1c-0.6,0-1.1,0.3-1.4,0.8c-0.3,0.6-0.5,1.2-0.5,1.9
					c0,0.8,0.2,1.5,0.6,2.1c0.4,0.6,1,0.8,1.7,0.8c0.8,0,1.3-0.1,1.6-0.4c0.3-0.2,0.5-0.5,0.5-0.8c0-0.1,0-0.2-0.1-0.4
					c-0.1-0.1-0.2-0.2-0.4-0.3c-0.5-0.2-0.7-0.5-0.7-1c0-0.3,0.1-0.5,0.3-0.7c0.2-0.2,0.4-0.3,0.8-0.3c0.4,0,0.7,0.2,1,0.5
					c0.3,0.3,0.4,0.7,0.4,1.1c0,0.9-0.3,1.6-1,2.1c-0.7,0.5-1.5,0.7-2.5,0.7c-1.2,0-2.1-0.3-2.8-0.9c-0.7-0.6-1.1-1.5-1.1-2.5
					c0-0.5,0.1-1,0.4-1.4c0.3-0.4,0.6-0.8,1-1c0.4-0.3,0.8-0.4,1.2-0.5V214c-0.4-0.1-0.9-0.3-1.3-0.6c-0.5-0.3-0.9-0.7-1.2-1.2
					c-0.3-0.5-0.5-1.1-0.5-1.7c0-0.8,0.2-1.5,0.6-2.1c0.4-0.6,1-1,1.7-1.4c0.7-0.3,1.5-0.5,2.4-0.5
					C151.6,206.7,152.5,206.9,153.2,207.4z"/>
			</g>
		</g>
		<g>
			<path class="st2" d="M14.3,34.7c1,1.1,2.6,0.5,2.6,0.5c-0.4,0.5-0.7,0.9-0.7,1.6c0,0,0,0.1,0,0.1c0,1.2,1,2.2,2.2,2.2
				c1.2,0,2.2-1,2.2-2.2c0-0.2,0-0.3,0-0.5c-0.1-0.5-0.3-0.9-0.7-1.3c0,0,1.6,0.7,2.6-0.5c1-1.1,0.5-2.5,0.2-2.9
				c-0.3-0.4-0.8-1.2-2-1.1c-1,0.1-1.2,0.2-1.9,0.8c0.1-1.5,1-2.6,1-2.6H20h-1.5H17H17c0.6,0.6,1.1,1.9,1,2.6
				c-0.7-0.5-0.8-0.7-1.8-0.8c-1.1-0.1-1.6,0.7-2,1.1C13.8,32.2,13.3,33.5,14.3,34.7z"/>
		</g>
		<g>
			<path class="st2" d="M144.6,197.8c1-1.1,2.6-0.5,2.6-0.5c-0.4-0.5-0.7-0.9-0.7-1.6c0,0,0-0.1,0-0.1c0-1.2,1-2.2,2.2-2.2
				s2.2,1,2.2,2.2c0,0.2,0,0.3,0,0.5c-0.1,0.5-0.3,0.9-0.7,1.3c0,0,1.6-0.7,2.6,0.5c1,1.1,0.5,2.5,0.2,2.9c-0.3,0.4-0.8,1.2-2,1.1
				c-1-0.1-1.2-0.2-1.9-0.8c0.1,1.5,1,2.6,1,2.6h-0.1h-1.5h-1.5h-0.1c0.6-0.6,1.1-1.9,1-2.6c-0.7,0.5-0.8,0.7-1.8,0.8
				c-1.1,0.1-1.6-0.7-2-1.1C144.1,200.3,143.6,198.9,144.6,197.8z"/>
		</g>
	</g>
</g>
</svg>
