<?xml version="1.0" encoding="utf-8"?>
<!-- Generator: Adobe Illustrator 25.0.0, SVG Export Plug-In . SVG Version: 6.00 Build 0)  -->
<svg version="1.1" id="Ebene_1" xmlns="http://www.w3.org/2000/svg" xmlns:xlink="http://www.w3.org/1999/xlink" x="0px" y="0px"
	 viewBox="0 0 167 234" style="enable-background:new 0 0 167 234;" xml:space="preserve">
<style type="text/css">
	.st0{fill:#FFFFFF;}
	.st1{fill:#161616;}
	.st2{fill:#0D0D0D;}
</style>
<g>
	<path class="st0" d="M160.7,233.5H6.3c-3.3,0-5.9-2.7-5.9-5.9V6.5c0-3.3,2.7-5.9,5.9-5.9h154.4c3.3,0,5.9,2.7,5.9,5.9v221
		C166.7,230.8,164,233.5,160.7,233.5z"/>
	<g>
		<g>
			<g>
				<path class="st1" d="M160.7,233.6H6.3c-3.3,0-6.1-2.7-6.1-6.1V6.5c0-3.3,2.7-6.1,6.1-6.1h154.4c3.3,0,6.1,2.7,6.1,6.1v221
					C166.8,230.8,164.1,233.6,160.7,233.6z M6.3,0.7c-3.2,0-5.8,2.6-5.8,5.8v221c0,3.2,2.6,5.8,5.8,5.8h154.4c3.2,0,5.8-2.6,5.8-5.8
					V6.5c0-3.2-2.6-5.8-5.8-5.8H6.3z"/>
			</g>
		</g>
		<g>
			<g>
				<g>
					<g>
						<path class="st2" d="M21.9,33.9c-1-1.1-2.6-0.5-2.6-0.5c0.4-0.5,0.7-0.9,0.7-1.6c0,0,0-0.1,0-0.1c0-1.2-1-2.2-2.2-2.2
							c-1.2,0-2.2,1-2.2,2.2c0,0.2,0,0.3,0,0.5c0.1,0.5,0.3,0.9,0.7,1.3c0,0-1.6-0.7-2.6,0.5c-1,1.1-0.5,2.5-0.2,2.9
							c0.3,0.4,0.8,1.2,2,1.1c1-0.1,1.2-0.2,1.9-0.8c-0.1,1.5-1,2.6-1,2.6h0.1h1.5h1.5h0.1c-0.6-0.6-1.1-1.9-1-2.6
							c0.7,0.5,0.8,0.7,1.8,0.8c1.1,0.1,1.6-0.7,2-1.1C22.4,36.3,22.9,35,21.9,33.9z"/>
					</g>
				</g>
				<g>
					<g>
						<g>
							<path d="M13.7,25c-0.2-0.2-0.3-0.5-0.4-0.8c-0.1-0.3-0.1-0.5-0.1-0.8c0-0.5,0.2-0.8,0.5-1.1c0.2-0.2,0.5-0.3,0.8-0.3
								c0.3,0,0.5,0.1,0.7,0.3c0.1,0.1,0.1,0.2,0.1,0.3c0,0.1,0,0.2,0,0.3c0,0.2-0.1,0.4-0.3,0.6c-0.1,0.1-0.2,0.2-0.4,0.3
								c-0.1,0.1-0.2,0.2-0.2,0.2c0,0.1-0.1,0.2-0.1,0.3c0,0.2,0.1,0.4,0.4,0.6c0.3,0.2,0.7,0.3,1.2,0.3c0.5,0,0.9-0.1,1.3-0.4
								c0.4-0.3,0.8-0.7,1.1-1.4c0.2-0.5,0.4-1.1,0.5-1.8C19,21,19,20.4,19,19.9V19L18.9,19c-0.2,0.5-0.6,0.9-1.1,1.2
								c-0.5,0.3-1,0.5-1.4,0.5c-0.9,0-1.6-0.2-2.2-0.6c-0.5-0.4-0.9-0.9-1.2-1.5c-0.3-0.6-0.4-1.3-0.4-2c0-0.7,0.2-1.4,0.5-2.1
								c0.3-0.7,0.8-1.3,1.4-1.8c0.6-0.5,1.3-0.7,2.1-0.7c0.8,0,1.6,0.3,2.2,0.8c0.6,0.5,1.1,1.3,1.5,2.2c0.3,1,0.5,2.1,0.5,3.4
								c0,1.1-0.1,2.1-0.4,3.1c-0.3,1-0.7,1.9-1.2,2.5c-0.9,1.2-2.1,1.8-3.3,1.8C15,25.9,14.3,25.6,13.7,25z M17.6,19.5
								c0.4-0.3,0.7-0.7,0.9-1.3c0.2-0.5,0.3-1.2,0.3-1.9c0-1.1-0.2-2-0.5-2.6c-0.3-0.7-0.9-1-1.7-1c-0.8,0-1.4,0.4-1.7,1.1
								c-0.4,0.8-0.5,1.6-0.5,2.6c0,1,0.2,1.9,0.5,2.6c0.3,0.7,0.8,1,1.6,1C16.8,19.9,17.2,19.8,17.6,19.5z"/>
						</g>
					</g>
				</g>
			</g>
			<g>
				<g>
					<g>
						<path class="st2" d="M143.9,199.6c1,1.1,2.6,0.5,2.6,0.5c-0.4,0.5-0.7,0.9-0.7,1.6c0,0,0,0.1,0,0.1c0,1.2,1,2.2,2.2,2.2
							c1.2,0,2.2-1,2.2-2.2c0-0.2,0-0.3,0-0.5c-0.1-0.5-0.3-0.9-0.7-1.3c0,0,1.6,0.7,2.6-0.5c1-1.1,0.5-2.5,0.2-2.9
							c-0.3-0.4-0.8-1.2-2-1.1c-1,0.1-1.2,0.2-1.9,0.8c0.1-1.5,1-2.6,1-2.6h-0.1H148h-1.5h-0.1c0.6,0.6,1.1,1.9,1,2.6
							c-0.7-0.5-0.8-0.7-1.8-0.8c-1.1-0.1-1.6,0.7-2,1.1C143.4,197.1,142.9,198.5,143.9,199.6z"/>
					</g>
				</g>
				<g>
					<g>
						<g>
							<path d="M152,208.5c0.2,0.2,0.3,0.5,0.4,0.8c0.1,0.3,0.1,0.5,0.1,0.8c0,0.5-0.2,0.8-0.5,1.1c-0.2,0.2-0.5,0.3-0.8,0.3
								c-0.3,0-0.5-0.1-0.7-0.3c-0.1-0.1-0.1-0.2-0.1-0.3c0-0.1,0-0.2,0-0.3c0-0.2,0.1-0.4,0.3-0.6c0.1-0.1,0.2-0.2,0.4-0.3
								c0.1-0.1,0.2-0.2,0.2-0.2c0-0.1,0.1-0.2,0.1-0.3c0-0.2-0.1-0.4-0.4-0.6c-0.3-0.2-0.7-0.3-1.2-0.3c-0.5,0-0.9,0.1-1.3,0.4
								c-0.4,0.3-0.8,0.7-1.1,1.4c-0.2,0.5-0.4,1.1-0.5,1.8c-0.1,0.7-0.2,1.3-0.2,1.8v0.9l0.1,0.1c0.2-0.5,0.6-0.9,1.1-1.2
								c0.5-0.3,1-0.5,1.4-0.5c0.9,0,1.6,0.2,2.2,0.6c0.5,0.4,0.9,0.9,1.2,1.5c0.3,0.6,0.4,1.3,0.4,2c0,0.7-0.2,1.4-0.5,2.1
								c-0.3,0.7-0.8,1.3-1.4,1.8c-0.6,0.5-1.3,0.7-2.1,0.7c-0.8,0-1.6-0.3-2.2-0.8s-1.1-1.3-1.5-2.2c-0.3-1-0.5-2.1-0.5-3.4
								c0-1.1,0.1-2.1,0.4-3.1c0.3-1,0.7-1.9,1.2-2.5c0.9-1.2,2.1-1.8,3.3-1.8C150.7,207.6,151.5,207.9,152,208.5z M148.1,214
								c-0.4,0.3-0.7,0.7-0.9,1.3c-0.2,0.5-0.3,1.2-0.3,1.9c0,1.1,0.2,2,0.5,2.6c0.3,0.7,0.9,1,1.7,1c0.8,0,1.4-0.4,1.7-1.1
								c0.4-0.8,0.5-1.6,0.5-2.6c0-1-0.2-1.9-0.5-2.6c-0.3-0.7-0.8-1-1.6-1C148.9,213.5,148.5,213.7,148.1,214z"/>
						</g>
					</g>
				</g>
			</g>
			<g>
				<path class="st2" d="M96.6,116.7c-3.6-3.9-9.1-1.6-9.1-1.6c1.5-1.6,2.6-2.9,2.4-5.6c0-0.1,0-0.2,0-0.3c0-4.3-3.5-7.7-7.7-7.7
					c-4.3,0-7.7,3.5-7.7,7.7c0,0.5,0.1,1.1,0.2,1.6c0.2,1.9,1.1,3,2.4,4.3c0,0-5.5-2.3-9.1,1.6c-3.6,3.9-1.8,8.5-0.7,10.1
					c1.1,1.5,2.8,4.1,6.8,3.8c3.5-0.3,4-0.9,6.5-2.8c-0.3,5.3-3.5,8.9-3.5,8.9h0.2h5.1h5.1h0.2c-1.9-2-3.7-6.7-3.4-8.9
					c2.4,1.9,2.9,2.5,6.4,2.7c4,0.3,5.7-2.3,6.8-3.8C98.4,125.3,100.1,120.6,96.6,116.7z"/>
			</g>
			<g>
				<path class="st2" d="M58.5,41.1c-3.6-3.9-9.1-1.6-9.1-1.6c1.5-1.6,2.6-2.9,2.4-5.6c0-0.1,0-0.2,0-0.3c0-4.3-3.5-7.7-7.7-7.7
					c-4.3,0-7.7,3.5-7.7,7.7c0,0.5,0.1,1.1,0.2,1.6c0.2,1.9,1.1,3,2.4,4.3c0,0-5.5-2.3-9.1,1.6c-3.6,3.9-1.8,8.5-0.7,10.1
					c1.1,1.5,2.8,4.1,6.8,3.8c3.5-0.3,4-0.9,6.5-2.8c-0.3,5.3-3.5,8.9-3.5,8.9H39h5.1h5.1h0.2c-1.9-2-3.7-6.7-3.4-8.9
					c2.4,1.9,2.9,2.5,6.4,2.7c4,0.3,5.7-2.3,6.8-3.8C60.3,49.7,62.1,45,58.5,41.1z"/>
			</g>
			<g>
				<path class="st2" d="M58.5,91.3c-3.6-3.9-9.1-1.6-9.1-1.6c1.5-1.6,2.6-2.9,2.4-5.6c0-0.1,0-0.2,0-0.3c0-4.3-3.5-7.7-7.7-7.7
					c-4.3,0-7.7,3.5-7.7,7.7c0,0.5,0.1,1.1,0.2,1.6c0.2,1.9,1.1,3,2.4,4.3c0,0-5.5-2.3-9.1,1.6c-3.6,3.9-1.8,8.5-0.7,10.1
					c1.1,1.5,2.8,4.1,6.8,3.8c3.5-0.3,4-0.9,6.5-2.8c-0.3,5.3-3.5,8.9-3.5,8.9H39h5.1h5.1h0.2c-1.9-2-3.7-6.7-3.4-8.9
					c2.4,1.9,2.9,2.5,6.4,2.7c4,0.3,5.7-2.3,6.8-3.8C60.3,99.8,62.1,95.2,58.5,91.3z"/>
			</g>
			<g>
				<path class="st2" d="M58.5,196.4c-3.6,3.9-9.1,1.6-9.1,1.6c1.5,1.6,2.6,2.9,2.4,5.6c0,0.1,0,0.2,0,0.3c0,4.3-3.5,7.7-7.7,7.7
					c-4.3,0-7.7-3.5-7.7-7.7c0-0.5,0.1-1.1,0.2-1.6c0.2-1.9,1.1-3,2.4-4.3c0,0-5.5,2.3-9.1-1.6c-3.6-3.9-1.8-8.5-0.7-10.1
					c1.1-1.5,2.8-4.1,6.8-3.8c3.5,0.3,4,0.9,6.5,2.8c-0.3-5.3-3.5-8.9-3.5-8.9H39h5.1h5.1h0.2c-1.9,2-3.7,6.7-3.4,8.9
					c2.4-1.9,2.9-2.5,6.4-2.7c4-0.3,5.7,2.3,6.8,3.8C60.3,187.8,62.1,192.5,58.5,196.4z"/>
			</g>
			<g>
				<path class="st2" d="M136.7,41.1c-3.6-3.9-9.1-1.6-9.1-1.6c1.5-1.6,2.6-2.9,2.4-5.6c0-0.1,0-0.2,0-0.3c0-4.3-3.5-7.7-7.7-7.7
					c-4.3,0-7.7,3.5-7.7,7.7c0,0.5,0.1,1.1,0.2,1.6c0.2,1.9,1.1,3,2.4,4.3c0,0-5.5-2.3-9.1,1.6c-3.6,3.9-1.8,8.5-0.7,10.1
					c1.1,1.5,2.8,4.1,6.8,3.8c3.5-0.3,4-0.9,6.5-2.8c-0.3,5.3-3.5,8.9-3.5,8.9h0.2h5.1h5.1h0.2c-1.9-2-3.7-6.7-3.4-8.9
					c2.4,1.9,2.9,2.5,6.4,2.7c4,0.3,5.7-2.3,6.8-3.8C138.5,49.7,140.3,45,136.7,41.1z"/>
			</g>
			<g>
				<path class="st2" d="M136.7,91.3c-3.6-3.9-9.1-1.6-9.1-1.6c1.5-1.6,2.6-2.9,2.4-5.6c0-0.1,0-0.2,0-0.3c0-4.3-3.5-7.7-7.7-7.7
					c-4.3,0-7.7,3.5-7.7,7.7c0,0.5,0.1,1.1,0.2,1.6c0.2,1.9,1.1,3,2.4,4.3c0,0-5.5-2.3-9.1,1.6c-3.6,3.9-1.8,8.5-0.7,10.1
					c1.1,1.5,2.8,4.1,6.8,3.8c3.5-0.3,4-0.9,6.5-2.8c-0.3,5.3-3.5,8.9-3.5,8.9h0.2h5.1h5.1h0.2c-1.9-2-3.7-6.7-3.4-8.9
					c2.4,1.9,2.9,2.5,6.4,2.7c4,0.3,5.7-2.3,6.8-3.8C138.5,99.8,140.3,95.2,136.7,91.3z"/>
			</g>
			<g>
				<path class="st2" d="M136.7,196.4c-3.6,3.9-9.1,1.6-9.1,1.6c1.5,1.6,2.6,2.9,2.4,5.6c0,0.1,0,0.2,0,0.3c0,4.3-3.5,7.7-7.7,7.7
					c-4.3,0-7.7-3.5-7.7-7.7c0-0.5,0.1-1.1,0.2-1.6c0.2-1.9,1.1-3,2.4-4.3c0,0-5.5,2.3-9.1-1.6c-3.6-3.9-1.8-8.5-0.7-10.1
					c1.1-1.5,2.8-4.1,6.8-3.8c3.5,0.3,4,0.9,6.5,2.8c-0.3-5.3-3.5-8.9-3.5-8.9h0.2h5.1h5.1h0.2c-1.9,2-3.7,6.7-3.4,8.9
					c2.4-1.9,2.9-2.5,6.4-2.7c4-0.3,5.7,2.3,6.8,3.8C138.5,187.8,140.3,192.5,136.7,196.4z"/>
			</g>
			<g>
				<path class="st2" d="M58.5,146.2c-3.6,3.9-9.1,1.6-9.1,1.6c1.5,1.6,2.6,2.9,2.4,5.6c0,0.1,0,0.2,0,0.3c0,4.3-3.5,7.7-7.7,7.7
					c-4.3,0-7.7-3.5-7.7-7.7c0-0.5,0.1-1.1,0.2-1.6c0.2-1.9,1.1-3,2.4-4.3c0,0-5.5,2.3-9.1-1.6c-3.6-3.9-1.8-8.5-0.7-10.1
					c1.1-1.5,2.8-4.1,6.8-3.8c3.5,0.3,4,0.9,6.5,2.8c-0.3-5.3-3.5-8.9-3.5-8.9H39h5.1h5.1h0.2c-1.9,2-3.7,6.7-3.4,8.9
					c2.4-1.9,2.9-2.5,6.4-2.7c4-0.3,5.7,2.3,6.8,3.8C60.3,137.7,62.1,142.3,58.5,146.2z"/>
			</g>
			<g>
				<path class="st2" d="M136.7,146.2c-3.6,3.9-9.1,1.6-9.1,1.6c1.5,1.6,2.6,2.9,2.4,5.6c0,0.1,0,0.2,0,0.3c0,4.3-3.5,7.7-7.7,7.7
					c-4.3,0-7.7-3.5-7.7-7.7c0-0.5,0.1-1.1,0.2-1.6c0.2-1.9,1.1-3,2.4-4.3c0,0-5.5,2.3-9.1-1.6c-3.6-3.9-1.8-8.5-0.7-10.1
					c1.1-1.5,2.8-4.1,6.8-3.8c3.5,0.3,4,0.9,6.5,2.8c-0.3-5.3-3.5-8.9-3.5-8.9h0.2h5.1h5.1h0.2c-1.9,2-3.7,6.7-3.4,8.9
					c2.4-1.9,2.9-2.5,6.4-2.7c4-0.3,5.7,2.3,6.8,3.8C138.5,137.7,140.3,142.3,136.7,146.2z"/>
			</g>
		</g>
	</g>
</g>
</svg>
