<?xml version="1.0" encoding="utf-8"?>
<!-- Generator: Adobe Illustrator 25.0.0, SVG Export Plug-In . SVG Version: 6.00 Build 0)  -->
<svg version="1.1" id="Ebene_1" xmlns="http://www.w3.org/2000/svg" xmlns:xlink="http://www.w3.org/1999/xlink" x="0px" y="0px"
	 viewBox="0 0 167 234" style="enable-background:new 0 0 167 234;" xml:space="preserve">
<style type="text/css">
	.st0{fill:#FFFFFF;}
	.st1{fill:#161616;}
	.st2{fill:#0D0D0D;}
</style>
<g>
	<g>
		<g>
			<path class="st0" d="M160.7,233.4H6.3c-3.3,0-5.9-2.7-5.9-5.9V6.5c0-3.3,2.7-5.9,5.9-5.9h154.5c3.3,0,5.9,2.7,5.9,5.9v221
				C166.7,230.8,164,233.4,160.7,233.4z"/>
			<path class="st1" d="M160.7,233.6H6.3c-3.3,0-6.1-2.7-6.1-6.1V6.5c0-3.3,2.7-6.1,6.1-6.1h154.5c3.3,0,6.1,2.7,6.1,6.1v221
				C166.8,230.8,164.1,233.6,160.7,233.6z M6.3,0.7C3,0.7,0.4,3.3,0.4,6.5v221c0,3.2,2.6,5.8,5.8,5.8h154.5c3.2,0,5.8-2.6,5.8-5.8
				V6.5c0-3.2-2.6-5.8-5.8-5.8H6.3z"/>
		</g>
	</g>
	<g>
		<path class="st0" d="M149.4,18.9c0,0.3-0.3,0.6-0.6,0.6c-0.3,0-0.6-0.3-0.6-0.6s0.3-0.6,0.6-0.6C149.1,18.3,149.4,18.6,149.4,18.9
			z"/>
	</g>
	<g>
		<path class="st0" d="M122.3,18.9c0,0.3-0.3,0.6-0.6,0.6s-0.6-0.3-0.6-0.6s0.3-0.6,0.6-0.6S122.3,18.6,122.3,18.9z"/>
	</g>
	<g>
		<path class="st0" d="M97.3,18.9c0,0.3-0.3,0.6-0.6,0.6s-0.6-0.3-0.6-0.6s0.3-0.6,0.6-0.6S97.3,18.6,97.3,18.9z"/>
	</g>
	<g>
		<path class="st0" d="M72.3,19.1c0,0.3-0.3,0.6-0.6,0.6s-0.6-0.3-0.6-0.6c0-0.3,0.3-0.6,0.6-0.6S72.3,18.8,72.3,19.1z"/>
	</g>
	<g>
		<path class="st0" d="M149.4,40.1c0,0.3-0.3,0.6-0.6,0.6c-0.3,0-0.6-0.3-0.6-0.6c0-0.3,0.3-0.6,0.6-0.6
			C149.1,39.5,149.4,39.7,149.4,40.1z"/>
	</g>
	<g>
		<path class="st0" d="M149.4,59.3c0,0.3-0.3,0.6-0.6,0.6c-0.3,0-0.6-0.3-0.6-0.6s0.3-0.6,0.6-0.6C149.1,58.8,149.4,59,149.4,59.3z"
			/>
	</g>
	<g>
		<path class="st0" d="M149.4,79.6c0,0.3-0.3,0.6-0.6,0.6c-0.3,0-0.6-0.3-0.6-0.6c0-0.3,0.3-0.6,0.6-0.6
			C149.1,79,149.4,79.3,149.4,79.6z"/>
	</g>
	<g>
		<path class="st0" d="M149.4,92.3c0,0.3-0.3,0.6-0.6,0.6c-0.3,0-0.6-0.3-0.6-0.6c0-0.3,0.3-0.6,0.6-0.6
			C149.1,91.8,149.4,92,149.4,92.3z"/>
	</g>
	<g>
		<path class="st0" d="M149.4,105.2c0,0.3-0.3,0.6-0.6,0.6c-0.3,0-0.6-0.3-0.6-0.6s0.3-0.6,0.6-0.6
			C149.1,104.6,149.4,104.9,149.4,105.2z"/>
	</g>
	<g>
		<path class="st0" d="M19.1,19.5c0,0.3-0.3,0.6-0.6,0.6c-0.3,0-0.6-0.3-0.6-0.6c0-0.3,0.3-0.6,0.6-0.6
			C18.9,18.9,19.1,19.2,19.1,19.5z"/>
	</g>
	<g>
		<path class="st0" d="M46.5,19.1c0,0.3-0.3,0.6-0.6,0.6c-0.3,0-0.6-0.3-0.6-0.6c0-0.3,0.3-0.6,0.6-0.6
			C46.3,18.5,46.5,18.8,46.5,19.1z"/>
	</g>
	<g>
		<path class="st0" d="M19.1,39.6c0,0.3-0.3,0.6-0.6,0.6c-0.3,0-0.6-0.3-0.6-0.6c0-0.3,0.3-0.6,0.6-0.6C18.9,39,19.1,39.3,19.1,39.6
			z"/>
	</g>
	<g>
		<path class="st0" d="M19.1,59.5c0,0.3-0.3,0.6-0.6,0.6c-0.3,0-0.6-0.3-0.6-0.6c0-0.3,0.3-0.6,0.6-0.6
			C18.9,58.9,19.1,59.2,19.1,59.5z"/>
	</g>
	<g>
		<path class="st0" d="M19.1,79.4c0,0.3-0.3,0.6-0.6,0.6c-0.3,0-0.6-0.3-0.6-0.6c0-0.3,0.3-0.6,0.6-0.6
			C18.9,78.9,19.1,79.1,19.1,79.4z"/>
	</g>
	<g>
		<path class="st0" d="M19.1,92.3c0,0.3-0.3,0.6-0.6,0.6c-0.3,0-0.6-0.3-0.6-0.6c0-0.3,0.3-0.6,0.6-0.6C18.9,91.8,19.1,92,19.1,92.3
			z"/>
	</g>
	<g>
		<path class="st0" d="M19.1,105.7c0,0.3-0.3,0.6-0.6,0.6c-0.3,0-0.6-0.3-0.6-0.6c0-0.3,0.3-0.6,0.6-0.6
			C18.9,105.2,19.1,105.4,19.1,105.7z"/>
	</g>
	<g>
		<path class="st0" d="M19.1,118.7c0,0.3-0.3,0.6-0.6,0.6c-0.3,0-0.6-0.3-0.6-0.6c0-0.3,0.3-0.6,0.6-0.6
			C18.9,118.1,19.1,118.4,19.1,118.7z"/>
	</g>
	<g>
		<path class="st0" d="M19.1,131.6c0,0.3-0.3,0.6-0.6,0.6c-0.3,0-0.6-0.3-0.6-0.6c0-0.3,0.3-0.6,0.6-0.6
			C18.9,131,19.1,131.3,19.1,131.6z"/>
	</g>
	<g>
		<path class="st0" d="M19.1,145c0,0.3-0.3,0.6-0.6,0.6c-0.3,0-0.6-0.3-0.6-0.6c0-0.3,0.3-0.6,0.6-0.6
			C18.9,144.4,19.1,144.7,19.1,145z"/>
	</g>
	<g>
		<path class="st0" d="M19.1,158.4c0,0.3-0.3,0.6-0.6,0.6c-0.3,0-0.6-0.3-0.6-0.6c0-0.3,0.3-0.6,0.6-0.6
			C18.9,157.9,19.1,158.1,19.1,158.4z"/>
	</g>
	<g>
		<path class="st0" d="M19.1,170.4c0,0.3-0.3,0.6-0.6,0.6c-0.3,0-0.6-0.3-0.6-0.6s0.3-0.6,0.6-0.6C18.9,169.9,19.1,170.1,19.1,170.4
			z"/>
	</g>
	<g>
		<path class="st0" d="M19.1,183.8c0,0.3-0.3,0.6-0.6,0.6c-0.3,0-0.6-0.3-0.6-0.6c0-0.3,0.3-0.6,0.6-0.6
			C18.9,183.3,19.1,183.5,19.1,183.8z"/>
	</g>
	<g>
		<path class="st0" d="M19.1,196.9c0,0.3-0.3,0.6-0.6,0.6c-0.3,0-0.6-0.3-0.6-0.6c0-0.3,0.3-0.6,0.6-0.6
			C18.9,196.3,19.1,196.6,19.1,196.9z"/>
	</g>
	<g>
		<path class="st0" d="M19.3,216.1c0,0.3-0.3,0.6-0.6,0.6c-0.3,0-0.6-0.3-0.6-0.6s0.3-0.6,0.6-0.6C19.1,215.5,19.3,215.7,19.3,216.1
			z"/>
	</g>
	<g>
		<path class="st0" d="M39.9,216.6c0,0.3-0.3,0.6-0.6,0.6s-0.6-0.3-0.6-0.6c0-0.3,0.3-0.6,0.6-0.6S39.9,216.3,39.9,216.6z"/>
	</g>
	<g>
		<path class="st0" d="M66.3,216.6c0,0.3-0.3,0.6-0.6,0.6c-0.3,0-0.6-0.3-0.6-0.6c0-0.3,0.3-0.6,0.6-0.6
			C66.1,216.1,66.3,216.3,66.3,216.6z"/>
	</g>
	<g>
		<path class="st0" d="M92.7,216.6c0,0.3-0.3,0.6-0.6,0.6c-0.3,0-0.6-0.3-0.6-0.6c0-0.3,0.3-0.6,0.6-0.6
			C92.5,216.1,92.7,216.3,92.7,216.6z"/>
	</g>
	<g>
		<path class="st0" d="M118.4,216.6c0,0.3-0.3,0.6-0.6,0.6c-0.3,0-0.6-0.3-0.6-0.6c0-0.3,0.3-0.6,0.6-0.6
			C118.2,216.1,118.4,216.3,118.4,216.6z"/>
	</g>
	<g>
		<path class="st0" d="M149.4,118.4c0,0.3-0.3,0.6-0.6,0.6c-0.3,0-0.6-0.3-0.6-0.6c0-0.3,0.3-0.6,0.6-0.6
			C149.1,117.8,149.4,118,149.4,118.4z"/>
	</g>
	<g>
		<path class="st0" d="M149.4,130.7c0,0.3-0.3,0.6-0.6,0.6c-0.3,0-0.6-0.3-0.6-0.6s0.3-0.6,0.6-0.6
			C149.1,130.1,149.4,130.4,149.4,130.7z"/>
	</g>
	<g>
		<path class="st0" d="M149.4,144c0,0.3-0.3,0.6-0.6,0.6c-0.3,0-0.6-0.3-0.6-0.6c0-0.3,0.3-0.6,0.6-0.6
			C149.1,143.4,149.4,143.7,149.4,144z"/>
	</g>
	<g>
		<path class="st0" d="M149.4,157.1c0,0.3-0.3,0.6-0.6,0.6c-0.3,0-0.6-0.3-0.6-0.6c0-0.3,0.3-0.6,0.6-0.6
			C149.1,156.5,149.4,156.8,149.4,157.1z"/>
	</g>
	<g>
		<path class="st0" d="M149.4,169.8c0,0.3-0.3,0.6-0.6,0.6c-0.3,0-0.6-0.3-0.6-0.6c0-0.3,0.3-0.6,0.6-0.6
			C149.1,169.3,149.4,169.5,149.4,169.8z"/>
	</g>
	<g>
		<path class="st0" d="M149.4,182.4c0,0.3-0.3,0.6-0.6,0.6c-0.3,0-0.6-0.3-0.6-0.6s0.3-0.6,0.6-0.6
			C149.1,181.8,149.4,182.1,149.4,182.4z"/>
	</g>
	<g>
		<path class="st0" d="M149.4,195.3c0,0.3-0.3,0.6-0.6,0.6c-0.3,0-0.6-0.3-0.6-0.6c0-0.3,0.3-0.6,0.6-0.6
			C149.1,194.7,149.4,194.9,149.4,195.3z"/>
	</g>
	<g>
		<path class="st0" d="M149.4,214.8c0,0.3-0.3,0.6-0.6,0.6c-0.3,0-0.6-0.3-0.6-0.6c0-0.3,0.3-0.6,0.6-0.6
			C149.1,214.3,149.4,214.5,149.4,214.8z"/>
	</g>
	<g>
		<g>
			<g>
				<path class="st2" d="M24.3,34.5c-1-1.1-2.6-0.5-2.6-0.5c0.4-0.5,0.7-0.9,0.7-1.6c0,0,0-0.1,0-0.1c0-1.2-1-2.2-2.2-2.2
					s-2.2,1-2.2,2.2c0,0.2,0,0.3,0,0.5c0.1,0.5,0.3,0.9,0.7,1.3c0,0-1.6-0.7-2.6,0.5c-1,1.1-0.5,2.5-0.2,2.9c0.3,0.4,0.8,1.2,2,1.1
					c1-0.1,1.2-0.2,1.9-0.8c-0.1,1.5-1,2.6-1,2.6h0.1h1.5h1.5h0.1c-0.6-0.6-1.1-1.9-1-2.6c0.7,0.5,0.8,0.7,1.8,0.8
					c1.1,0.1,1.6-0.7,2-1.1C24.8,37,25.4,35.7,24.3,34.5z"/>
			</g>
			<g>
				<g>
					<path d="M16.9,26.1c-0.7-0.3-1.2-0.7-1.6-1.3c-0.4-0.6-0.6-1.2-0.6-2c0-0.9,0.3-1.7,0.8-2.2c0.5-0.5,1.1-0.9,1.7-1v-0.1
						L17,19.5c-0.7-0.3-1.2-0.7-1.6-1.3c-0.4-0.6-0.5-1.2-0.5-1.9c0-0.7,0.2-1.3,0.6-1.8c0.4-0.6,1-1,1.6-1.3
						c0.7-0.3,1.3-0.5,2.1-0.5c0.9,0,1.6,0.2,2.2,0.5s1.1,0.7,1.4,1.2c0.3,0.5,0.5,1.1,0.5,1.6c0,0.7-0.2,1.3-0.7,1.8
						c-0.4,0.5-1,0.9-1.6,1.2v0.1l0.4,0.2c1.5,0.6,2.3,1.6,2.3,2.9c0,0.8-0.2,1.5-0.6,2.2c-0.4,0.7-0.9,1.2-1.6,1.6
						c-0.7,0.4-1.6,0.6-2.6,0.6C18.3,26.6,17.6,26.4,16.9,26.1z M21,25.5c0.5-0.3,0.8-0.7,1-1.1c0.2-0.4,0.3-0.8,0.3-1.2
						c0-0.7-0.2-1.3-0.5-1.6c-0.3-0.3-0.8-0.6-1.4-0.9l-2.6-1c-0.5,0.2-0.9,0.6-1.2,1c-0.3,0.5-0.4,1.2-0.4,2.1c0,1,0.3,1.8,0.9,2.3
						c0.6,0.5,1.4,0.7,2.2,0.7C20,26,20.6,25.8,21,25.5z M21.7,17.7c0.2-0.5,0.3-1,0.3-1.6c0-0.5-0.1-1-0.4-1.4
						c-0.3-0.4-0.6-0.8-1-1c-0.4-0.2-0.9-0.4-1.4-0.4c-0.8,0-1.5,0.2-2,0.7c-0.5,0.5-0.8,1.1-0.8,1.8c0,0.5,0.1,1,0.4,1.3
						c0.3,0.3,0.7,0.6,1.3,0.8l2.5,1C21.1,18.6,21.5,18.2,21.7,17.7z"/>
				</g>
			</g>
		</g>
		<g>
			<g>
				<path class="st2" d="M146.4,200.3c1,1.1,2.6,0.5,2.6,0.5c-0.4,0.5-0.7,0.9-0.7,1.6c0,0,0,0.1,0,0.1c0,1.2,1,2.2,2.2,2.2
					s2.2-1,2.2-2.2c0-0.2,0-0.3,0-0.5c-0.1-0.5-0.3-0.9-0.7-1.3c0,0,1.6,0.7,2.6-0.5c1-1.1,0.5-2.5,0.2-2.9c-0.3-0.4-0.8-1.2-2-1.1
					c-1,0.1-1.2,0.2-1.9,0.8c0.1-1.5,1-2.6,1-2.6H152h-1.5h-1.5H149c0.6,0.6,1.1,1.9,1,2.6c-0.7-0.5-0.8-0.7-1.8-0.8
					c-1.1-0.1-1.6,0.7-2,1.1C145.9,197.8,145.3,199.1,146.4,200.3z"/>
			</g>
			<g>
				<g>
					<path d="M153.8,208.7c0.7,0.3,1.2,0.7,1.6,1.3c0.4,0.6,0.6,1.2,0.6,2c0,0.9-0.3,1.7-0.8,2.2s-1.1,0.9-1.7,1v0.1l0.2,0.1
						c0.7,0.3,1.2,0.7,1.6,1.3c0.4,0.6,0.5,1.2,0.5,1.9c0,0.7-0.2,1.3-0.6,1.8c-0.4,0.5-1,1-1.6,1.3c-0.7,0.3-1.3,0.5-2.1,0.5
						c-0.9,0-1.6-0.2-2.2-0.5c-0.6-0.3-1.1-0.7-1.4-1.2c-0.3-0.5-0.5-1.1-0.5-1.6c0-0.7,0.2-1.3,0.7-1.8c0.4-0.5,1-0.9,1.6-1.2v-0.1
						l-0.4-0.2c-1.5-0.6-2.3-1.6-2.3-2.9c0-0.8,0.2-1.5,0.6-2.2c0.4-0.7,0.9-1.2,1.6-1.6c0.7-0.4,1.6-0.6,2.6-0.6
						C152.4,208.2,153.1,208.4,153.8,208.7z M149.7,209.3c-0.5,0.3-0.8,0.7-1,1.1c-0.2,0.4-0.3,0.8-0.3,1.2c0,0.7,0.2,1.3,0.5,1.6
						c0.3,0.3,0.8,0.6,1.4,0.9l2.6,1c0.5-0.2,0.9-0.6,1.2-1c0.3-0.5,0.4-1.2,0.4-2.1c0-1-0.3-1.8-0.9-2.3c-0.6-0.5-1.4-0.7-2.2-0.7
						C150.7,208.8,150.1,209,149.7,209.3z M149,217.1c-0.2,0.5-0.3,1-0.3,1.6c0,0.5,0.1,1,0.4,1.4c0.3,0.4,0.6,0.8,1,1
						c0.4,0.2,0.9,0.4,1.4,0.4c0.8,0,1.5-0.2,2-0.7c0.5-0.5,0.8-1.1,0.8-1.8c0-0.5-0.1-1-0.4-1.3c-0.3-0.3-0.7-0.6-1.3-0.8l-2.5-1
						C149.6,216.2,149.2,216.6,149,217.1z"/>
				</g>
			</g>
		</g>
		<g>
			<path class="st2" d="M97.9,80.4c-3.6-3.9-9.1-1.6-9.1-1.6c1.5-1.6,2.6-2.9,2.4-5.6c0-0.1,0-0.2,0-0.3c0-4.3-3.5-7.7-7.7-7.7
				s-7.7,3.5-7.7,7.7c0,0.5,0.1,1.1,0.2,1.6c0.2,1.9,1.1,3,2.4,4.3c0,0-5.5-2.3-9.1,1.6c-3.6,3.9-1.8,8.5-0.7,10.1
				c1.1,1.5,2.8,4.1,6.8,3.8c3.5-0.3,4-0.9,6.5-2.8c-0.3,5.3-3.5,8.9-3.5,8.9h0.2h5.1h5.1h0.2c-1.9-2-3.7-6.7-3.4-8.9
				c2.4,1.9,2.9,2.5,6.4,2.7c4,0.3,5.7-2.3,6.8-3.8C99.7,89,101.5,84.3,97.9,80.4z"/>
		</g>
		<g>
			<path class="st2" d="M60.8,45.5c-3.6-3.9-9.1-1.6-9.1-1.6c1.5-1.6,2.6-2.9,2.4-5.6c0-0.1,0-0.2,0-0.3c0-4.3-3.5-7.7-7.7-7.7
				s-7.7,3.5-7.7,7.7c0,0.5,0.1,1.1,0.2,1.6c0.2,1.9,1.1,3,2.4,4.3c0,0-5.5-2.3-9.1,1.6s-1.8,8.5-0.7,10.1c1.1,1.5,2.8,4.1,6.8,3.8
				c3.5-0.3,4-0.9,6.5-2.8c-0.3,5.3-3.5,8.9-3.5,8.9h0.2h5.1h5.1h0.2c-1.9-2-3.7-6.7-3.4-8.9c2.4,1.9,2.9,2.5,6.4,2.7
				c4,0.3,5.7-2.3,6.8-3.8C62.5,54,64.3,49.4,60.8,45.5z"/>
		</g>
		<g>
			<path class="st2" d="M60.8,115.5c-3.6-3.9-9.1-1.6-9.1-1.6c1.5-1.6,2.6-2.9,2.4-5.6c0-0.1,0-0.2,0-0.3c0-4.3-3.5-7.7-7.7-7.7
				s-7.7,3.5-7.7,7.7c0,0.5,0.1,1.1,0.2,1.6c0.2,1.9,1.1,3,2.4,4.3c0,0-5.5-2.3-9.1,1.6s-1.8,8.5-0.7,10.1c1.1,1.5,2.8,4.1,6.8,3.8
				c3.5-0.3,4-0.9,6.5-2.8c-0.3,5.3-3.5,8.9-3.5,8.9h0.2h5.1h5.1h0.2c-1.9-2-3.7-6.7-3.4-8.9c2.4,1.9,2.9,2.5,6.4,2.7
				c4,0.3,5.7-2.3,6.8-3.8C62.5,124.1,64.3,119.4,60.8,115.5z"/>
		</g>
		<g>
			<path class="st2" d="M60.8,189.6c-3.6,3.9-9.1,1.6-9.1,1.6c1.5,1.6,2.6,2.9,2.4,5.6c0,0.1,0,0.2,0,0.3c0,4.3-3.5,7.7-7.7,7.7
				s-7.7-3.5-7.7-7.7c0-0.5,0.1-1.1,0.2-1.6c0.2-1.9,1.1-3,2.4-4.3c0,0-5.5,2.3-9.1-1.6s-1.8-8.5-0.7-10.1c1.1-1.5,2.8-4.1,6.8-3.8
				c3.5,0.3,4,0.9,6.5,2.8c-0.3-5.3-3.5-8.9-3.5-8.9h0.2h5.1h5.1h0.2c-1.9,2-3.7,6.7-3.4,8.9c2.4-1.9,2.9-2.5,6.4-2.7
				c4-0.3,5.7,2.3,6.8,3.8C62.5,181.1,64.3,185.7,60.8,189.6z"/>
		</g>
		<g>
			<path class="st2" d="M139,45.5c-3.6-3.9-9.1-1.6-9.1-1.6c1.5-1.6,2.6-2.9,2.4-5.6c0-0.1,0-0.2,0-0.3c0-4.3-3.5-7.7-7.7-7.7
				s-7.7,3.5-7.7,7.7c0,0.5,0.1,1.1,0.2,1.6c0.2,1.9,1.1,3,2.4,4.3c0,0-5.5-2.3-9.1,1.6s-1.8,8.5-0.7,10.1c1.1,1.5,2.8,4.1,6.8,3.8
				c3.5-0.3,4-0.9,6.5-2.8c-0.3,5.3-3.5,8.9-3.5,8.9h0.2h5.1h5.1h0.2c-1.9-2-3.7-6.7-3.4-8.9c2.4,1.9,2.9,2.5,6.4,2.7
				c4,0.3,5.7-2.3,6.8-3.8C140.8,54,142.6,49.4,139,45.5z"/>
		</g>
		<g>
			<path class="st2" d="M139,115.5c-3.6-3.9-9.1-1.6-9.1-1.6c1.5-1.6,2.6-2.9,2.4-5.6c0-0.1,0-0.2,0-0.3c0-4.3-3.5-7.7-7.7-7.7
				s-7.7,3.5-7.7,7.7c0,0.5,0.1,1.1,0.2,1.6c0.2,1.9,1.1,3,2.4,4.3c0,0-5.5-2.3-9.1,1.6s-1.8,8.5-0.7,10.1c1.1,1.5,2.8,4.1,6.8,3.8
				c3.5-0.3,4-0.9,6.5-2.8c-0.3,5.3-3.5,8.9-3.5,8.9h0.2h5.1h5.1h0.2c-1.9-2-3.7-6.7-3.4-8.9c2.4,1.9,2.9,2.5,6.4,2.7
				c4,0.3,5.7-2.3,6.8-3.8C140.8,124.1,142.6,119.4,139,115.5z"/>
		</g>
		<g>
			<path class="st2" d="M139,189.6c-3.6,3.9-9.1,1.6-9.1,1.6c1.5,1.6,2.6,2.9,2.4,5.6c0,0.1,0,0.2,0,0.3c0,4.3-3.5,7.7-7.7,7.7
				s-7.7-3.5-7.7-7.7c0-0.5,0.1-1.1,0.2-1.6c0.2-1.9,1.1-3,2.4-4.3c0,0-5.5,2.3-9.1-1.6s-1.8-8.5-0.7-10.1c1.1-1.5,2.8-4.1,6.8-3.8
				c3.5,0.3,4,0.9,6.5,2.8c-0.3-5.3-3.5-8.9-3.5-8.9h0.2h5.1h5.1h0.2c-1.9,2-3.7,6.7-3.4,8.9c2.4-1.9,2.9-2.5,6.4-2.7
				c4-0.3,5.7,2.3,6.8,3.8C140.8,181.1,142.6,185.7,139,189.6z"/>
		</g>
		<g>
			<path class="st2" d="M97.9,152.6c-3.6,3.9-9.1,1.6-9.1,1.6c1.5,1.6,2.6,2.9,2.4,5.6c0,0.1,0,0.2,0,0.3c0,4.3-3.5,7.7-7.7,7.7
				s-7.7-3.5-7.7-7.7c0-0.5,0.1-1.1,0.2-1.6c0.2-1.9,1.1-3,2.4-4.3c0,0-5.5,2.3-9.1-1.6c-3.6-3.9-1.8-8.5-0.7-10.1
				c1.1-1.5,2.8-4.1,6.8-3.8c3.5,0.3,4,0.9,6.5,2.8c-0.3-5.3-3.5-8.9-3.5-8.9h0.2h5.1h5.1h0.2c-1.9,2-3.7,6.7-3.4,8.9
				c2.4-1.9,2.9-2.5,6.4-2.7c4-0.3,5.7,2.3,6.8,3.8C99.7,144.1,101.5,148.7,97.9,152.6z"/>
		</g>
	</g>
</g>
</svg>
