<?xml version="1.0" encoding="utf-8"?>
<!-- Generator: Adobe Illustrator 25.0.0, SVG Export Plug-In . SVG Version: 6.00 Build 0)  -->
<svg version="1.1" id="Ebene_1" xmlns="http://www.w3.org/2000/svg" xmlns:xlink="http://www.w3.org/1999/xlink" x="0px" y="0px"
	 viewBox="0 0 167 234" style="enable-background:new 0 0 167 234;" xml:space="preserve">
<style type="text/css">
	.st0{fill:#FFFFFF;}
	.st1{fill:#161616;}
	.st2{fill:#0D0D0D;}
</style>
<g>
	<g>
		<g>
			<path class="st0" d="M160.74,233.45H6.26c-3.28,0-5.94-2.66-5.94-5.94V6.49c0-3.28,2.66-5.94,5.94-5.94h154.48
				c3.28,0,5.94,2.66,5.94,5.94v221.02C166.68,230.79,164.02,233.45,160.74,233.45z"/>
			<path class="st1" d="M160.74,233.57H6.26c-3.34,0-6.06-2.72-6.06-6.06V6.49c0-3.34,2.72-6.06,6.06-6.06h154.48
				c3.34,0,6.06,2.72,6.06,6.06v221.02C166.79,230.85,164.08,233.57,160.74,233.57z M6.26,0.67c-3.21,0-5.82,2.61-5.82,5.82v221.02
				c0,3.21,2.61,5.82,5.82,5.82h154.48c3.21,0,5.82-2.61,5.82-5.82V6.49c0-3.21-2.61-5.82-5.82-5.82H6.26z"/>
		</g>
	</g>
	<g>
		<path class="st0" d="M149.4,18.91c0,0.31-0.25,0.57-0.57,0.57c-0.31,0-0.57-0.25-0.57-0.57s0.25-0.57,0.57-0.57
			C149.15,18.35,149.4,18.6,149.4,18.91z"/>
	</g>
	<g>
		<path class="st0" d="M122.27,18.91c0,0.31-0.25,0.57-0.57,0.57c-0.31,0-0.57-0.25-0.57-0.57s0.25-0.57,0.57-0.57
			C122.02,18.35,122.27,18.6,122.27,18.91z"/>
	</g>
	<g>
		<path class="st0" d="M97.32,18.91c0,0.31-0.25,0.57-0.57,0.57c-0.31,0-0.57-0.25-0.57-0.57s0.25-0.57,0.57-0.57
			C97.06,18.35,97.32,18.6,97.32,18.91z"/>
	</g>
	<g>
		<path class="st0" d="M72.27,19.1c0,0.31-0.25,0.57-0.57,0.57s-0.57-0.25-0.57-0.57c0-0.31,0.25-0.57,0.57-0.57
			S72.27,18.78,72.27,19.1z"/>
	</g>
	<g>
		<path class="st0" d="M149.4,40.06c0,0.31-0.25,0.57-0.57,0.57c-0.31,0-0.57-0.25-0.57-0.57c0-0.31,0.25-0.57,0.57-0.57
			C149.15,39.49,149.4,39.74,149.4,40.06z"/>
	</g>
	<g>
		<path class="st0" d="M149.4,59.35c0,0.31-0.25,0.57-0.57,0.57c-0.31,0-0.57-0.25-0.57-0.57s0.25-0.57,0.57-0.57
			C149.15,58.78,149.4,59.04,149.4,59.35z"/>
	</g>
	<g>
		<path class="st0" d="M149.4,79.57c0,0.31-0.25,0.57-0.57,0.57c-0.31,0-0.57-0.25-0.57-0.57c0-0.31,0.25-0.57,0.57-0.57
			C149.15,79,149.4,79.25,149.4,79.57z"/>
	</g>
	<g>
		<path class="st0" d="M149.4,92.35c0,0.31-0.25,0.57-0.57,0.57c-0.31,0-0.57-0.25-0.57-0.57c0-0.31,0.25-0.57,0.57-0.57
			C149.15,91.78,149.4,92.03,149.4,92.35z"/>
	</g>
	<g>
		<path class="st0" d="M149.4,105.18c0,0.31-0.25,0.57-0.57,0.57c-0.31,0-0.57-0.25-0.57-0.57s0.25-0.57,0.57-0.57
			C149.15,104.61,149.4,104.86,149.4,105.18z"/>
	</g>
	<g>
		<path class="st0" d="M19.11,19.48c0,0.31-0.25,0.57-0.57,0.57c-0.31,0-0.57-0.25-0.57-0.57c0-0.31,0.25-0.57,0.57-0.57
			C18.85,18.91,19.11,19.17,19.11,19.48z"/>
	</g>
	<g>
		<path class="st0" d="M46.55,19.1c0,0.31-0.25,0.57-0.57,0.57c-0.31,0-0.57-0.25-0.57-0.57c0-0.31,0.25-0.57,0.57-0.57
			C46.29,18.53,46.55,18.78,46.55,19.1z"/>
	</g>
	<g>
		<path class="st0" d="M19.11,39.61c0,0.31-0.25,0.57-0.57,0.57c-0.31,0-0.57-0.25-0.57-0.57c0-0.31,0.25-0.57,0.57-0.57
			C18.85,39.04,19.11,39.29,19.11,39.61z"/>
	</g>
	<g>
		<path class="st0" d="M19.11,59.48c0,0.31-0.25,0.57-0.57,0.57c-0.31,0-0.57-0.25-0.57-0.57c0-0.31,0.25-0.57,0.57-0.57
			C18.85,58.91,19.11,59.17,19.11,59.48z"/>
	</g>
	<g>
		<path class="st0" d="M19.11,79.42c0,0.31-0.25,0.57-0.57,0.57c-0.31,0-0.57-0.25-0.57-0.57c0-0.31,0.25-0.57,0.57-0.57
			C18.85,78.86,19.11,79.11,19.11,79.42z"/>
	</g>
	<g>
		<path class="st0" d="M19.11,92.35c0,0.31-0.25,0.57-0.57,0.57c-0.31,0-0.57-0.25-0.57-0.57c0-0.31,0.25-0.57,0.57-0.57
			C18.85,91.78,19.11,92.03,19.11,92.35z"/>
	</g>
	<g>
		<path class="st0" d="M19.11,105.75c0,0.31-0.25,0.57-0.57,0.57c-0.31,0-0.57-0.25-0.57-0.57c0-0.31,0.25-0.57,0.57-0.57
			C18.85,105.18,19.11,105.43,19.11,105.75z"/>
	</g>
	<g>
		<path class="st0" d="M19.11,118.68c0,0.31-0.25,0.57-0.57,0.57c-0.31,0-0.57-0.25-0.57-0.57c0-0.31,0.25-0.57,0.57-0.57
			C18.85,118.11,19.11,118.36,19.11,118.68z"/>
	</g>
	<g>
		<path class="st0" d="M19.11,131.6c0,0.31-0.25,0.57-0.57,0.57c-0.31,0-0.57-0.25-0.57-0.57c0-0.31,0.25-0.57,0.57-0.57
			C18.85,131.03,19.11,131.29,19.11,131.6z"/>
	</g>
	<g>
		<path class="st0" d="M19.11,145c0,0.31-0.25,0.57-0.57,0.57c-0.31,0-0.57-0.25-0.57-0.57c0-0.31,0.25-0.57,0.57-0.57
			C18.85,144.43,19.11,144.69,19.11,145z"/>
	</g>
	<g>
		<path class="st0" d="M19.11,158.43c0,0.31-0.25,0.57-0.57,0.57c-0.31,0-0.57-0.25-0.57-0.57c0-0.31,0.25-0.57,0.57-0.57
			C18.85,157.86,19.11,158.12,19.11,158.43z"/>
	</g>
	<g>
		<path class="st0" d="M19.11,170.43c0,0.31-0.25,0.57-0.57,0.57c-0.31,0-0.57-0.25-0.57-0.57s0.25-0.57,0.57-0.57
			C18.85,169.86,19.11,170.12,19.11,170.43z"/>
	</g>
	<g>
		<path class="st0" d="M19.11,183.83c0,0.31-0.25,0.57-0.57,0.57c-0.31,0-0.57-0.25-0.57-0.57c0-0.31,0.25-0.57,0.57-0.57
			C18.85,183.26,19.11,183.51,19.11,183.83z"/>
	</g>
	<g>
		<path class="st0" d="M19.11,196.88c0,0.31-0.25,0.57-0.57,0.57c-0.31,0-0.57-0.25-0.57-0.57c0-0.31,0.25-0.57,0.57-0.57
			C18.85,196.31,19.11,196.56,19.11,196.88z"/>
	</g>
	<g>
		<path class="st0" d="M19.34,216.06c0,0.31-0.25,0.57-0.57,0.57c-0.31,0-0.57-0.25-0.57-0.57s0.25-0.57,0.57-0.57
			C19.08,215.49,19.34,215.75,19.34,216.06z"/>
	</g>
	<g>
		<path class="st0" d="M39.86,216.63c0,0.31-0.25,0.57-0.57,0.57c-0.31,0-0.57-0.25-0.57-0.57c0-0.31,0.25-0.57,0.57-0.57
			C39.61,216.06,39.86,216.32,39.86,216.63z"/>
	</g>
	<g>
		<path class="st0" d="M66.31,216.63c0,0.31-0.25,0.57-0.57,0.57s-0.57-0.25-0.57-0.57c0-0.31,0.25-0.57,0.57-0.57
			S66.31,216.32,66.31,216.63z"/>
	</g>
	<g>
		<path class="st0" d="M92.72,216.63c0,0.31-0.25,0.57-0.57,0.57s-0.57-0.25-0.57-0.57c0-0.31,0.25-0.57,0.57-0.57
			S92.72,216.32,92.72,216.63z"/>
	</g>
	<g>
		<path class="st0" d="M118.44,216.63c0,0.31-0.25,0.57-0.57,0.57c-0.31,0-0.57-0.25-0.57-0.57c0-0.31,0.25-0.57,0.57-0.57
			C118.19,216.06,118.44,216.32,118.44,216.63z"/>
	</g>
	<g>
		<path class="st0" d="M149.4,118.36c0,0.31-0.25,0.57-0.57,0.57c-0.31,0-0.57-0.25-0.57-0.57c0-0.31,0.25-0.57,0.57-0.57
			C149.15,117.79,149.4,118.05,149.4,118.36z"/>
	</g>
	<g>
		<path class="st0" d="M149.4,130.69c0,0.31-0.25,0.57-0.57,0.57c-0.31,0-0.57-0.25-0.57-0.57s0.25-0.57,0.57-0.57
			C149.15,130.12,149.4,130.38,149.4,130.69z"/>
	</g>
	<g>
		<path class="st0" d="M149.4,143.98c0,0.31-0.25,0.57-0.57,0.57c-0.31,0-0.57-0.25-0.57-0.57c0-0.31,0.25-0.57,0.57-0.57
			C149.15,143.41,149.4,143.67,149.4,143.98z"/>
	</g>
	<g>
		<path class="st0" d="M149.4,157.09c0,0.31-0.25,0.57-0.57,0.57c-0.31,0-0.57-0.25-0.57-0.57c0-0.31,0.25-0.57,0.57-0.57
			C149.15,156.52,149.4,156.77,149.4,157.09z"/>
	</g>
	<g>
		<path class="st0" d="M149.4,169.84c0,0.31-0.25,0.57-0.57,0.57c-0.31,0-0.57-0.25-0.57-0.57c0-0.31,0.25-0.57,0.57-0.57
			C149.15,169.27,149.4,169.53,149.4,169.84z"/>
	</g>
	<g>
		<path class="st0" d="M149.4,182.42c0,0.31-0.25,0.57-0.57,0.57c-0.31,0-0.57-0.25-0.57-0.57s0.25-0.57,0.57-0.57
			C149.15,181.85,149.4,182.1,149.4,182.42z"/>
	</g>
	<g>
		<path class="st0" d="M149.4,195.26c0,0.31-0.25,0.57-0.57,0.57c-0.31,0-0.57-0.25-0.57-0.57c0-0.31,0.25-0.57,0.57-0.57
			C149.15,194.69,149.4,194.94,149.4,195.26z"/>
	</g>
	<g>
		<path class="st0" d="M149.4,214.83c0,0.31-0.25,0.57-0.57,0.57c-0.31,0-0.57-0.25-0.57-0.57c0-0.31,0.25-0.57,0.57-0.57
			C149.15,214.26,149.4,214.51,149.4,214.83z"/>
	</g>
	<g>
		<g>
			<g>
				<g>
					<path d="M15.2,25.06h0.72c0.76,0,1.32-0.47,1.67-1.42l4.17-11.78h0.48l4.21,12.34c0.13,0.32,0.28,0.55,0.47,0.67
						c0.18,0.12,0.41,0.18,0.7,0.18h1.09v0.62h-6.02v-0.62h1.28c0.19,0,0.36-0.05,0.49-0.15c0.13-0.1,0.19-0.21,0.19-0.34
						c0-0.17-0.03-0.31-0.08-0.43l-0.91-2.58h-4.54l-0.47,1.3c-0.18,0.52-0.27,0.89-0.27,1.13c0,0.28,0.07,0.53,0.21,0.75
						c0.14,0.21,0.39,0.32,0.74,0.32h1.18v0.62H15.2V25.06z M19.34,20.94h4.11l-2.02-5.92L19.34,20.94z"/>
				</g>
			</g>
		</g>
		<g>
			<g>
				<path d="M143.67,207.02h5.32v0.62h-1.18c-0.35,0-0.6,0.11-0.74,0.32c-0.14,0.21-0.21,0.46-0.21,0.75c0,0.23,0.09,0.61,0.27,1.13
					l0.47,1.3h4.54l0.91-2.58c0.05-0.12,0.08-0.26,0.08-0.43c0-0.13-0.07-0.24-0.19-0.34c-0.13-0.1-0.29-0.15-0.49-0.15h-1.28v-0.62
					h6.02v0.62h-1.09c-0.29,0-0.52,0.06-0.7,0.18c-0.18,0.12-0.34,0.35-0.47,0.67l-4.21,12.34h-0.48l-4.17-11.78
					c-0.35-0.94-0.91-1.42-1.67-1.42h-0.72V207.02z M149.9,217.68l2.02-5.92h-4.11L149.9,217.68z"/>
			</g>
		</g>
		<g>
			<path class="st2" d="M17.16,34.66c1.03,1.13,2.62,0.46,2.62,0.46c-0.44,0.47-0.74,0.85-0.68,1.63c0,0.03,0,0.05,0,0.08
				c0,1.24,1,2.24,2.24,2.24s2.24-1,2.24-2.24c0-0.16-0.02-0.31-0.05-0.45c-0.05-0.54-0.32-0.86-0.68-1.25c0,0,1.59,0.67,2.62-0.46
				c1.03-1.13,0.52-2.47,0.19-2.91c-0.33-0.44-0.81-1.18-1.96-1.09c-1.02,0.08-1.17,0.25-1.87,0.81c0.08-1.53,1.01-2.58,1.01-2.58
				h-0.06h-1.47h-1.47h-0.06c0.56,0.59,1.06,1.95,1,2.57c-0.68-0.55-0.84-0.72-1.85-0.79c-1.15-0.09-1.64,0.65-1.96,1.09
				C16.64,32.19,16.13,33.53,17.16,34.66z"/>
		</g>
		<g>
			<path class="st2" d="M104.64,106.04c-5-5.46-12.68-2.22-12.68-2.22c2.15-2.29,3.58-4.12,3.31-7.88c0-0.13,0.01-0.25,0.01-0.38
				c0-5.98-4.85-10.83-10.83-10.83c-5.98,0-10.83,4.85-10.83,10.83c0,0.75,0.08,1.49,0.22,2.2c0.25,2.6,1.53,4.17,3.3,6.07
				c0,0-7.68-3.24-12.68,2.22c-5,5.46-2.5,11.94-0.93,14.07c1.57,2.13,3.93,5.7,9.49,5.29c4.92-0.37,5.64-1.2,9.02-3.9
				c-0.4,7.42-4.91,12.49-4.91,12.49h0.28h7.13h7.13h0.28c-2.72-2.86-5.13-9.43-4.82-12.42c3.31,2.64,4.06,3.47,8.94,3.83
				c5.56,0.41,7.91-3.16,9.49-5.29C107.14,117.98,109.63,111.5,104.64,106.04z"/>
		</g>
		<g>
			<path class="st2" d="M146.32,197.8c1.03-1.13,2.62-0.46,2.62-0.46c-0.44-0.47-0.74-0.85-0.68-1.63c0-0.03,0-0.05,0-0.08
				c0-1.24,1-2.24,2.24-2.24c1.24,0,2.24,1,2.24,2.24c0,0.16-0.02,0.31-0.05,0.45c-0.05,0.54-0.32,0.86-0.68,1.25
				c0,0,1.59-0.67,2.62,0.46c1.03,1.13,0.52,2.47,0.19,2.91c-0.33,0.44-0.81,1.18-1.96,1.09c-1.02-0.08-1.17-0.25-1.87-0.81
				c0.08,1.53,1.01,2.58,1.01,2.58h-0.06h-1.47H149h-0.06c0.56-0.59,1.06-1.95,1-2.57c-0.68,0.55-0.84,0.72-1.85,0.79
				c-1.15,0.09-1.64-0.65-1.96-1.09C145.8,200.27,145.28,198.93,146.32,197.8z"/>
		</g>
	</g>
</g>
</svg>
